<svg width="400" height="400" viewBox="0 0 400 400" fill="none" xmlns="http://www.w3.org/2000/svg">
  <style>
    @media (prefers-color-scheme: dark) {
      circle { fill: #ffffff }
      path { fill: #000000 }
    }

    @media (prefers-color-scheme: light) {
      circle { fill: #ffffff }
      path { fill: #000000 }
    }
  </style>
  <circle className="icon" cx="200" cy="200" r="200" fill="#ffffff" />
  <path d="M159.638 84.1606H251.213C257.119 84.1606 261.048 90.2678 258.599 95.6422L241.442 133.294C240.679 134.968 239.009 136.043 237.17 136.043H162.129C151.71 136.043 143.263 144.489 143.263 154.909C143.263 165.328 151.71 173.775 162.129 173.775H240.364C279.437 173.775 311.112 205.45 311.112 244.523C311.112 283.597 279.437 315.272 240.364 315.272H148.788C142.882 315.272 138.954 309.165 141.403 303.79L158.559 266.138C159.322 264.464 160.992 263.39 162.832 263.39H237.872C248.292 263.39 256.738 254.943 256.738 244.523C256.738 234.104 248.292 225.657 237.872 225.657H159.638C120.565 225.657 88.8896 193.982 88.8896 154.909C88.8896 115.836 120.565 84.1606 159.638 84.1606Z" />
  <path d="M173.334 81.1347V88.8888H226.667V81.1347C226.667 72.2192 226.667 67.7615 223.898 64.9918C221.128 62.2222 216.67 62.2222 207.755 62.2222H192.247C183.331 62.2222 178.873 62.2222 176.104 64.9918C173.334 67.7615 173.334 72.2192 173.334 81.1347Z" />
  <path d="M173.334 311.111V318.865C173.334 327.781 173.334 332.238 176.104 335.008C178.873 337.778 183.331 337.778 192.247 337.778H192.247H207.755C216.67 337.778 221.128 337.778 223.898 335.008C226.667 332.238 226.667 327.781 226.667 318.865V311.111H173.334Z" />
</svg>