<?xml version="1.0" standalone="no"?>
<!DOCTYPE svg PUBLIC "-//W3C//DTD SVG 20010904//EN"
 "http://www.w3.org/TR/2001/REC-SVG-20010904/DTD/svg10.dtd">
<svg version="1.0" xmlns="http://www.w3.org/2000/svg"
 width="400.000000pt" height="400.000000pt" viewBox="0 0 400.000000 400.000000"
 preserveAspectRatio="xMidYMid meet">
<metadata>
Created by potrace 1.14, written by Peter Selinger 2001-2017
</metadata>
<g transform="translate(0.000000,400.000000) scale(0.100000,-0.100000)"
fill="#000000" stroke="none">
<path d="M1848 3995 c-1 -1 -35 -5 -73 -9 -190 -17 -436 -88 -628 -179 -601
-286 -1008 -827 -1122 -1492 -15 -91 -20 -167 -19 -325 1 -169 3 -202 24 -337
11 -66 55 -245 69 -278 5 -11 18 -47 31 -80 33 -89 132 -291 180 -365 149
-231 351 -439 575 -591 224 -152 542 -275 812 -315 26 -3 57 -9 68 -11 39 -9
361 -11 442 -2 115 12 271 44 388 81 111 34 276 102 315 128 14 10 29 18 33
18 13 1 197 117 256 161 240 180 454 437 589 707 70 140 146 354 166 469 3 17
10 53 15 82 33 170 36 498 6 653 -3 14 -7 40 -10 57 -19 116 -84 331 -131 428
-13 29 -24 54 -24 57 0 8 -97 182 -125 226 -328 502 -841 827 -1435 908 -48 6
-396 15 -402 9z"/>
</g>
</svg>
