<svg width="960" height="960" viewBox="0 0 960 960" fill="none" xmlns="http://www.w3.org/2000/svg">
<g clip-path="url(#clip0_248_1698)">
<path fill-rule="evenodd" clip-rule="evenodd" d="M678.225 366.149C677.233 363.396 676.938 360.44 677.366 357.545C677.538 355.802 678.281 354.165 679.479 352.887C681.269 351.205 684.096 351.037 686.41 351.887C688.674 352.865 690.705 354.311 692.372 356.129C691.891 354.184 691.059 352.35 690.226 350.515C689.434 348.769 688.641 347.021 688.15 345.174C687.142 341.387 687.88 336.572 691.403 334.832C694.926 333.092 699.058 335.297 702.203 337.64L703.656 338.74L722.369 292.699L725.434 294.014L725.503 293.856C725.862 289.825 726.225 285.798 726.591 281.774L726.581 280.755C726.645 279.709 726.709 278.663 726.773 277.618C726.907 275.435 727.04 273.253 727.181 271.066L727.211 270.651C726.064 270.572 724.917 270.453 723.78 270.325C723.831 265.738 724.222 261.161 724.947 256.631C725.005 255.53 725.454 254.486 726.212 253.685C727.127 253.097 728.215 252.839 729.297 252.953C730.352 252.953 731.573 252.875 732.875 252.792C737.219 252.514 742.473 252.178 745.551 254.486C747.242 255.761 747.736 257.62 747.884 259.637C747.899 259.842 747.919 260.08 747.942 260.345C748.161 262.927 748.597 268.071 747.172 269.623C746.572 270.138 745.807 270.418 745.017 270.414C743.328 270.595 741.628 270.73 739.917 270.819L742.498 271.541C742.493 272.625 742.49 273.708 742.488 274.791C742.485 275.875 742.483 276.958 742.478 278.041C742.534 278.561 742.419 279.085 742.152 279.534C741.977 279.719 741.767 279.868 741.535 279.971C741.302 280.074 741.051 280.129 740.797 280.134L740.906 281.073C741.331 287.353 741.212 293.658 740.55 299.917L740.35 300.382L743.761 301.845L761.133 309.261L761.281 308.905C762.411 306.631 763.544 304.357 764.681 302.083C764.954 301.342 765.461 300.711 766.125 300.283C767.035 299.989 768.024 300.061 768.883 300.483C769.968 300.856 771.053 301.226 772.139 301.596C773.358 302.012 774.577 302.428 775.794 302.846C777.524 303.439 779.354 304.102 780.461 305.555C781.001 306.361 781.348 307.281 781.475 308.243C781.602 309.205 781.505 310.184 781.192 311.102C780.551 312.932 779.627 314.65 778.454 316.193L778.286 316.593L795.875 324.117L826.109 337.029L811.17 377.629L811.18 377.955C795.78 378.577 780.414 376.078 766.006 370.609C765.743 370.509 765.479 370.408 765.214 370.307C759.267 368.031 752.683 365.512 747.023 368.266C745.544 368.996 744.229 370.019 743.157 371.272C740.231 374.643 738.768 379.508 737.621 383.986C735.425 392.539 733.225 401.091 731.021 409.643C730.437 411.746 730.001 413.887 729.716 416.05C729.41 418.246 729.603 420.483 730.28 422.595C732.494 428.982 739.652 431.978 746.059 434.123C759.589 438.802 773.421 442.562 787.459 445.375L787.359 445.875L778.184 470.444L668.478 425.31L681.232 393.919L681.539 393.454C681.213 393.248 680.898 393.041 680.583 392.833L680.58 392.831C677.742 390.966 674.875 388.994 672.858 386.266C670.841 383.538 669.783 379.86 670.97 376.686C671.396 375.539 672.087 374.509 672.988 373.681C673.889 372.853 674.973 372.25 676.152 371.922C677.331 371.594 678.571 371.55 679.77 371.794C680.969 372.038 682.093 372.562 683.051 373.324C680.875 371.367 679.217 368.902 678.225 366.149ZM586.319 407.883C609.334 413.94 635.011 412.101 655.319 399.683L655.629 399.684C655.372 423.858 655.066 453.805 655.866 471.523C656.025 474.914 656.331 478.641 658.743 481.014C661.205 483.427 665.012 483.634 668.482 483.644H668.719C718.354 483.69 767.993 483.733 817.637 483.773C818.915 483.794 820.193 483.731 821.463 483.585C823.445 483.445 825.31 482.592 826.713 481.185C828.779 478.882 828.681 475.421 828.463 472.326C827.919 464.769 827.376 457.209 826.832 449.646L826.763 448.321C828.414 448.221 830.075 448.09 831.736 447.921C860.736 445.074 889.951 430.293 903.536 404.508C915.113 382.519 913.795 355.064 903.18 332.59C892.565 310.116 873.519 292.369 851.965 279.99C830.441 267.632 806.426 260.266 782.252 254.601C782.856 250.903 780.532 246.642 777.121 244.625C773.137 242.272 768.322 242.113 763.665 242.202C763.198 242.222 762.733 242.232 762.276 242.242L762.251 242.242L722.525 243.369C722.355 243.374 722.186 243.38 722.017 243.385C721.204 243.41 720.387 243.436 719.569 243.469C713.755 243.696 707.882 244.309 702.869 247.176C697.006 250.518 692.913 257.993 695.661 264.162L694.119 264.202C685.448 261.186 675.452 263.411 667.8 268.542C659.8 273.911 654.074 282.082 649.744 290.684C647.099 295.937 644.916 301.396 642.732 306.857C641.339 310.338 639.946 313.82 638.434 317.25C635.942 322.886 632.709 328.779 627.083 331.27C619.747 334.533 611.294 330.841 604.333 326.841C592.743 320.188 581.765 312.522 571.528 303.933C568.342 301.264 565.231 298.505 562.195 295.657C558.972 292.632 554.483 289.28 550.588 291.386C549.423 292.068 548.479 293.07 547.869 294.273C547.379 295.151 546.947 296.059 546.574 296.992C542.444 306.847 538.308 316.707 534.166 326.574C529.904 336.733 525.642 346.9 521.382 357.074C520.354 359.516 519.311 362.116 519.711 364.727C520.185 367.92 522.67 370.382 525.07 372.547C538.945 385.074 554.612 395.989 571.845 403.029C576.558 404.961 581.393 406.583 586.319 407.883ZM862.142 293.843C861.443 293.415 860.53 293.635 860.102 294.334C859.675 295.032 859.894 295.945 860.593 296.373C870.636 302.521 879.173 310.842 885.577 320.724C891.982 330.606 896.09 341.797 897.6 353.476C899.111 365.154 897.985 377.022 894.306 388.208C890.626 399.394 884.487 409.613 876.339 418.115C875.772 418.706 875.792 419.645 876.383 420.212C876.974 420.778 877.913 420.758 878.48 420.167C886.935 411.346 893.305 400.742 897.123 389.135C900.941 377.528 902.109 365.213 900.542 353.095C898.975 340.977 894.712 329.365 888.066 319.111C881.421 308.857 872.562 300.223 862.142 293.843Z" fill="url(#paint0_linear_248_1698)"/>
<path d="M799.935 861.424C811.948 856.461 820.435 845.377 826.027 833.652L826.521 833.711C825.395 843.273 822.661 852.576 818.434 861.226C815.408 867.396 811.394 873.417 805.434 876.826C798.573 880.751 790.228 880.672 782.328 880.494L755.92 879.871C750.888 879.752 745.203 879.337 741.99 875.461C739.113 872.001 739.399 867.097 741.19 862.816L742.09 863.182C761.416 860.959 781.961 868.859 799.935 861.424Z" fill="#171717"/>
<path d="M767.545 839.426C775.979 833.207 783.721 823.557 781.763 813.255L781.883 812.955C787.162 815.012 793.163 815.921 798.798 816.623C805.857 817.503 813.046 818.383 820.076 817.216C821.401 816.998 822.712 816.698 824 816.316L826.808 816.592C827.292 822.292 827.195 828.026 826.521 833.707L826.027 833.648C820.427 845.373 811.948 856.457 799.935 861.42C781.961 868.855 761.416 860.955 742.087 863.18L741.188 862.814C741.736 861.502 742.419 860.249 743.224 859.077C749.176 850.449 759.1 845.644 767.545 839.426Z" fill="url(#paint1_linear_248_1698)"/>
<path d="M747.879 259.644C748.047 261.839 748.739 267.919 747.167 269.63C746.568 270.145 745.802 270.426 745.012 270.421C743.321 270.599 741.621 270.734 739.912 270.826C735.68 271.052 731.437 270.995 727.212 270.658C726.065 270.579 724.918 270.458 723.781 270.332C723.833 265.745 724.223 261.168 724.948 256.638C725.007 255.537 725.456 254.493 726.213 253.692C727.128 253.105 728.217 252.846 729.298 252.96C733.875 252.96 741.548 251.497 745.552 254.493C747.237 255.768 747.731 257.627 747.879 259.644Z" fill="#171717"/>
<path d="M742.492 271.548C742.482 273.713 742.482 275.878 742.472 278.048C742.529 278.568 742.414 279.092 742.146 279.541C741.972 279.726 741.762 279.875 741.529 279.978C741.297 280.081 741.046 280.136 740.791 280.141C740.613 280.16 740.435 280.17 740.257 280.18C735.691 280.38 731.13 280.575 726.574 280.763C726.774 277.53 726.974 274.307 727.174 271.074L727.204 270.659C731.429 270.996 735.672 271.053 739.904 270.827L742.492 271.548Z" fill="#171717"/>
<path d="M746.601 144.362C736.277 145.221 725.892 144.996 715.615 143.69C711.725 143.259 707.883 142.474 704.136 141.346C702.45 140.814 700.808 140.153 699.223 139.369C694.131 136.828 689.662 132.656 687.823 127.277C687.24 125.557 686.973 123.54 687.981 122.027C690.107 118.854 695.228 120.94 697.591 123.945C699.954 126.95 701.961 130.965 705.748 131.539C703.978 129.116 702.139 126.506 702.04 123.51C701.941 120.514 704.492 117.272 707.429 117.855C709.1 118.181 710.329 119.575 711.413 120.89C714.716 124.914 717.936 129.004 721.073 133.16C719.392 130.66 717.632 127.95 717.701 124.934C717.77 121.918 720.608 118.824 723.485 119.704C726.293 120.574 726.975 124.104 728.385 126.674C730.61 130.718 735.346 132.824 739.943 133.239C744.54 133.654 749.138 132.666 753.706 131.993C759.579 131.123 766.124 130.935 770.86 134.524C775.704 138.212 777.237 144.906 776.98 150.986C776.723 157.066 775.032 163.048 774.903 169.139C774.841 175 776.2 180.789 778.865 186.01C781.529 191.231 785.42 195.728 790.203 199.116C788.14 200.208 785.807 200.685 783.482 200.49C781.156 200.295 778.935 199.437 777.083 198.016C780.266 200.627 783.783 204.73 781.759 208.309C780.286 210.899 776.489 211.309 773.83 209.97C771.171 208.631 768.382 205.076 766.701 202.614H766.592C767.205 187.467 767.159 172.314 766.454 157.154C766.335 154.405 766.148 151.538 764.724 149.185C761.301 143.531 753.181 143.808 746.601 144.362Z" fill="#171717"/>
<path d="M740.347 300.388L725.428 294.021L725.497 293.863C725.863 289.839 726.225 285.812 726.585 281.781L726.575 280.762C731.133 280.575 735.694 280.38 740.258 280.179C740.436 280.169 740.614 280.159 740.792 280.14L740.901 281.079C741.326 287.359 741.207 293.664 740.545 299.923L740.347 300.388Z" fill="#171717"/>
<path d="M736.521 843.548H736.6C736.492 847.048 736.037 850.687 733.713 853.238C731.004 856.214 726.605 856.787 722.59 857.173C695.975 859.733 669.221 862.304 642.546 860.495C635.298 860.01 627.221 858.725 622.9 852.901C621.606 851.136 620.758 849.084 620.428 846.92L620.628 846.88C659.274 849.599 698.095 848.483 736.521 843.548V843.548Z" fill="#171717"/>
<path d="M684.18 795.31C680.28 791.21 679.859 785.018 679.641 779.372C675.924 680.472 672.197 582.542 668.479 483.643H668.716C718.348 483.692 767.987 483.735 817.633 483.772C818.912 483.793 820.19 483.73 821.459 483.584L821.529 484.084C831.99 584.704 838.544 684.75 841.203 785.874C841.381 792.933 841.441 800.437 837.773 806.468C834.767 811.412 829.606 814.655 824 816.316C822.712 816.698 821.401 816.998 820.076 817.216C813.046 818.383 805.857 817.503 798.798 816.623C793.163 815.923 787.162 815.012 781.883 812.955C777.392 811.398 773.479 808.517 770.66 804.69C766.942 799.351 766.24 792.548 765.66 786.082C759.293 715.865 750.979 638.124 744.612 567.907C747.825 634.861 751.038 701.815 754.251 768.77C754.676 777.51 754.735 787.27 748.803 793.695C745.155 797.64 739.965 799.479 734.576 800.409C732.51 800.774 730.423 801.002 728.375 801.16C718.273 801.963 708.117 801.771 698.052 800.586C695.19 800.329 692.369 799.724 689.652 798.786C687.589 798.056 685.718 796.867 684.18 795.31Z" fill="#171717"/>
<path d="M676.605 814.461C682.755 811.228 688.054 805.761 689.567 798.978L689.646 798.79C692.362 799.729 695.183 800.333 698.046 800.59C708.11 801.775 718.267 801.967 728.369 801.164C730.416 801.006 732.502 800.778 734.569 800.413L734.797 801.727C736.192 815.186 736.803 828.714 736.626 842.244C736.616 842.669 736.606 843.102 736.596 843.544H736.517C698.09 848.479 659.269 849.595 620.622 846.876L620.422 846.916C619.798 842.748 620.666 838.493 622.874 834.903C626.196 829.485 631.931 825.886 637.942 823.81C643.953 821.734 650.331 820.982 656.629 820.033C663.505 819.019 670.465 817.7 676.605 814.461Z" fill="url(#paint2_linear_248_1698)"/>
<path d="M491.116 269.877C487.916 268.756 484.56 268.142 481.17 268.058L481.209 267.118C481.644 266.861 482.02 266.634 482.326 266.426C484.326 265.082 486.41 263.026 485.935 260.662C485.559 258.784 483.71 257.607 481.921 256.915C476.295 254.75 469.987 255.323 464.095 256.727L463.795 255.482L452.023 242.46L468.781 230.833L487.992 252.417L513.905 281.544L506.816 289.127L506.678 289.334C502.276 286.374 497.155 284.66 491.857 284.371L491.957 282.908C493.189 282.029 494.237 280.917 495.042 279.635C496.367 277.49 496.762 274.563 495.289 272.527C494.198 271.242 492.743 270.318 491.116 269.877V269.877Z" fill="#171717"/>
<path d="M332.687 300.092L401.777 264.469L419.228 328.25L386.423 316.197L318.727 419.842H216.832L162.394 505.335H132.387L203.573 397.162H297.094L364.088 308.149L332.687 300.092Z" fill="#171717"/>
<path d="M402.479 202.319H132.387V224.99H402.479V202.319Z" fill="url(#paint3_linear_248_1698)"/>
<path d="M348.734 152.884H132.387V175.555H348.734V152.884Z" fill="url(#paint4_linear_248_1698)"/>
<path d="M719.555 243.152C720.662 239.297 721.78 235.352 721.542 231.352C721.304 227.352 719.476 223.206 715.956 221.278C713.256 219.795 709.905 219.765 707.335 218.064C703.103 215.264 702.688 209.305 702.708 204.223C702.797 184.093 702.889 163.963 702.985 143.833" stroke="#171717" stroke-width="2.966" stroke-linecap="round" stroke-linejoin="round"/>
<path d="M716.766 152.884L734.592 152.944C732.704 164.294 730.812 175.646 728.917 187C728.781 187.249 728.719 187.53 728.737 187.812C728.755 188.094 728.852 188.366 729.017 188.595C729.183 188.824 729.409 189.002 729.672 189.108C729.934 189.214 730.22 189.244 730.499 189.194C732.743 189.324 734.98 189.449 737.212 189.57" stroke="#171717" stroke-width="2.966" stroke-linecap="round" stroke-linejoin="round"/>
<path d="M738.801 204.316C741.077 205.13 743.549 205.22 745.878 204.574C748.207 203.928 750.28 202.578 751.812 200.708" stroke="#171717" stroke-width="2.966" stroke-linecap="round" stroke-linejoin="round"/>
<path d="M713.969 162.88C715.386 162.492 716.87 162.416 718.32 162.657C719.769 162.899 721.148 163.453 722.363 164.28" stroke="#171717" stroke-width="2.966" stroke-linecap="round" stroke-linejoin="round"/>
<path d="M744.699 162.94C747.094 162.131 749.653 161.93 752.144 162.356" stroke="#171717" stroke-width="2.966" stroke-linecap="round" stroke-linejoin="round"/>
<path d="M763.63 241.037C765.084 228.273 766.069 215.466 766.586 202.616C767.199 187.469 767.153 172.316 766.448 157.156C766.329 154.407 766.142 151.54 764.718 149.187C761.297 143.531 753.18 143.808 746.595 144.362C736.271 145.221 725.886 144.996 715.609 143.69C711.72 143.259 707.877 142.474 704.13 141.346C702.444 140.814 700.802 140.153 699.217 139.369C694.125 136.828 689.656 132.656 687.817 127.277C687.234 125.557 686.967 123.54 687.975 122.027C690.101 118.854 695.222 120.94 697.585 123.945C699.948 126.95 701.955 130.965 705.742 131.539C703.972 129.116 702.133 126.506 702.034 123.51C701.935 120.514 704.486 117.272 707.423 117.855C709.094 118.181 710.323 119.575 711.407 120.89C714.71 124.914 717.93 129.004 721.067 133.16C719.386 130.66 717.626 127.95 717.695 124.934C717.764 121.918 720.602 118.824 723.479 119.704C726.287 120.574 726.969 124.104 728.379 126.674C730.604 130.718 735.34 132.824 739.937 133.239C744.534 133.654 749.132 132.666 753.7 131.993C759.573 131.123 766.118 130.935 770.854 134.524C775.698 138.212 777.231 144.906 776.974 150.986C776.717 157.066 775.026 163.048 774.897 169.139C774.835 175 776.194 180.789 778.859 186.01C781.524 191.231 785.414 195.728 790.197 199.116C788.135 200.208 785.802 200.685 783.476 200.49C781.15 200.295 778.929 199.437 777.077 198.016C780.26 200.627 783.777 204.73 781.753 208.309C780.28 210.899 776.483 211.309 773.824 209.97C771.165 208.631 768.376 205.076 766.695 202.614" stroke="#171717" stroke-width="2.966" stroke-linecap="round" stroke-linejoin="round"/>
<path d="M695.658 264.162C692.91 257.993 697.003 250.518 702.866 247.176C707.879 244.309 713.752 243.696 719.566 243.469C720.555 243.429 721.543 243.4 722.522 243.369L762.248 242.242C762.713 242.232 763.187 242.222 763.662 242.202C768.319 242.113 773.134 242.272 777.118 244.625C780.529 246.642 782.853 250.903 782.249 254.601C782.09 255.68 781.661 256.701 781.001 257.568" stroke="#171717" stroke-width="2.966" stroke-linecap="round" stroke-linejoin="round"/>
<path d="M695.252 264.627C694.876 264.469 694.491 264.327 694.115 264.202C685.444 261.186 675.448 263.411 667.796 268.542C659.796 273.911 654.063 282.077 649.742 290.679C645.421 299.281 642.317 308.436 638.432 317.245C635.94 322.881 632.707 328.774 627.081 331.265C619.745 334.528 611.292 330.84 604.331 326.836C592.742 320.183 581.764 312.517 571.526 303.928C568.344 301.262 565.233 298.503 562.193 295.652C558.97 292.627 554.481 289.275 550.586 291.381C549.422 292.063 548.478 293.065 547.867 294.268C547.378 295.146 546.945 296.054 546.572 296.987C542.439 306.844 538.303 316.705 534.164 326.569C529.902 336.733 525.641 346.9 521.38 357.069C520.352 359.511 519.313 362.111 519.709 364.722C520.183 367.915 522.665 370.377 525.068 372.542C538.939 385.069 554.61 395.984 571.843 403.024C576.557 404.956 581.392 406.578 586.317 407.878C609.334 413.939 635.011 412.1 655.317 399.678" stroke="#171717" stroke-width="2.966" stroke-linecap="round" stroke-linejoin="round"/>
<path d="M547.431 294.011C539.818 282.799 531.721 271.973 523.139 261.532C516.339 253.257 508.605 244.832 498.471 242.371C495.92 241.758 493.152 241.561 490.771 242.708C488.39 243.855 486.579 246.633 487.142 249.322C487.364 250.304 487.838 251.21 488.517 251.952C489.704 253.174 491.088 254.188 492.61 254.952C498.81 258.422 505.013 261.889 511.217 265.352" stroke="#171717" stroke-width="3.346" stroke-linecap="round" stroke-linejoin="round"/>
<path d="M506.816 289.127L513.905 281.544L487.992 252.417L468.781 230.833L452.023 242.46L463.798 255.482" stroke="#171717" stroke-width="2.966" stroke-linecap="round" stroke-linejoin="round"/>
<path d="M782.149 254.582C782.181 254.594 782.215 254.6 782.249 254.602C806.423 260.267 830.438 267.633 851.962 279.991C873.516 292.37 892.562 310.117 903.177 332.591C913.792 355.065 915.11 382.52 903.533 404.509C889.948 430.294 860.733 445.075 831.733 447.922C830.072 448.091 828.411 448.222 826.76 448.322C813.589 448.957 800.389 447.967 787.46 445.376C773.422 442.563 759.591 438.803 746.06 434.124C739.653 431.979 732.495 428.983 730.281 422.596C729.604 420.484 729.412 418.247 729.717 416.051C730.002 413.888 730.438 411.747 731.022 409.644C733.227 401.092 735.427 392.54 737.622 383.987C738.769 379.509 740.232 374.644 743.158 371.273C744.23 370.02 745.545 368.997 747.024 368.267C752.937 365.39 759.857 368.267 766.007 370.61C780.416 376.079 795.782 378.578 811.181 377.956C816.704 377.748 822.203 377.127 827.633 376.098" stroke="#171717" stroke-width="2.966" stroke-linecap="round" stroke-linejoin="round"/>
<path d="M655.812 376.745C655.792 383.102 655.712 391.022 655.624 399.683C655.367 423.857 655.06 453.804 655.861 471.522C656.02 474.913 656.326 478.64 658.738 481.013C661.2 483.426 665.007 483.633 668.477 483.643H668.714C718.347 483.692 767.986 483.735 817.632 483.772C818.91 483.793 820.188 483.73 821.458 483.584C823.441 483.444 825.305 482.592 826.708 481.184C828.774 478.884 828.676 475.42 828.458 472.325C827.914 464.762 827.371 457.202 826.827 449.645" stroke="#171717" stroke-width="2.966" stroke-linecap="round" stroke-linejoin="round"/>
<path d="M744.609 567.9C743.778 550.657 742.951 533.418 742.127 516.181" stroke="#171717" stroke-width="2.966" stroke-linecap="round" stroke-linejoin="round"/>
<path d="M668.479 483.534V483.643C672.197 582.543 675.924 680.473 679.641 779.372C679.859 785.018 680.284 791.207 684.18 795.31C685.715 796.868 687.585 798.058 689.646 798.79C692.363 799.729 695.184 800.333 698.047 800.59C708.111 801.775 718.267 801.967 728.37 801.164C730.417 801.006 732.502 800.778 734.569 800.413C739.958 799.483 745.149 797.644 748.797 793.699C754.729 787.273 754.67 777.514 754.245 768.774C751.041 701.82 747.828 634.866 744.605 567.911" stroke="#171717" stroke-width="2.966" stroke-linecap="round" stroke-linejoin="round"/>
<path d="M744.607 567.9V567.91C750.974 638.127 759.289 715.868 765.656 786.085C766.239 792.551 766.941 799.354 770.656 804.693C773.475 808.52 777.388 811.401 781.878 812.958C787.157 815.015 793.159 815.924 798.794 816.626C805.853 817.506 813.041 818.386 820.071 817.219C821.397 817.001 822.708 816.701 823.996 816.319C829.602 814.658 834.763 811.419 837.769 806.471C841.437 800.44 841.377 792.936 841.199 785.877C838.54 684.753 831.985 584.707 821.524 484.087" stroke="#171717" stroke-width="2.966" stroke-linecap="round" stroke-linejoin="round"/>
<path d="M689.568 798.978C688.055 805.76 682.756 811.228 676.606 814.461C670.456 817.694 663.506 819.019 656.635 820.037C650.335 820.986 643.959 821.728 637.948 823.814C631.937 825.9 626.202 829.489 622.88 834.907C620.672 838.497 619.803 842.752 620.428 846.92C620.758 849.083 621.607 851.135 622.901 852.9C627.222 858.724 635.301 860.009 642.547 860.494C669.222 862.303 695.976 859.732 722.591 857.172C726.606 856.786 731.005 856.213 733.714 853.237C736.038 850.686 736.493 847.047 736.601 843.547C736.611 843.102 736.621 842.668 736.631 842.247C736.807 828.717 736.197 815.189 734.802 801.73" stroke="#171717" stroke-width="2.966" stroke-linecap="round" stroke-linejoin="round"/>
<path d="M781.763 813.255C783.721 823.555 775.979 833.207 767.545 839.426C759.111 845.645 749.176 850.449 743.224 859.081C742.418 860.254 741.736 861.506 741.187 862.818C739.397 867.099 739.111 872.003 741.987 875.463C745.2 879.339 750.887 879.754 755.917 879.873L782.325 880.496C790.225 880.674 798.57 880.753 805.431 876.828C811.393 873.417 815.407 867.396 818.431 861.228C825.199 847.38 828.093 831.958 826.805 816.598" stroke="#171717" stroke-width="2.966" stroke-linecap="round" stroke-linejoin="round"/>
<path d="M571.714 303.7V97.4092L39.9141 108.927L46.1921 559.081L571.714 548.61V403.361" stroke="#171717" stroke-width="2.966" stroke-linecap="round" stroke-linejoin="round"/>
<path d="M811.167 377.625L826.106 337.029L795.872 324.117L778.283 316.593L761.129 309.267L743.757 301.851L740.346 300.388L725.427 294.021L722.362 292.706L703.656 338.74" stroke="#171717" stroke-width="2.966" stroke-linecap="round" stroke-linejoin="round"/>
<path d="M681.232 393.919L668.479 425.31L778.185 470.444L787.359 445.875" stroke="#171717" stroke-width="2.966" stroke-linecap="round" stroke-linejoin="round"/>
<path d="M743.163 303.236L741.453 313.933L785.628 331.216L795.871 324.117" stroke="#171717" stroke-width="2.966" stroke-linecap="round" stroke-linejoin="round"/>
<path d="M743.163 371.307C743.163 371.297 743.153 371.278 743.153 371.268C738.615 353.402 726.353 331.512 719.978 331.542C719.051 331.63 718.193 332.071 717.582 332.774C716.971 333.477 716.654 334.388 716.696 335.319C716.637 337.104 716.83 338.888 717.269 340.619C720.186 349.547 720.097 352.296 723.488 360.106C718.083 351.953 711.384 344.737 703.655 338.741L702.202 337.641C699.057 335.298 694.925 333.093 691.402 334.833C687.879 336.573 687.141 341.388 688.149 345.175C689.157 348.962 691.432 352.333 692.371 356.13C690.705 354.312 688.674 352.866 686.409 351.888C684.095 351.038 681.268 351.206 679.478 352.888C678.28 354.165 677.536 355.802 677.362 357.545C676.934 360.44 677.23 363.396 678.222 366.149C679.213 368.902 680.871 371.367 683.047 373.324C682.09 372.562 680.966 372.038 679.767 371.794C678.568 371.55 677.328 371.594 676.149 371.922C674.97 372.25 673.886 372.853 672.985 373.681C672.084 374.509 671.392 375.539 670.966 376.686C669.779 379.86 670.837 383.538 672.854 386.266C674.871 388.994 677.738 390.966 680.576 392.831C680.892 393.039 681.208 393.247 681.535 393.454C696.355 403.163 712.095 411.735 729.035 416.954C729.223 416.648 729.42 416.341 729.618 416.035" stroke="#171717" stroke-width="2.966" stroke-linecap="round" stroke-linejoin="round"/>
<path d="M468.968 272.121C473.225 270.925 477.331 269.247 481.208 267.121C481.643 266.864 482.019 266.637 482.325 266.429C484.325 265.085 486.409 263.029 485.934 260.665C485.558 258.787 483.709 257.61 481.92 256.918C476.294 254.753 469.986 255.326 464.094 256.73C463.856 256.78 463.619 256.839 463.394 256.898C460.649 257.437 458.046 258.542 455.751 260.141C453.556 261.852 451.951 264.581 452.271 267.349C452.933 273.143 458.351 274.112 464.491 273.123C465.996 272.881 467.486 272.547 468.95 272.123" stroke="#171717" stroke-width="2.966" stroke-linecap="round" stroke-linejoin="round"/>
<path d="M470.353 271.9C469.888 271.969 469.434 272.048 468.969 272.117C468.967 272.118 468.966 272.119 468.964 272.12C468.962 272.121 468.96 272.121 468.959 272.121C468.957 272.121 468.955 272.121 468.953 272.12C468.951 272.119 468.95 272.118 468.949 272.117C467.442 272.354 465.953 272.688 464.49 273.117C462.827 273.593 461.263 274.363 459.873 275.391C456.927 277.665 455.305 282.124 457.381 285.219C458.562 286.798 460.31 287.857 462.256 288.175C463.443 288.431 464.65 288.58 465.864 288.62C472.336 288.896 478.809 288.061 485 286.151C487.482 285.459 489.833 284.364 491.96 282.908C493.192 282.029 494.24 280.917 495.045 279.635C496.37 277.49 496.765 274.563 495.292 272.527C494.201 271.242 492.746 270.318 491.12 269.877C487.919 268.756 484.564 268.142 481.174 268.058H481.085" stroke="#171717" stroke-width="2.966" stroke-linecap="round" stroke-linejoin="round"/>
<path d="M462.077 289.028C461.742 289.746 461.597 290.538 461.658 291.328C461.719 292.117 461.982 292.878 462.423 293.536C463.326 294.838 464.491 295.936 465.844 296.76C472.979 301.585 481.357 304.243 489.968 304.412C492.766 304.486 495.563 304.21 498.293 303.592C501.235 302.939 504.012 301.687 506.449 299.914C508.733 298.203 510.76 295.356 509.791 292.676C509.161 291.318 508.129 290.186 506.835 289.433C506.785 289.397 506.732 289.363 506.677 289.333C502.274 286.374 497.153 284.659 491.856 284.37H491.799" stroke="#171717" stroke-width="2.966" stroke-linecap="round" stroke-linejoin="round"/>
<path d="M498.344 303.8C512.023 308.008 524.309 315.838 533.901 326.46" stroke="#171717" stroke-width="2.966" stroke-linecap="round" stroke-linejoin="round"/>
<path d="M778.45 316.2C779.624 314.657 780.548 312.939 781.188 311.109C781.502 310.191 781.599 309.212 781.472 308.25C781.345 307.288 780.998 306.368 780.457 305.562C779.35 304.109 777.52 303.446 775.79 302.853C773.49 302.062 771.183 301.281 768.879 300.49C768.021 300.068 767.032 299.997 766.121 300.29C765.458 300.718 764.951 301.35 764.677 302.09C763.541 304.364 762.407 306.638 761.277 308.912" stroke="#171717" stroke-width="2.636" stroke-linecap="round" stroke-linejoin="round"/>
<path d="M739.91 270.826C741.622 270.737 743.322 270.602 745.01 270.421C745.801 270.426 746.566 270.145 747.165 269.63C748.737 267.919 748.045 261.839 747.877 259.644C747.729 257.627 747.235 255.768 745.544 254.493C741.544 251.493 733.867 252.96 729.29 252.96C728.209 252.846 727.121 253.105 726.205 253.692C725.448 254.493 724.999 255.537 724.94 256.638C724.215 261.168 723.825 265.745 723.773 270.332C724.91 270.46 726.057 270.579 727.204 270.658C731.431 270.996 735.676 271.052 739.91 270.826Z" stroke="#171717" stroke-width="2.636" stroke-linecap="round" stroke-linejoin="round"/>
<path d="M727.176 271.073C726.968 274.306 726.776 277.529 726.576 280.762C731.134 280.575 735.695 280.381 740.259 280.179C740.437 280.169 740.615 280.159 740.793 280.14C741.048 280.136 741.298 280.08 741.531 279.977C741.764 279.874 741.974 279.725 742.148 279.54C742.416 279.091 742.53 278.567 742.474 278.047C742.484 275.881 742.484 273.716 742.494 271.547" stroke="#171717" stroke-width="2.636" stroke-linecap="round" stroke-linejoin="round"/>
<path d="M725.5 293.863C725.866 289.839 726.229 285.812 726.588 281.781" stroke="#171717" stroke-width="2.636" stroke-linecap="round" stroke-linejoin="round"/>
<path d="M740.545 299.923C741.207 293.664 741.327 287.359 740.901 281.079" stroke="#171717" stroke-width="2.636" stroke-linecap="round" stroke-linejoin="round"/>
<path d="M94.0059 152.884L100.986 517.901" stroke="#171717" stroke-width="2.966" stroke-linecap="round" stroke-linejoin="round"/>
<path d="M100.986 532.554L528.103 517.901" stroke="#171717" stroke-width="2.966" stroke-linecap="round" stroke-linejoin="round"/>
<path d="M162.394 505.335L216.832 419.842H318.727L386.423 316.197L419.228 328.25L401.777 264.469L332.687 300.092L364.088 308.149L297.094 397.162H203.573L132.387 505.335H162.394Z" stroke="#171717" stroke-width="2.966" stroke-linecap="round" stroke-linejoin="round"/>
<path d="M348.734 152.884H132.387V175.555H348.734V152.884Z" stroke="#171717" stroke-width="2.966" stroke-linecap="round" stroke-linejoin="round"/>
<path d="M402.479 202.319H132.387V224.99H402.479V202.319Z" stroke="#171717" stroke-width="3.314" stroke-linecap="round" stroke-linejoin="round"/>
<path d="M82.834 151.273H104.466" stroke="#171717" stroke-width="3.314" stroke-linecap="round" stroke-linejoin="round"/>
<path d="M516.119 527.67L529.842 517.901L516.119 507.431" stroke="#171717" stroke-width="3.314" stroke-linecap="round" stroke-linejoin="round"/>
<path d="M620.625 846.88C659.272 849.599 698.093 848.483 736.52 843.548" stroke="#171717" stroke-width="2.966" stroke-linecap="round" stroke-linejoin="round"/>
<path d="M742.088 863.184C761.417 860.959 781.962 868.859 799.936 861.424C811.949 856.461 820.436 845.377 826.028 833.652" stroke="#171717" stroke-width="2.966" stroke-linecap="round" stroke-linejoin="round"/>
<path d="M480.641 207.333L487.969 189.533" stroke="#171717" stroke-width="2.966" stroke-linecap="round" stroke-linejoin="round"/>
<path d="M465.876 201.062C464.593 186.502 461.99 172.089 458.1 158" stroke="#171717" stroke-width="2.966" stroke-linecap="round" stroke-linejoin="round"/>
<path d="M451.418 206.2L438.863 192.585" stroke="#171717" stroke-width="2.966" stroke-linecap="round" stroke-linejoin="round"/>
<path d="M766.087 370.432C757.967 391.866 754.468 413.682 753.859 436.594" stroke="#171717" stroke-width="2.966" stroke-linecap="round" stroke-linejoin="round"/>
<path d="M564.229 298.268C553.129 327.198 546.788 356.585 543.475 387.395" stroke="#171717" stroke-width="2.966" stroke-linecap="round" stroke-linejoin="round"/>
<path d="M656.601 202.108L647.42 191.763" stroke="#171717" stroke-width="2.966" stroke-linecap="round" stroke-linejoin="round"/>
<path d="M646.432 202.841L657.095 191.375L656.895 192.697" stroke="#171717" stroke-width="2.966" stroke-linecap="round" stroke-linejoin="round"/>
<path d="M660.451 100.058L670.018 94.8501L669.3 95.8851" stroke="#171717" stroke-width="2.966" stroke-linecap="round" stroke-linejoin="round"/>
<path d="M667.551 103.763L662.059 91.625" stroke="#171717" stroke-width="2.966" stroke-linecap="round" stroke-linejoin="round"/>
<path d="M633.42 143.287L639.947 137.719" stroke="#171717" stroke-width="2.966" stroke-linecap="round" stroke-linejoin="round"/>
<path d="M639.507 145.236L633.443 136.406" stroke="#171717" stroke-width="2.966" stroke-linecap="round" stroke-linejoin="round"/>
<path d="M845.586 110.3C834.425 125.518 828.818 144.102 829.699 162.953C830.02 169.353 831.145 175.858 834.266 181.453C837.387 187.048 842.755 191.653 849.086 192.653C855.417 193.653 862.512 190.385 864.862 184.421C867.212 178.457 863.404 170.553 857.062 169.612C850.104 168.581 844.109 175.907 844.097 182.941C844.085 189.975 848.278 196.298 852.856 201.641C857.434 206.984 862.656 211.99 865.484 218.433C868.312 224.876 867.984 233.404 862.521 237.839C857.058 242.274 846.612 238.673 846.997 231.649" stroke="#171717" stroke-width="2.966" stroke-linecap="round" stroke-linejoin="round"/>
<path d="M587.537 422.654C597.457 426.124 608.195 426.507 618.337 423.754" stroke="#171717" stroke-width="2.966" stroke-linecap="round" stroke-linejoin="round"/>
<path d="M883.273 447.963C904.04 439.855 919.057 418.754 919.914 396.476" stroke="#171717" stroke-width="2.966" stroke-linecap="round" stroke-linejoin="round"/>
<path d="M484.1 319.222C478.175 319.495 472.29 318.131 467.089 315.279C461.888 312.428 457.572 308.2 454.615 303.058" stroke="#171717" stroke-width="2.966" stroke-linecap="round" stroke-linejoin="round"/>
<path d="M760.5 845.061L784.694 844.607" stroke="#171717" stroke-width="2.966" stroke-linecap="round" stroke-linejoin="round"/>
<path d="M773.064 834.366L794.464 833.918" stroke="#171717" stroke-width="2.966" stroke-linecap="round" stroke-linejoin="round"/>
<path d="M672.988 816.185L684.637 826.4" stroke="#171717" stroke-width="2.966" stroke-linecap="round" stroke-linejoin="round"/>
<path d="M664.935 832.546L657.447 821.409" stroke="#171717" stroke-width="2.966" stroke-linecap="round" stroke-linejoin="round"/>
<path d="M792.176 428.609L800.542 420.689" stroke="#171717" stroke-width="2.966" stroke-linecap="round" stroke-linejoin="round"/>
<path d="M790.26 394.639L782.719 390.639" stroke="#171717" stroke-width="2.966" stroke-linecap="round" stroke-linejoin="round"/>
<path d="M861 378.319C864.082 375.985 866.755 373.155 868.91 369.945" stroke="#171717" stroke-width="2.966" stroke-linecap="round" stroke-linejoin="round"/>
<path d="M860.961 419.362C857.884 418.134 855.404 415.759 854.045 412.738" stroke="#171717" stroke-width="2.966" stroke-linecap="round" stroke-linejoin="round"/>
<path d="M853.542 333.212C851.017 332.018 849.054 329.89 848.068 327.276" stroke="#171717" stroke-width="2.966" stroke-linecap="round" stroke-linejoin="round"/>
<path d="M822.33 293.569L829.696 288.34" stroke="#171717" stroke-width="2.966" stroke-linecap="round" stroke-linejoin="round"/>
<path d="M787.48 290.852L782.363 283.872" stroke="#171717" stroke-width="2.966" stroke-linecap="round" stroke-linejoin="round"/>
<path d="M708.855 282.474C706.606 282.165 704.501 281.193 702.807 279.682" stroke="#171717" stroke-width="2.966" stroke-linecap="round" stroke-linejoin="round"/>
<path d="M671.635 296.9L673.035 305.275" stroke="#171717" stroke-width="2.966" stroke-linecap="round" stroke-linejoin="round"/>
<path d="M672.099 339.644L664.188 340.061" stroke="#171717" stroke-width="2.966" stroke-linecap="round" stroke-linejoin="round"/>
<path d="M627.9 369.479L624.643 362.966" stroke="#171717" stroke-width="2.966" stroke-linecap="round" stroke-linejoin="round"/>
<path d="M593.464 331.76L585.072 333.046" stroke="#171717" stroke-width="2.966" stroke-linecap="round" stroke-linejoin="round"/>
<path d="M568.345 370.41L562.762 363.896" stroke="#171717" stroke-width="2.966" stroke-linecap="round" stroke-linejoin="round"/>
<path d="M598.588 376.924L600.449 385.764" stroke="#171717" stroke-width="2.966" stroke-linecap="round" stroke-linejoin="round"/>
<path d="M678.707 457.193L685.155 454.693" stroke="#171717" stroke-width="2.966" stroke-linecap="round" stroke-linejoin="round"/>
<path d="M728.811 470.465L725.232 462.491" stroke="#171717" stroke-width="2.966" stroke-linecap="round" stroke-linejoin="round"/>
<path d="M811.162 588.627L809.754 577" stroke="url(#paint5_linear_248_1698)" stroke-width="2.966" stroke-linecap="round" stroke-linejoin="round"/>
<path d="M775.343 541.634L774.377 533.263" stroke="url(#paint6_linear_248_1698)" stroke-width="2.966" stroke-linecap="round" stroke-linejoin="round"/>
<path d="M793.533 665.39V654.224" stroke="url(#paint7_linear_248_1698)" stroke-width="2.966" stroke-linecap="round" stroke-linejoin="round"/>
<path d="M829.2 730.064L829.082 717.969" stroke="url(#paint8_linear_248_1698)" stroke-width="2.966" stroke-linecap="round" stroke-linejoin="round"/>
<path d="M791.095 777.992L790.268 764.492" stroke="url(#paint9_linear_248_1698)" stroke-width="2.966" stroke-linecap="round" stroke-linejoin="round"/>
<path d="M725.969 736.118L725.152 724.018" stroke="url(#paint10_linear_248_1698)" stroke-width="2.966" stroke-linecap="round" stroke-linejoin="round"/>
<path d="M689.033 677.029L689.402 667.255" stroke="url(#paint11_linear_248_1698)" stroke-width="2.966" stroke-linecap="round" stroke-linejoin="round"/>
<path d="M726.07 612.815L726.536 604.905" stroke="url(#paint12_linear_248_1698)" stroke-width="2.966" stroke-linecap="round" stroke-linejoin="round"/>
<path d="M696.292 545.816L695.792 536.028C695.852 535.919 695.947 535.832 696.061 535.783C696.176 535.734 696.303 535.725 696.424 535.758C696.544 535.791 696.65 535.863 696.724 535.963C696.798 536.063 696.836 536.185 696.833 536.309C696.829 536.434 696.783 536.554 696.703 536.649C696.623 536.744 696.513 536.81 696.391 536.835C696.269 536.861 696.142 536.844 696.031 536.788C695.92 536.732 695.83 536.641 695.777 536.528" stroke="url(#paint13_linear_248_1698)" stroke-width="2.966" stroke-linecap="round" stroke-linejoin="round"/>
<path d="M419.863 462.29C452.746 458.147 485.881 456.348 519.019 456.906" stroke="#171717" stroke-width="2.966" stroke-linecap="round" stroke-linejoin="round"/>
<path d="M416.367 447.8L484.14 443.383" stroke="#171717" stroke-width="2.966" stroke-linecap="round" stroke-linejoin="round"/>
<path d="M759.999 88.9212L766.364 94.3122C766.556 94.4747 766.694 94.6923 766.759 94.9355C766.824 95.1788 766.812 95.4361 766.726 95.6726C766.64 95.9092 766.484 96.1138 766.278 96.2587C766.072 96.4036 765.827 96.482 765.575 96.4832L757.234 96.5262C756.991 96.5272 756.753 96.6004 756.551 96.7366C756.35 96.8728 756.193 97.0658 756.101 97.2912L752.941 105.01C752.846 105.243 752.682 105.442 752.47 105.579C752.259 105.715 752.01 105.784 751.759 105.775C751.507 105.767 751.264 105.681 751.063 105.53C750.861 105.379 750.711 105.169 750.632 104.93L748.014 97.0112C747.938 96.78 747.795 96.5767 747.603 96.4268C747.411 96.277 747.179 96.1873 746.936 96.1692L738.618 95.5492C738.367 95.5305 738.128 95.4353 737.933 95.2766C737.738 95.1178 737.596 94.903 737.526 94.6611C737.457 94.4192 737.463 94.1618 737.545 93.9237C737.626 93.6856 737.778 93.4781 737.981 93.3292L744.703 88.3922C744.9 88.2481 745.049 88.049 745.132 87.8201C745.215 87.5912 745.229 87.3428 745.171 87.1062L743.189 79.0002C743.129 78.7556 743.146 78.4986 743.236 78.2637C743.327 78.0288 743.488 77.8274 743.696 77.6866C743.905 77.5458 744.152 77.4724 744.404 77.4762C744.655 77.4801 744.9 77.561 745.104 77.7082L751.877 82.5762C752.075 82.7181 752.31 82.7983 752.553 82.8067C752.796 82.815 753.036 82.7512 753.243 82.6232L760.337 78.2352C760.551 78.103 760.801 78.0396 761.052 78.0535C761.303 78.0673 761.544 78.1577 761.742 78.3126C761.941 78.4674 762.087 78.6793 762.161 78.9197C762.236 79.16 762.234 79.4174 762.158 79.6572L759.621 87.6032C759.547 87.8356 759.543 88.0849 759.61 88.3195C759.677 88.5542 759.813 88.7636 759.999 88.9212V88.9212Z" fill="#171717"/>
<g opacity="0.1">
<path d="M520.288 354.005C518.966 360.505 519.264 366.286 522.936 372.046C526.633 377.617 531.616 382.217 537.464 385.457C549.397 392.198 561.939 397.798 574.924 402.182C598.402 410.339 629.962 414.113 651.839 399.256C661.287 392.84 653.2 379.473 642.99 384.118C633.871 388.268 625.149 391.082 615.019 391.328C604.101 391.593 593.497 389.492 583.132 386.168C572.591 382.628 562.33 378.301 552.437 373.224C544.269 369.171 534.301 363.676 531.95 354.005C530.581 348.377 521.488 348.105 520.288 354.005Z" fill="#171717"/>
</g>
<g opacity="0.1">
<path d="M658.529 377.018C653.838 386.545 653.349 397.096 652.87 407.543C652.38 417.304 652.404 427.085 652.94 436.843C653.495 446.243 653.774 456.122 656.057 465.294C657.59 471.452 662.314 483.547 670.468 482.538C672.052 482.37 673.517 481.614 674.572 480.419C675.627 479.224 676.196 477.678 676.168 476.084C676.195 472.66 673.2 468.735 672.294 465.369C670.114 457.262 670.523 448.094 670.418 439.769C670.291 429.687 670.376 419.562 670.786 409.487C671.207 399.152 672.703 388.756 670.354 378.556C669.154 373.326 660.985 372.027 658.531 377.01L658.529 377.018Z" fill="#171717"/>
</g>
<g opacity="0.1">
<path d="M707.741 244.211C698.9 244.495 693.399 254.138 692.741 261.833C692.403 265.812 696.377 269.218 700.126 269.218C702.076 269.191 703.939 268.405 705.318 267.026C706.698 265.646 707.484 263.783 707.511 261.833C707.518 261.304 707.503 260.764 707.554 260.233C707.48 260.997 707.612 260.033 707.667 259.791C707.815 259.151 707.783 257.546 708.132 257.137L707.801 258.306C707.968 257.94 708.153 257.584 708.357 257.237C709.407 255.387 711.075 253.922 712.236 252.048C712.686 251.254 712.922 250.357 712.919 249.444C712.917 248.532 712.677 247.635 712.223 246.844C711.768 246.052 711.116 245.393 710.329 244.931C709.542 244.468 708.648 244.219 707.736 244.207L707.741 244.211Z" fill="#171717"/>
</g>
</g>
<defs>
<linearGradient id="paint0_linear_248_1698" x1="715.657" y1="242.184" x2="715.274" y2="482.461" gradientUnits="userSpaceOnUse">
<stop stop-color="#B7B7B7"/>
<stop offset="1" stop-color="#6F6F6F"/>
</linearGradient>
<linearGradient id="paint1_linear_248_1698" x1="784.149" y1="812.955" x2="784.069" y2="864.405" gradientUnits="userSpaceOnUse">
<stop stop-color="#B7B7B7"/>
<stop offset="1" stop-color="#6F6F6F"/>
</linearGradient>
<linearGradient id="paint2_linear_248_1698" x1="678.44" y1="798.79" x2="678.386" y2="848.053" gradientUnits="userSpaceOnUse">
<stop stop-color="#B7B7B7"/>
<stop offset="1" stop-color="#6F6F6F"/>
</linearGradient>
<linearGradient id="paint3_linear_248_1698" x1="267.433" y1="202.319" x2="267.428" y2="224.867" gradientUnits="userSpaceOnUse">
<stop stop-color="#B7B7B7"/>
<stop offset="1" stop-color="#6F6F6F"/>
</linearGradient>
<linearGradient id="paint4_linear_248_1698" x1="240.56" y1="152.884" x2="240.554" y2="175.432" gradientUnits="userSpaceOnUse">
<stop stop-color="#B7B7B7"/>
<stop offset="1" stop-color="#6F6F6F"/>
</linearGradient>
<linearGradient id="paint5_linear_248_1698" x1="810.458" y1="577" x2="810.211" y2="588.558" gradientUnits="userSpaceOnUse">
<stop stop-color="#B7B7B7"/>
<stop offset="1" stop-color="#6F6F6F"/>
</linearGradient>
<linearGradient id="paint6_linear_248_1698" x1="774.86" y1="533.263" x2="774.673" y2="541.584" gradientUnits="userSpaceOnUse">
<stop stop-color="#B7B7B7"/>
<stop offset="1" stop-color="#6F6F6F"/>
</linearGradient>
<linearGradient id="paint7_linear_248_1698" x1="794.033" y1="654.224" x2="793.712" y2="665.32" gradientUnits="userSpaceOnUse">
<stop stop-color="#B7B7B7"/>
<stop offset="1" stop-color="#6F6F6F"/>
</linearGradient>
<linearGradient id="paint8_linear_248_1698" x1="829.141" y1="717.969" x2="826.16" y2="729.208" gradientUnits="userSpaceOnUse">
<stop stop-color="#B7B7B7"/>
<stop offset="1" stop-color="#6F6F6F"/>
</linearGradient>
<linearGradient id="paint9_linear_248_1698" x1="790.681" y1="764.492" x2="790.115" y2="777.895" gradientUnits="userSpaceOnUse">
<stop stop-color="#B7B7B7"/>
<stop offset="1" stop-color="#6F6F6F"/>
</linearGradient>
<linearGradient id="paint10_linear_248_1698" x1="725.561" y1="724.018" x2="725.1" y2="736.035" gradientUnits="userSpaceOnUse">
<stop stop-color="#B7B7B7"/>
<stop offset="1" stop-color="#6F6F6F"/>
</linearGradient>
<linearGradient id="paint11_linear_248_1698" x1="689.218" y1="667.255" x2="688.554" y2="676.931" gradientUnits="userSpaceOnUse">
<stop stop-color="#B7B7B7"/>
<stop offset="1" stop-color="#6F6F6F"/>
</linearGradient>
<linearGradient id="paint12_linear_248_1698" x1="726.303" y1="604.905" x2="725.958" y2="612.757" gradientUnits="userSpaceOnUse">
<stop stop-color="#B7B7B7"/>
<stop offset="1" stop-color="#6F6F6F"/>
</linearGradient>
<linearGradient id="paint13_linear_248_1698" x1="696.305" y1="535.739" x2="696.058" y2="545.755" gradientUnits="userSpaceOnUse">
<stop stop-color="#B7B7B7"/>
<stop offset="1" stop-color="#6F6F6F"/>
</linearGradient>
<clipPath id="clip0_248_1698">
<rect width="884" height="806" fill="white" transform="translate(38 77)"/>
</clipPath>
</defs>
</svg>
