<svg width="960" height="960" viewBox="0 0 960 960" fill="none" xmlns="http://www.w3.org/2000/svg">
<g clip-path="url(#clip0_248_1694)">
<path fill-rule="evenodd" clip-rule="evenodd" d="M511.484 470.53C511.31 483.224 514.522 495.736 520.791 506.776C520.935 507.029 521.083 507.277 521.232 507.526C521.293 507.629 521.355 507.732 521.416 507.836C522.717 509.725 523.696 511.344 524.549 512.754C526.756 516.403 528.115 518.651 532.01 520.551C537.41 523.185 543.693 523.612 549.61 522.643C555.527 521.674 563.478 518.421 568.91 515.874C566.16 523.279 563.643 530.757 561.357 538.311C559.234 545.313 557.334 553.04 560.234 559.761C560.651 560.721 561.153 561.641 561.734 562.511C566.411 569.503 575.761 572.572 584.161 574.858C589.805 576.388 595.733 577.918 601.505 577.831C604.172 577.827 606.82 577.395 609.349 576.552C618.142 573.541 623.942 565.348 629.026 557.563C642.244 537.304 654.756 516.446 663.975 494.076C673.194 471.706 679.081 447.691 678.636 423.5C678.375 409.2 675.673 394.381 667.248 382.8C664.228 378.665 660.559 375.046 656.383 372.082V372.073C645.634 364.364 631.815 360.714 618.355 361.14C616.786 361.178 615.217 361.285 613.668 361.45C593.642 363.503 575.194 373.525 559.351 385.95C541.001 400.32 525.1 418.593 516.975 440.43C513.381 450.06 511.522 460.251 511.484 470.53ZM655.681 381.482C655.081 380.949 654.163 381.002 653.63 381.602C653.097 382.201 653.15 383.119 653.749 383.652C663.491 392.322 668.334 405.607 669.421 418.865C670.51 432.14 668.221 445.465 665.898 458.831C665.76 459.621 666.29 460.373 667.08 460.51C667.87 460.648 668.622 460.119 668.76 459.328C671.072 446.024 673.44 432.333 672.316 418.628C671.191 404.906 666.159 390.808 655.681 381.482Z" fill="#171717"/>
<path fill-rule="evenodd" clip-rule="evenodd" d="M691.031 343.517C686.138 366.884 687.09 391.035 696.938 412.776C706.787 434.516 724.321 452.847 746.003 462.831C767.685 472.815 793.366 474.161 815.678 465.668L815.9 465.785C823.361 450.926 830.028 435.681 835.871 420.115C845.797 393.643 867.315 329.498 854.28 300.815C847.87 289.291 835.378 284.594 822.76 284.159C809.164 283.689 795.355 287.112 782.485 291.189C769.029 295.536 756.022 301.165 743.643 308C725.021 318.146 707.7 330.415 691.012 343.488L691.031 343.517ZM846.883 306.333C846.768 305.539 846.031 304.989 845.237 305.103C844.443 305.218 843.893 305.955 844.007 306.749C847.588 331.486 843.713 356.909 836.207 380.907C828.697 404.917 817.662 427.667 806.61 450.427C806.26 451.148 806.561 452.017 807.283 452.368C808.004 452.718 808.873 452.417 809.224 451.696C820.26 428.969 831.395 406.025 838.979 381.775C846.567 357.513 850.544 331.634 846.883 306.333Z" fill="url(#paint0_linear_248_1694)"/>
<path fill-rule="evenodd" clip-rule="evenodd" d="M622.412 739.745C631.486 716.378 634.051 690.861 632.851 665.8C627.392 669.285 621.88 672.668 616.314 675.948C591.563 690.539 565.758 703.263 539.114 714.015C526.603 719.08 513.857 724.203 500.757 727.621C500.253 728.156 499.759 728.688 499.266 729.221C500.902 753.159 488.826 777.572 468.791 790.78C468.238 791.145 467.679 791.503 467.119 791.862C464.785 793.357 462.443 794.857 460.56 796.88C458.226 799.388 456.686 802.964 457.606 806.264C458.749 810.389 463.145 812.643 467.232 813.943C482.511 818.833 499.041 817.303 514.932 815.086C515.108 815.062 515.281 815.037 515.454 815.012C515.644 814.984 515.834 814.956 516.026 814.931C536.507 812.015 557.24 807.793 575.126 797.431C597.05 784.726 613.242 763.373 622.412 739.745ZM615.943 729.959C616.23 729.21 615.854 728.37 615.105 728.084C614.355 727.797 613.516 728.173 613.23 728.922C598.353 767.853 561.164 797.369 519.871 803.019C519.077 803.128 518.521 803.861 518.629 804.655C518.738 805.45 519.47 806.006 520.265 805.898C562.609 800.104 600.688 769.882 615.943 729.959Z" fill="url(#paint1_linear_248_1694)"/>
<path fill-rule="evenodd" clip-rule="evenodd" d="M428.417 702.284C418.83 715.784 409.698 729.996 405.408 745.984C404.15 750.7 404.033 757.024 408.481 759.025C411.119 760.217 414.175 759.219 416.819 758.047C428.546 752.818 438.462 744.31 448.185 735.91C451.699 732.893 455.205 729.86 458.701 726.81C484.556 704.324 509.908 680.967 529.101 652.68C532.984 646.938 536.674 640.866 538.107 634.087C539.405 627.999 538.833 617.018 532.345 613.687C525.702 610.259 513.559 614.888 507.468 617.735C496.719 622.731 488.042 631.234 479.879 639.823C464.04 656.474 449.226 674.069 435.517 692.513C433.117 695.744 430.75 699.001 428.417 702.284ZM514.913 660.051C515.41 659.422 515.304 658.508 514.674 658.011C514.045 657.513 513.132 657.62 512.634 658.249C491.857 684.514 467.268 707.525 439.684 726.516C439.023 726.971 438.856 727.876 439.311 728.537C439.766 729.197 440.67 729.364 441.331 728.909C469.154 709.753 493.956 686.544 514.913 660.051Z" fill="url(#paint2_linear_248_1694)"/>
<path d="M618.355 361.1C617.338 359.192 616.311 357.226 615.294 355.222L616.294 354.722C619.97 349.497 624.732 345.127 630.253 341.913C635.774 338.699 641.924 336.715 648.283 336.098C654.642 335.48 661.059 336.244 667.095 338.337C673.132 340.429 678.645 343.801 683.257 348.222L683.957 349.093C680.249 352.066 676.566 355.068 672.908 358.099C667.456 362.612 662.033 367.153 656.64 371.724L656.388 372.073C645.639 364.364 631.82 360.714 618.36 361.14L618.355 361.1Z" fill="#171717"/>
<path d="M509.9 322.532C507.034 321.432 505.988 317.855 505.368 314.776L505.378 314.631C507.76 314.709 510.11 314.064 512.118 312.781C514.8 311.261 517.589 310.312 518.345 307.6H518.422C518.997 309.25 519.726 310.842 520.601 312.355C521.034 313.115 521.309 313.954 521.412 314.822C521.515 315.69 521.444 316.57 521.201 317.41C520.835 318.276 520.239 319.026 519.478 319.579C518.698 320.154 517.869 320.66 517 321.09C514.879 322.213 512.459 323.365 510.173 322.639C510.079 322.613 509.987 322.578 509.9 322.532Z" fill="url(#paint3_linear_248_1694)"/>
<path d="M517.082 295.873C517.482 299.098 518.999 303.814 518.466 307.029C518.435 307.222 518.393 307.412 518.341 307.6C517.585 310.312 514.796 311.261 512.114 312.781C510.106 314.064 507.756 314.709 505.374 314.631C504.955 314.592 504.54 314.514 504.135 314.398C501.685 313.682 499.893 311.638 498.247 309.692C497.211 308.581 496.346 307.321 495.681 305.954C495.351 305.269 495.175 304.521 495.165 303.761C495.154 303.001 495.311 302.247 495.622 301.554C496.411 300.347 497.518 299.382 498.822 298.766C502.502 296.606 506.176 294.45 509.842 292.297C511.372 291.397 513.242 290.476 514.842 291.261C516.442 292.046 516.859 294.1 517.082 295.873Z" fill="url(#paint4_linear_248_1694)"/>
<path d="M491.546 168.754C493.415 167.941 495.681 167.476 497.414 168.541C499.719 169.965 499.883 173.277 499.176 175.881C496.814 184.636 488.534 190.107 480.516 194.591C479.983 194.891 479.451 195.181 478.916 195.472L445.623 213.716C441.701 215.866 437.382 218.529 436.453 222.896C435.753 226.189 437.218 229.52 438.67 232.561C443.377 242.361 448.396 251.999 453.728 261.476L452.712 262.048C452.201 264.032 451.287 265.891 450.029 267.509C448.664 269.03 446.408 269.95 444.529 269.156C443.894 268.853 443.367 268.361 443.022 267.747C442.677 267.133 442.53 266.427 442.602 265.727C442.91 265.227 443.188 264.71 443.435 264.178C442.965 264.564 442.665 265.121 442.602 265.727C441.44 267.627 439.802 269.281 437.77 268.797C437.028 268.546 436.371 268.092 435.874 267.486C435.378 266.88 435.061 266.146 434.961 265.369C434.788 263.811 434.797 262.238 434.99 260.682C435.39 252.858 431.533 245.527 428.115 238.477C424.697 231.427 421.515 223.564 423.341 215.943C424.919 209.32 430.081 204.071 435.841 200.449C441.601 196.827 448.081 194.523 454.191 191.511C457.474 189.894 461.106 187.27 460.815 183.628C460.495 179.678 455.557 176.86 456.235 172.957C456.864 169.357 462.18 168.464 465.105 170.672C468.03 172.88 469.066 176.734 469.937 180.297C471.537 178.215 471.428 175.349 471.837 172.754C472.246 170.159 473.851 167.224 476.476 167.215C479.061 167.195 480.727 170.071 480.95 172.647C481.173 175.223 480.562 177.876 481.23 180.375C482.02 177.813 483.349 175.45 485.128 173.446C486.908 171.441 489.096 169.841 491.546 168.754V168.754Z" fill="#171717"/>
<path d="M475.035 255.027C474.407 256.137 474.017 257.365 473.892 258.635C473.767 259.904 473.909 261.185 474.308 262.396C474.708 263.607 475.356 264.721 476.211 265.667C477.067 266.612 478.111 267.369 479.276 267.887L479.315 267.974C477.136 269.056 474.695 269.496 472.275 269.243C467.249 268.643 462.736 264.256 462.659 259.191C462.62 256.634 464.024 253.778 466.542 253.284C468.121 252.974 469.699 253.652 471.258 254.049C472.485 254.359 473.751 254.486 475.015 254.427L475.035 255.027Z" fill="#171717"/>
<path d="M372.28 686.768C366.431 672.562 367.758 656.419 371.06 641.409C372.677 634.049 374.776 626.803 377.345 619.718C383.085 603.517 391.688 588.478 402.745 575.318C418.782 556.56 440.715 542.49 464.935 537.754C477.417 535.314 490.848 535.454 502.275 540.998C501.597 542.238 500.919 543.498 500.242 544.756C481.136 580.373 460.461 613.646 443.834 650.173L442.11 649.379C430.214 651.285 418.858 655.689 408.788 662.303C398.718 668.916 390.164 677.587 383.688 687.746C382.419 689.76 380.899 692.065 378.526 692.317C375.544 692.627 373.423 689.538 372.28 686.768Z" fill="url(#paint5_linear_248_1694)"/>
<path d="M496.688 440.19C494.848 442.524 492.992 444.838 491.12 447.134C474.744 467.237 457.426 486.517 439.166 504.975L439.089 504.984C428.719 506.711 418.254 507.81 407.752 508.277C409.195 497.751 410.641 487.228 412.09 476.708L412.79 476.34C433.145 461.185 451.89 444.829 468.597 425.732C474.02 419.544 479.24 413.124 484.052 406.442C490.544 397.591 496.122 388.104 500.7 378.127C508.5 360.764 512.533 341.377 509.9 322.527C509.989 322.573 510.084 322.609 510.181 322.634C512.467 323.36 514.887 322.208 517.008 321.085C517.874 320.655 518.7 320.149 519.478 319.574H520.31C533.984 338.699 534.739 364.807 527.496 387.174C521.159 406.733 509.441 423.98 496.688 440.19Z" fill="url(#paint6_linear_248_1694)"/>
<path d="M295.866 424.551C298.312 440.776 294.722 457.336 285.775 471.091L285.611 470.985C285.155 471.459 284.7 471.924 284.245 472.399C274.552 464.245 258.961 464.264 249.287 472.428C246.275 474.965 243.844 478.151 240.726 480.562C237.608 482.973 233.463 484.6 229.735 483.312C228.34 482.749 227.077 481.902 226.027 480.825C224.977 479.748 224.162 478.465 223.635 477.056C222.597 474.237 221.955 471.288 221.728 468.293L219.616 468C222.384 467.416 224.987 466.224 227.237 464.51C229.487 462.797 231.329 460.604 232.628 458.092C233.927 455.58 234.652 452.81 234.749 449.983C234.847 447.156 234.315 444.343 233.192 441.747H232.456C226.433 433.342 209.922 442.997 204.131 453.647L202.756 452.669C199.696 449.272 197.421 445.243 196.092 440.868C194.764 436.494 194.414 431.88 195.067 427.355C195.477 423.925 196.795 420.666 198.883 417.914C199.938 416.548 201.29 415.442 202.837 414.678C204.385 413.914 206.086 413.514 207.811 413.508C214.832 413.769 219.354 421.574 226.191 423.22C226.89 423.455 227.636 423.52 228.365 423.409C229.094 423.298 229.787 423.014 230.384 422.581C231.837 421.274 231.584 418.989 231.352 417.042C230.762 412.157 231.024 407.206 232.127 402.41C232.543 400.589 233.221 398.624 234.868 397.742C237.928 396.096 241.249 399.369 243.205 402.242C249.132 411.006 255.062 419.77 260.994 428.534C262.045 430.347 263.463 431.92 265.158 433.153C266.931 434.253 269.419 434.509 271.017 433.163C273.254 431.294 272.625 427.749 273.593 424.999C274.968 421.087 279.684 419.189 283.809 419.673C287.934 420.157 291.595 422.433 295.101 424.651L295.866 424.551Z" fill="url(#paint7_linear_248_1694)"/>
<path d="M194.506 395.722C189.857 399.131 193.867 407.808 189.586 411.662C186.526 414.422 180.786 413.018 178.486 416.436C176.801 418.944 178.186 422.353 177.556 425.306C176.743 429.054 172.666 431.359 168.831 431.446C165.112 431.546 161.588 430.032 158.179 428.512C158.007 421.586 158.918 414.675 160.879 408.03C165.643 392.101 177.661 378.669 192.579 371.33C200.334 367.562 208.733 365.295 217.331 364.648L217.389 365.462C218.871 371.582 220.362 377.962 218.977 384.103C217.592 390.244 212.377 396.014 206.077 395.803C202.117 395.674 197.7 393.369 194.506 395.722Z" fill="url(#paint8_linear_248_1694)"/>
<path d="M442.6 265.727C442.528 266.427 442.675 267.133 443.02 267.747C443.365 268.361 443.891 268.853 444.527 269.156C446.406 269.95 448.662 269.03 450.027 267.509C451.285 265.891 452.198 264.032 452.71 262.048" stroke="#171717" stroke-width="2.905" stroke-linecap="round" stroke-linejoin="round"/>
<path d="M442.6 265.727C442.907 265.227 443.185 264.71 443.433 264.178C442.962 264.565 442.662 265.121 442.6 265.727V265.727Z" stroke="#171717" stroke-width="2.905" stroke-linecap="round" stroke-linejoin="round"/>
<path d="M476.168 297.694C476.11 297.606 476.042 297.51 475.984 297.422C468.062 285.763 460.644 273.781 453.73 261.476C448.404 252.006 443.385 242.368 438.672 232.561C437.22 229.52 435.757 226.189 436.455 222.896C437.384 218.529 441.703 215.866 445.625 213.716L478.918 195.472C479.451 195.181 479.983 194.891 480.518 194.591C488.536 190.107 496.818 184.636 499.178 175.881C499.885 173.281 499.721 169.965 497.416 168.541C495.683 167.476 493.416 167.941 491.548 168.754C489.099 169.841 486.91 171.441 485.131 173.446C483.352 175.451 482.023 177.813 481.234 180.375C480.566 177.875 481.186 175.223 480.954 172.647C480.722 170.071 479.065 167.195 476.48 167.215C473.855 167.224 472.258 170.158 471.841 172.754C471.424 175.35 471.541 178.215 469.941 180.297C469.07 176.734 468.024 172.889 465.109 170.672C462.194 168.455 456.868 169.355 456.239 172.957C455.561 176.857 460.499 179.678 460.819 183.628C461.11 187.27 457.478 189.894 454.195 191.511C448.085 194.523 441.606 196.827 435.845 200.449C430.084 204.071 424.921 209.32 423.345 215.943C421.524 223.564 424.691 231.428 428.119 238.477C431.547 245.526 435.391 252.858 434.994 260.682C434.801 262.238 434.792 263.811 434.965 265.369C435.065 266.146 435.382 266.88 435.878 267.486C436.375 268.092 437.032 268.546 437.774 268.797C439.807 269.281 441.444 267.626 442.606 265.727" stroke="#171717" stroke-width="2.905" stroke-linecap="round" stroke-linejoin="round"/>
<path d="M476.371 244.975C478.598 245.175 480.332 242.738 480.264 240.511C480.196 238.284 478.908 236.299 477.659 234.449C473.243 227.913 468.827 221.379 464.412 214.849C468.615 211.081 473.623 208.322 479.054 206.782" stroke="#171717" stroke-width="2.905" stroke-linecap="round" stroke-linejoin="round"/>
<path d="M480.748 221.492C480.176 219.65 478.971 218.069 477.348 217.028" stroke="#171717" stroke-width="2.905" stroke-linecap="round" stroke-linejoin="round"/>
<path d="M459.628 231.7C458.611 230.218 457.591 228.733 456.568 227.245" stroke="#171717" stroke-width="2.905" stroke-linecap="round" stroke-linejoin="round"/>
<path d="M484.36 250.359C481.875 252.853 478.534 254.307 475.015 254.427C473.751 254.486 472.485 254.359 471.258 254.049C469.699 253.649 468.121 252.974 466.542 253.284C464.024 253.778 462.62 256.634 462.659 259.191C462.736 264.256 467.249 268.642 472.275 269.243C474.695 269.496 477.136 269.056 479.315 267.974C481.698 266.818 483.74 265.063 485.241 262.88" stroke="#171717" stroke-width="2.905" stroke-linecap="round" stroke-linejoin="round"/>
<path d="M479.276 267.887C478.11 267.369 477.066 266.612 476.211 265.667C475.355 264.721 474.707 263.607 474.308 262.396C473.908 261.185 473.767 259.904 473.892 258.634C474.017 257.365 474.406 256.137 475.035 255.027" stroke="#171717" stroke-width="2.905" stroke-linecap="round" stroke-linejoin="round"/>
<path d="M508.347 282.035C505.316 278.258 502.236 274.394 500.542 269.862C498.848 265.33 498.75 259.908 501.481 255.908C503.127 253.516 505.713 251.667 506.468 248.868C507.223 246.069 505.916 243.155 504.638 240.55C497.172 225.346 489.705 210.146 482.238 194.95" stroke="#171717" stroke-width="2.905" stroke-linecap="round" stroke-linejoin="round"/>
<path d="M470.387 313.546C466.629 312.703 465.467 307.426 467.346 304.066C469.146 300.841 472.633 299.02 475.984 297.422L476.42 297.222C487.074 292.194 497.734 287.167 508.4 282.141C509.359 281.686 510.308 281.241 511.267 280.786C514.385 279.314 517.716 277.803 521.144 278.229C524.572 278.655 527.884 281.841 527.08 285.202C527.158 285.037 527.226 284.872 527.303 284.717C527.516 284.262 527.729 283.807 527.933 283.352" stroke="#171717" stroke-width="2.905" stroke-linecap="round" stroke-linejoin="round"/>
<path d="M527.511 284.814C556.95 277.425 578.767 249.73 583.987 219.826C589.207 189.922 579.697 158.78 562.925 133.486C560.291 129.506 557.444 125.586 555.904 121.062C554.364 116.538 554.335 111.223 557.104 107.34C557.763 106.436 558.534 105.619 559.399 104.909C561.376 103.391 563.52 102.104 565.79 101.074C572.82 97.5786 579.844 94.083 586.862 90.587C590.474 88.787 594.086 86.989 597.698 85.193C600.613 83.74 603.838 82.239 607.014 82.985C611.236 83.973 613.55 88.398 615.274 92.378C631.774 130.523 643.512 171.578 641.827 213.096C640.258 251.686 625.946 290.796 598.211 317.381C596.1 319.395 593.911 321.351 591.646 323.22" stroke="#171717" stroke-width="2.905" stroke-linecap="round" stroke-linejoin="round"/>
<path d="M598.445 317.623C603.103 329.698 609.165 343.223 615.294 355.223C616.311 357.223 617.338 359.193 618.355 361.101" stroke="#171717" stroke-width="2.905" stroke-linecap="round" stroke-linejoin="round"/>
<path d="M553.628 40.7741C559.661 36.7741 577.983 66.9391 586.563 89.9741" stroke="#171717" stroke-width="2.905" stroke-linecap="round" stroke-linejoin="round"/>
<path d="M539.945 50.5639C547.411 46.5639 560.765 68.3719 567.321 75.7029C561.55 64.4209 549.5 44 553.628 40.7739" stroke="#171717" stroke-width="2.905" stroke-linecap="round" stroke-linejoin="round"/>
<path d="M528 60.5C531.5 58 550.218 73.469 558.635 82.578C550.89 72.8663 535 53.5 539.945 50.564" stroke="#171717" stroke-width="2.905" stroke-linecap="round" stroke-linejoin="round"/>
<path d="M559.555 103.747C559.448 103.766 559.332 103.786 559.225 103.795C549.251 105.451 531.356 100.261 532.246 94.2571C532 91.5 547.574 92.1038 555.023 94.2091C544.723 86.1811 522.079 67.8781 527.269 60.9741C527.346 60.8741 527.424 60.7801 527.511 60.6831" stroke="#171717" stroke-width="2.905" stroke-linecap="round" stroke-linejoin="round"/>
<path d="M300.882 239.242C305.152 231.505 310.614 223.254 312.782 214.684C313.315 212.544 313.247 209.474 311.082 209.058C309.562 208.758 308.293 210.143 307.363 211.372L291.5 224.5C288.818 207.718 287.653 176.889 279.15 179.058C272 180 280.061 211.372 280.061 225.888C277.601 217.599 272.922 208.739 269 201.041C265.078 193.343 258.776 179.794 254.408 182.263C248 185.885 263.008 215.033 271.345 229.907C263.633 218.127 254.259 207.524 243.514 198.425C241.878 197.041 239.65 195.625 237.762 196.625C236.271 197.41 235.816 199.433 236.29 201.041C236.889 202.617 237.828 204.043 239.04 205.215C251.596 219.373 262.344 235.035 271.04 251.842" stroke="#171717" stroke-width="2.905" stroke-linecap="round" stroke-linejoin="round"/>
<path d="M470.958 313.972C470.88 314.02 470.793 314.072 470.716 314.108C448.085 327.508 423.43 340.893 397.216 338.927C376.616 337.378 357.435 326.057 344.042 310.327C330.649 294.597 322.69 274.768 318.777 254.481C317.46 247.615 315.136 239.112 308.242 237.921C305.713 237.637 303.156 238.094 300.882 239.238V239.248C300.068 239.597 299.265 239.984 298.482 240.362C289.583 244.671 280.677 248.986 271.765 253.309C269.809 254.248 267.865 255.197 265.906 256.146C272.598 280.375 279.318 304.691 289.225 327.796C298.637 349.73 311.41 371.034 330.671 385.124C352.227 400.88 380.339 406.109 406.844 402.894C430.579 400.018 453.151 390.809 473.817 378.685C476.229 377.271 478.611 375.818 480.963 374.327" stroke="#171717" stroke-width="2.905" stroke-linecap="round" stroke-linejoin="round"/>
<path d="M496.668 440.142C496.678 440.161 496.678 440.171 496.688 440.19C500.788 449.89 506.207 461.02 510.71 470.52" stroke="#171717" stroke-width="2.905" stroke-linecap="round" stroke-linejoin="round"/>
<path d="M474.037 379.066C477.049 388.489 480.264 396.875 483.663 406.166" stroke="#171717" stroke-width="2.905" stroke-linecap="round" stroke-linejoin="round"/>
<path d="M518.341 307.6C518.393 307.412 518.435 307.221 518.466 307.029C518.999 303.814 517.479 299.098 517.082 295.873C516.859 294.101 516.443 292.048 514.835 291.264C513.227 290.48 511.368 291.399 509.835 292.3C506.169 294.458 502.495 296.615 498.815 298.769C497.512 299.385 496.404 300.35 495.615 301.557C495.304 302.25 495.148 303.003 495.158 303.763C495.168 304.523 495.344 305.272 495.674 305.957C496.339 307.324 497.204 308.583 498.24 309.695C499.886 311.641 501.678 313.685 504.128 314.401C504.533 314.516 504.948 314.594 505.367 314.634C507.749 314.712 510.099 314.067 512.107 312.784C514.8 311.261 517.585 310.312 518.341 307.6Z" stroke="#171717" stroke-width="2.905" stroke-linecap="round" stroke-linejoin="round"/>
<path d="M505.364 314.776C505.984 317.855 507.03 321.429 509.896 322.532C509.986 322.578 510.08 322.614 510.177 322.639C512.463 323.365 514.883 322.213 517.004 321.09C517.87 320.66 518.697 320.154 519.474 319.579C520.235 319.026 520.831 318.276 521.197 317.41C521.44 316.57 521.511 315.69 521.408 314.822C521.305 313.954 521.03 313.115 520.597 312.355C519.722 310.842 518.993 309.25 518.418 307.6" stroke="#171717" stroke-width="2.905" stroke-linecap="round" stroke-linejoin="round"/>
<path d="M509.829 322.019C509.858 322.194 509.877 322.358 509.896 322.532C512.53 341.377 508.502 360.764 500.696 378.132C496.119 388.109 490.541 397.596 484.049 406.447C479.237 413.129 474.017 419.547 468.594 425.737C451.894 444.837 433.142 461.19 412.787 476.345" stroke="#171717" stroke-width="2.905" stroke-linecap="round" stroke-linejoin="round"/>
<path d="M520.306 319.579C533.98 338.704 534.735 364.812 527.492 387.179C521.159 406.731 509.441 423.979 496.692 440.188C494.852 442.521 492.996 444.836 491.124 447.132C474.748 467.235 457.43 486.515 439.17 504.973" stroke="#171717" stroke-width="2.905" stroke-linecap="round" stroke-linejoin="round"/>
<path d="M412.09 476.708C410.647 487.234 409.201 497.757 407.752 508.277C418.254 507.81 428.719 506.71 439.089 504.984" stroke="#171717" stroke-width="2.905" stroke-linecap="round" stroke-linejoin="round"/>
<path d="M215.142 493.451C215.183 493.471 215.225 493.487 215.268 493.499C237.182 502.418 264.2 495.659 280.197 478.218C282.24 475.992 284.105 473.609 285.775 471.091C294.722 457.336 298.312 440.776 295.866 424.551C295.212 420.181 294.119 415.889 292.602 411.739C284.402 389.486 264.248 372.365 241.24 366.632C233.433 364.687 225.362 364.017 217.34 364.647C208.742 365.294 200.344 367.561 192.588 371.329C177.666 378.669 165.648 392.101 160.888 408.029C158.928 414.674 158.017 421.585 158.188 428.511C158.708 444.042 163.709 459.092 172.588 471.846V471.855" stroke="#171717" stroke-width="2.905" stroke-linecap="round" stroke-linejoin="round"/>
<path d="M521.42 507.831C521.207 507.483 520.994 507.131 520.791 506.776C514.522 495.736 511.31 483.224 511.484 470.53C511.522 460.251 513.381 450.06 516.975 440.43C525.1 418.593 541.001 400.32 559.351 385.95C575.194 373.525 593.642 363.503 613.668 361.45C615.217 361.285 616.786 361.178 618.355 361.14C631.815 360.714 645.634 364.364 656.383 372.073V372.082C660.559 375.046 664.228 378.665 667.248 382.8C675.673 394.381 678.375 409.2 678.636 423.5C679.081 447.691 673.194 471.706 663.975 494.076C654.756 516.446 642.244 537.304 629.026 557.563C623.942 565.348 618.142 573.541 609.349 576.552C606.82 577.395 604.172 577.827 601.505 577.831C595.733 577.918 589.805 576.388 584.161 574.858C575.761 572.572 566.411 569.503 561.734 562.511C561.153 561.641 560.651 560.721 560.234 559.761C557.334 553.04 559.234 545.313 561.357 538.311C563.643 530.757 566.16 523.279 568.91 515.874C577.889 491.631 589.259 468.343 602.852 446.354" stroke="#171717" stroke-width="2.905" stroke-linecap="round" stroke-linejoin="round"/>
<path d="M521.42 507.831C526.088 514.61 526.63 517.912 532.014 520.546C537.398 523.18 543.683 523.597 549.614 522.638C555.545 521.679 563.482 518.416 568.914 515.869" stroke="#171717" stroke-width="2.905" stroke-linecap="round" stroke-linejoin="round"/>
<path d="M616.292 354.721C619.968 349.496 624.73 345.126 630.251 341.912C635.772 338.698 641.922 336.714 648.281 336.097C654.64 335.479 661.057 336.243 667.093 338.336C673.13 340.428 678.643 343.8 683.255 348.221" stroke="#171717" stroke-width="2.905" stroke-linecap="round" stroke-linejoin="round"/>
<path d="M854.28 300.812C847.87 289.288 835.38 284.591 822.76 284.156C809.16 283.681 795.36 287.109 782.485 291.186C769.029 295.534 756.022 301.164 743.643 308C725.021 318.149 707.697 330.418 691.012 343.491C688.649 345.341 686.296 347.21 683.952 349.098C680.244 352.071 676.561 355.073 672.903 358.104C667.451 362.617 662.028 367.158 656.635 371.729" stroke="#171717" stroke-width="2.905" stroke-linecap="round" stroke-linejoin="round"/>
<path d="M459.144 727.324C471.675 732.853 486.055 731.313 498.973 728.089C499.573 727.944 500.164 727.789 500.755 727.624C513.855 724.206 526.601 719.083 539.112 714.018C565.756 703.266 591.561 690.542 616.312 675.951C621.88 672.669 627.393 669.286 632.852 665.803C651.519 653.918 669.447 640.912 686.539 626.855C697.472 617.849 708.031 608.41 718.215 598.539C728.633 588.449 738.607 577.913 748.137 566.931C758.693 554.749 768.638 542.073 777.973 528.903C785.207 518.703 792.043 508.236 798.483 497.503C804.691 487.151 810.498 476.579 815.904 465.789C823.364 450.93 830.029 435.686 835.872 420.12C845.798 393.644 867.316 329.499 854.281 300.82" stroke="#171717" stroke-width="2.905" stroke-linecap="round" stroke-linejoin="round"/>
<path d="M520.035 507.037C514.428 519.19 508.376 529.814 502.275 540.998C501.597 542.238 500.919 543.498 500.242 544.756C481.136 580.373 460.461 613.646 443.834 650.173C441.916 654.366 440.059 658.607 438.265 662.898C434.392 672.581 435.365 682.265 435.448 692.462" stroke="#171717" stroke-width="2.905" stroke-linecap="round" stroke-linejoin="round"/>
<path d="M502.479 541.1C502.411 541.071 502.343 541.032 502.279 541C490.852 535.461 477.421 535.316 464.939 537.756C440.719 542.492 418.786 556.562 402.749 575.32C391.692 588.48 383.089 603.519 377.349 619.72C374.78 626.805 372.681 634.051 371.064 641.411C367.764 656.421 366.435 672.564 372.284 686.77C373.427 689.54 375.548 692.629 378.53 692.319C380.903 692.067 382.423 689.762 383.692 687.748C390.168 677.589 398.722 668.918 408.792 662.305C418.862 655.691 430.219 651.287 442.114 649.381" stroke="#171717" stroke-width="2.905" stroke-linecap="round" stroke-linejoin="round"/>
<path d="M632.812 665.009C632.822 665.27 632.841 665.541 632.851 665.803C634.051 690.864 631.486 716.381 622.412 739.748C613.242 763.376 597.05 784.729 575.126 797.434C557.24 807.796 536.507 812.018 516.026 814.934C515.658 814.982 515.3 815.04 514.932 815.089C499.041 817.306 482.511 818.836 467.232 813.946C463.145 812.646 458.749 810.392 457.606 806.267C456.686 802.967 458.226 799.391 460.56 796.883C462.894 794.375 465.934 792.671 468.791 790.783C488.826 777.575 500.902 753.162 499.266 729.224C499.759 728.691 500.253 728.159 500.757 727.624C500.815 727.566 500.873 727.498 500.931 727.44" stroke="#171717" stroke-width="2.905" stroke-linecap="round" stroke-linejoin="round"/>
<path d="M458.7 726.811C484.556 704.325 509.908 680.968 529.1 652.681C532.983 646.939 536.673 640.867 538.106 634.088C539.406 627.997 538.832 617.016 532.344 613.688C525.701 610.26 513.558 614.888 507.467 617.736C496.718 622.736 488.041 631.236 479.878 639.824C464.04 656.475 449.225 674.07 435.516 692.514C433.116 695.748 430.749 699.005 428.416 702.285C418.829 715.785 409.697 729.999 405.407 745.985C404.149 750.701 404.032 757.025 408.477 759.029C411.111 760.221 414.171 759.223 416.815 758.051C428.542 752.822 438.458 744.31 448.181 735.914C451.687 732.893 455.193 729.858 458.7 726.811Z" stroke="#171717" stroke-width="2.905" stroke-linecap="round" stroke-linejoin="round"/>
<path d="M691.031 343.517C686.141 366.884 687.09 391.035 696.938 412.776C706.786 434.517 724.324 452.847 746.006 462.831C767.688 472.815 793.369 474.161 815.681 465.668" stroke="#171717" stroke-width="2.905" stroke-linecap="round" stroke-linejoin="round"/>
<path d="M778.524 528.816L777.972 528.903C753.191 532.932 726.542 521.603 712.277 500.946C712.2 500.846 712.142 500.762 712.077 500.665" stroke="#171717" stroke-width="2.905" stroke-linecap="round" stroke-linejoin="round"/>
<path d="M718.669 598.607C718.514 598.588 718.369 598.568 718.214 598.539C707.057 596.965 696.326 593.181 686.65 587.408C676.974 581.634 668.548 573.988 661.864 564.917" stroke="#171717" stroke-width="2.905" stroke-linecap="round" stroke-linejoin="round"/>
<path d="M661.922 564.724C682.734 547.358 699.648 525.797 711.561 501.45" stroke="#171717" stroke-width="2.905" stroke-linecap="round" stroke-linejoin="round"/>
<path d="M712.49 526.018C712.945 524.568 713.285 523.085 713.507 521.582C713.759 519.997 713.875 518.394 713.856 516.789" stroke="#171717" stroke-width="2.905" stroke-linecap="round" stroke-linejoin="round"/>
<path d="M708.733 521.156C710.321 521.302 711.919 521.447 713.507 521.582C714.427 521.67 715.338 521.757 716.257 521.834" stroke="#171717" stroke-width="2.905" stroke-linecap="round" stroke-linejoin="round"/>
<path d="M680.021 571.812C679.921 570.776 679.837 569.73 679.75 568.684C679.614 567.106 679.469 565.527 679.333 563.949" stroke="#171717" stroke-width="2.905" stroke-linecap="round" stroke-linejoin="round"/>
<path d="M675.586 569.159C676.97 569.004 678.365 568.849 679.75 568.684C681.435 568.5 683.123 568.309 684.814 568.113" stroke="#171717" stroke-width="2.905" stroke-linecap="round" stroke-linejoin="round"/>
<path d="M561.55 562.632C555.071 569.081 548.225 576.267 547.227 585.35C546.569 591.286 548.554 597.164 550.539 602.79C555.323 616.396 560.284 629.937 565.423 643.414C567.205 648.101 569.258 653.088 573.49 655.78C578.554 658.995 585.12 657.94 591.008 656.78C595.888 655.812 601.321 654.48 603.964 650.263C605.988 647.019 605.795 642.923 605.543 639.117C604.21 619.237 602.873 599.353 601.534 579.465" stroke="#171717" stroke-width="2.905" stroke-linecap="round" stroke-linejoin="round"/>
<path d="M376.948 619.572C358.442 614.372 338.058 624.23 326.554 639.628C315.05 655.026 311.059 674.828 310.304 694.028C307.904 680.994 292.873 673.159 279.733 674.97C266.593 676.781 255.552 685.845 247.059 696.023C252.802 685.041 246.982 670.245 236.107 664.299C225.232 658.353 211.107 660.454 200.955 667.582C205.61 662.218 208.638 655.638 209.685 648.613C210.731 641.588 209.752 634.411 206.863 627.923C203.974 621.435 199.294 615.906 193.373 611.984C187.452 608.063 180.535 605.911 173.434 605.782C178.398 601.802 182.298 596.653 184.783 590.796C187.269 584.94 188.264 578.558 187.679 572.222C187.094 565.887 184.947 559.795 181.43 554.493C177.913 549.191 173.136 544.844 167.527 541.84C176.527 547.021 189.034 540.678 192.588 530.926C196.142 521.174 192.4 509.962 185.742 502C194.699 507.084 207.23 504.518 213.476 496.335C214.162 495.448 214.762 494.498 215.268 493.497C219.468 485.421 218.095 474.585 211.617 468.087C214.26 468.625 216.987 468.595 219.617 468C222.385 467.416 224.988 466.224 227.238 464.51C229.489 462.797 231.33 460.604 232.629 458.092C233.928 455.58 234.653 452.81 234.751 449.983C234.848 447.156 234.316 444.343 233.193 441.747" stroke="#171717" stroke-width="2.905" stroke-linecap="round" stroke-linejoin="round"/>
<path d="M130.06 734.509C113.046 751.039 106.141 777.34 113.017 800.078C120.086 823.425 141.332 841.854 165.445 845.534C189.558 849.214 215.345 837.971 229.057 817.79C218.134 839.59 235.342 868.842 259.357 873.026C283.372 877.21 307.969 859.033 314.564 835.569C314.39 861.289 338.154 884.695 363.874 884.133C389.594 883.571 412.302 859.149 411.005 833.448C419.033 857.735 446.205 874.004 471.405 869.636C496.605 865.268 516.687 840.769 516.067 815.214" stroke="#171717" stroke-width="2.905" stroke-linecap="round" stroke-linejoin="round"/>
<path d="M130.06 734.509C130.544 734.093 131.019 733.647 131.46 733.182C130.99 733.618 130.515 734.054 130.06 734.509Z" stroke="#171717" stroke-width="2.905" stroke-linecap="round" stroke-linejoin="round"/>
<path d="M232.456 441.749C226.433 433.344 209.922 442.999 204.131 453.649C203.371 455.02 202.795 456.485 202.417 458.006C190.971 453.823 177.549 461.076 172.582 471.845C171.047 475.068 170.383 478.637 170.655 482.196C165.725 480.786 160.473 480.995 155.67 482.792C150.868 484.589 146.768 487.879 143.975 492.18C141.182 496.48 139.842 501.563 140.153 506.681C140.463 511.799 142.408 516.683 145.7 520.614C135.92 516.392 123.3 520.527 117.9 529.714C112.5 538.901 115.044 551.928 123.5 558.426C109.226 558.281 95.6202 569.214 92.6762 583.168C89.7322 597.122 97.7602 612.626 110.876 618.262C75.8592 634.308 59.6972 681.972 77.7482 715.991C82.8902 725.691 90.6762 734.429 100.882 738.491C110.482 742.316 122.361 741.251 130.069 734.511" stroke="#171717" stroke-width="2.905" stroke-linecap="round" stroke-linejoin="round"/>
<path d="M268.228 640.209C266.599 641.038 265.217 642.28 264.219 643.811C263.221 645.342 262.642 647.108 262.541 648.933C262.439 650.757 262.818 652.577 263.64 654.209C264.462 655.841 265.698 657.229 267.225 658.234C268.752 659.238 270.515 659.825 272.339 659.934C274.163 660.043 275.984 659.672 277.62 658.857C279.256 658.042 280.649 656.812 281.66 655.29C282.672 653.768 283.266 652.007 283.383 650.183C283.479 648.351 283.095 646.526 282.267 644.888C281.44 643.251 280.198 641.859 278.665 640.85C277.133 639.842 275.363 639.252 273.532 639.139C271.701 639.027 269.872 639.396 268.228 640.209V640.209Z" stroke="#171717" stroke-width="2.905" stroke-linecap="round" stroke-linejoin="round"/>
<path d="M403.53 893.313C401.65 896.398 400.709 899.965 400.823 903.576C400.936 907.187 402.099 910.688 404.169 913.649C408.459 919.43 416.719 922.016 423.42 919.382C430.121 916.748 434.45 908.962 432.833 901.951C431.526 896.286 425.633 887.222 419.924 885.014C413.872 882.671 406.512 888.491 403.53 893.313Z" stroke="#171717" stroke-width="2.905" stroke-linecap="round" stroke-linejoin="round"/>
<path d="M294.21 893.468C293.641 894.805 293.369 896.25 293.413 897.703C293.456 899.156 293.814 900.582 294.462 901.883C295.427 903.533 296.892 904.834 298.644 905.598C300.397 906.362 302.347 906.55 304.213 906.135C312.347 904.246 313.213 894.466 309.191 888.442C304.484 881.383 296.64 887.4 294.21 893.468Z" stroke="#171717" stroke-width="2.905" stroke-linecap="round" stroke-linejoin="round"/>
<path d="M295.1 424.658C291.594 422.44 287.934 420.158 283.808 419.68C279.682 419.202 274.967 421.094 273.592 425.006C272.624 427.756 273.253 431.306 271.016 433.17C269.416 434.516 266.93 434.264 265.157 433.16C263.462 431.928 262.044 430.354 260.993 428.541C255.06 419.777 249.13 411.013 243.204 402.249C241.248 399.373 237.927 396.1 234.867 397.749C233.22 398.631 232.542 400.596 232.126 402.417C231.023 407.213 230.761 412.164 231.351 417.049C231.584 418.996 231.836 421.281 230.383 422.588C229.786 423.021 229.094 423.305 228.364 423.416C227.635 423.527 226.889 423.463 226.19 423.227C219.353 421.581 214.831 413.776 207.81 413.515C206.085 413.521 204.384 413.922 202.836 414.685C201.289 415.449 199.937 416.556 198.882 417.921C196.794 420.673 195.476 423.932 195.066 427.362C194.413 431.887 194.763 436.501 196.091 440.875C197.42 445.25 199.695 449.279 202.755 452.676" stroke="#171717" stroke-width="2.905" stroke-linecap="round" stroke-linejoin="round"/>
<path d="M221.727 468.293C221.954 471.288 222.595 474.238 223.634 477.056C224.161 478.465 224.976 479.749 226.026 480.826C227.076 481.903 228.339 482.749 229.734 483.312C233.462 484.6 237.617 482.983 240.725 480.562C243.833 478.141 246.274 474.962 249.286 472.428C258.96 464.264 274.551 464.245 284.244 472.399C284.699 471.924 285.154 471.459 285.61 470.985" stroke="#171717" stroke-width="2.905" stroke-linecap="round" stroke-linejoin="round"/>
<path d="M157.853 428.366C157.959 428.415 158.075 428.466 158.182 428.512C161.591 430.032 165.115 431.543 168.834 431.446C172.669 431.359 176.746 429.054 177.559 425.306C178.188 422.353 176.804 418.944 178.489 416.436C180.784 413.018 186.526 414.422 189.589 411.662C193.87 407.808 189.86 399.131 194.509 395.722C197.704 393.369 202.12 395.674 206.09 395.8C212.39 396.013 217.595 390.241 218.99 384.1C220.385 377.959 218.884 371.579 217.402 365.459" stroke="#171717" stroke-width="2.905" stroke-linecap="round" stroke-linejoin="round"/>
<path d="M552.356 573.659L567.3 630.019C568.681 635.23 570.212 640.705 574.048 644.492C577.803 648.199 583.295 649.711 588.572 649.692C593.849 649.673 599.014 648.292 604.108 646.912" stroke="#171717" stroke-width="2.905" stroke-linecap="round" stroke-linejoin="round"/>
<path d="M601.742 594.09C592.101 594.44 582.51 592.55 573.723 588.569" stroke="#171717" stroke-width="2.905" stroke-linecap="round" stroke-linejoin="round"/>
<path d="M603.12 608.407C593.895 608.591 584.754 606.617 576.428 602.642" stroke="#171717" stroke-width="2.905" stroke-linecap="round" stroke-linejoin="round"/>
<path d="M603.813 620.74C594.913 622.344 585.733 620.988 577.678 616.878" stroke="#171717" stroke-width="2.905" stroke-linecap="round" stroke-linejoin="round"/>
<path d="M273.116 280.4L320.147 264.618" stroke="#171717" stroke-width="2.905" stroke-linecap="round" stroke-linejoin="round"/>
<path d="M565.326 137.556L620.358 106.828" stroke="#171717" stroke-width="2.905" stroke-linecap="round" stroke-linejoin="round"/>
<path d="M357.392 418.9C347.511 419.099 337.729 416.89 328.892 412.465C320.055 408.04 312.427 401.531 306.667 393.5" stroke="#171717" stroke-width="2.905" stroke-linecap="round" stroke-linejoin="round"/>
<path d="M398.661 451.821L403.131 440.21" stroke="#171717" stroke-width="2.905" stroke-linecap="round" stroke-linejoin="round"/>
<path d="M394.991 444.94L407.634 447.69" stroke="#171717" stroke-width="2.905" stroke-linecap="round" stroke-linejoin="round"/>
<path d="M379.68 242.562L381.68 226.578" stroke="#171717" stroke-width="2.905" stroke-linecap="round" stroke-linejoin="round"/>
<path d="M372.451 233.231L390.551 235.91" stroke="#171717" stroke-width="2.905" stroke-linecap="round" stroke-linejoin="round"/>
<path d="M399.5 190.631L401.151 170.11" stroke="#171717" stroke-width="2.905" stroke-linecap="round" stroke-linejoin="round"/>
<path d="M391.557 178.77C398.373 179.775 405.307 179.668 412.09 178.455" stroke="#171717" stroke-width="2.905" stroke-linecap="round" stroke-linejoin="round"/>
<path d="M236.6 231.268C233.474 230.527 230.678 228.777 228.646 226.289C226.613 223.8 225.457 220.712 225.355 217.5" stroke="#171717" stroke-width="2.905" stroke-linecap="round" stroke-linejoin="round"/>
<path d="M322.612 225.144C324.791 222.285 326.089 218.854 326.348 215.269C326.607 211.684 325.815 208.101 324.07 204.959" stroke="#171717" stroke-width="2.905" stroke-linecap="round" stroke-linejoin="round"/>
<path d="M663.805 208.9C665.595 202.197 665.768 195.165 664.308 188.382C662.848 181.6 659.799 175.261 655.41 169.887" stroke="#171717" stroke-width="2.905" stroke-linecap="round" stroke-linejoin="round"/>
<path d="M882.4 447.08C871.793 460.466 865.311 476.586 859.3 492.571C856.214 500.771 853.181 509.149 852.658 517.895C852.135 526.641 854.458 535.951 860.739 542.057C867.02 548.163 877.739 549.992 884.723 544.707C891.707 539.422 891.994 526.833 884.374 522.507C877.445 518.576 868.153 522.99 864.126 529.863C860.099 536.736 859.991 545.149 860.273 553.11C860.603 562.377 861.308 571.623 862.389 580.85C863.378 589.274 864.663 597.956 862.349 606.116C860.035 614.276 852.941 621.799 844.464 621.516C835.987 621.233 829.238 609.927 834.864 603.581" stroke="#171717" stroke-width="2.905" stroke-linecap="round" stroke-linejoin="round"/>
<path d="M793.833 595.4L789.733 576.944" stroke="#171717" stroke-width="2.905" stroke-linecap="round" stroke-linejoin="round"/>
<path d="M780.562 591.457L800.031 584.244" stroke="#171717" stroke-width="2.905" stroke-linecap="round" stroke-linejoin="round"/>
<path d="M366.258 519.49C363.319 517.274 359.918 515.749 356.308 515.032C352.697 514.314 348.971 514.421 345.408 515.345C341.845 516.269 338.537 517.986 335.73 520.368C332.924 522.75 330.691 525.735 329.2 529.1C325.15 538.238 327.027 548.746 328.179 558.675C329.331 568.604 329.289 579.784 322.547 587.163C317.428 592.763 309.529 594.863 301.989 595.724C297.324 596.254 292.367 596.36 288.199 594.199C284.031 592.038 281.057 586.942 282.726 582.553C284.395 578.164 291.687 576.934 293.764 581.145C294.44 582.516 294.088 584.664 292.577 584.893C291.066 585.122 291.215 581.851 292.518 582.651" stroke="#171717" stroke-width="2.905" stroke-linecap="round" stroke-linejoin="round"/>
<path d="M761.275 267.253L759.168 251.881" stroke="#171717" stroke-width="2.905" stroke-linecap="round" stroke-linejoin="round"/>
<path d="M750.761 262.1L769.219 260.064" stroke="#171717" stroke-width="2.905" stroke-linecap="round" stroke-linejoin="round"/>
<path d="M815.51 209L820.231 217.5C820.374 217.756 820.435 218.051 820.405 218.343C820.376 218.635 820.257 218.911 820.066 219.134C819.874 219.357 819.619 219.515 819.335 219.589C819.051 219.662 818.751 219.646 818.475 219.544L809.359 216.152C809.093 216.053 808.804 216.035 808.528 216.1C808.252 216.166 808.001 216.311 807.807 216.519L801.178 223.637C800.978 223.852 800.717 224 800.43 224.062C800.143 224.124 799.844 224.097 799.573 223.984C799.302 223.87 799.073 223.677 798.915 223.429C798.758 223.181 798.68 222.891 798.692 222.598L799.101 212.88C799.114 212.596 799.041 212.315 798.894 212.073C798.746 211.83 798.53 211.637 798.272 211.518L789.455 207.418C789.189 207.294 788.967 207.092 788.819 206.838C788.671 206.584 788.605 206.291 788.629 205.998C788.653 205.705 788.766 205.427 788.953 205.2C789.14 204.974 789.392 204.81 789.675 204.732L799.043 202.118C799.317 202.041 799.561 201.886 799.746 201.671C799.932 201.456 800.049 201.19 800.083 200.909L801.262 191.254C801.298 190.962 801.422 190.689 801.618 190.47C801.813 190.251 802.072 190.098 802.357 190.03C802.643 189.963 802.943 189.984 803.216 190.092C803.489 190.2 803.722 190.389 803.884 190.634L809.265 198.734C809.422 198.97 809.646 199.155 809.908 199.264C810.17 199.373 810.458 199.403 810.736 199.349L820.283 197.487C820.571 197.431 820.869 197.465 821.137 197.583C821.405 197.702 821.631 197.899 821.783 198.15C821.936 198.4 822.008 198.691 821.99 198.984C821.972 199.277 821.865 199.557 821.683 199.787L815.641 207.408C815.465 207.63 815.358 207.901 815.334 208.184C815.311 208.467 815.372 208.751 815.51 209Z" fill="#171717"/>
<path d="M357.162 164.154L359.315 170.177C359.38 170.359 359.387 170.556 359.337 170.742C359.286 170.928 359.18 171.095 359.032 171.218C358.884 171.342 358.701 171.418 358.509 171.435C358.317 171.452 358.124 171.41 357.957 171.314L352.406 168.138C352.244 168.045 352.058 168.002 351.872 168.015C351.686 168.028 351.507 168.096 351.36 168.21L346.297 172.118C346.144 172.235 345.959 172.303 345.766 172.313C345.574 172.322 345.383 172.272 345.22 172.17C345.056 172.067 344.928 171.917 344.853 171.74C344.777 171.563 344.758 171.367 344.797 171.178L346.102 164.917C346.14 164.734 346.123 164.544 346.053 164.371C345.983 164.198 345.864 164.05 345.71 163.945L340.429 160.338C340.269 160.229 340.147 160.074 340.079 159.893C340.011 159.713 339.999 159.516 340.046 159.329C340.093 159.142 340.196 158.973 340.341 158.846C340.486 158.719 340.667 158.64 340.859 158.619L347.217 157.926C347.402 157.905 347.576 157.83 347.718 157.71C347.861 157.591 347.964 157.431 348.017 157.253L349.817 151.116C349.871 150.931 349.981 150.767 350.131 150.646C350.282 150.525 350.466 150.453 350.658 150.44C350.851 150.426 351.043 150.472 351.208 150.572C351.374 150.671 351.505 150.818 351.585 150.994L354.208 156.826C354.284 156.996 354.41 157.14 354.568 157.239C354.726 157.338 354.91 157.387 355.097 157.382L361.49 157.196C361.683 157.19 361.873 157.244 362.034 157.35C362.195 157.456 362.321 157.608 362.393 157.788C362.465 157.967 362.48 158.163 362.437 158.352C362.394 158.54 362.295 158.71 362.152 158.84L357.416 163.14C357.278 163.265 357.181 163.428 357.136 163.609C357.091 163.789 357.1 163.979 357.162 164.154V164.154Z" fill="#171717"/>
<path d="M160.64 308.449L166.874 313.729C167.062 313.888 167.197 314.101 167.26 314.34C167.324 314.578 167.313 314.83 167.228 315.062C167.144 315.294 166.991 315.494 166.789 315.636C166.588 315.778 166.347 315.855 166.101 315.856L157.932 315.897C157.693 315.898 157.46 315.97 157.262 316.104C157.065 316.237 156.911 316.426 156.821 316.647L153.727 324.207C153.633 324.435 153.472 324.63 153.265 324.764C153.058 324.898 152.815 324.965 152.568 324.957C152.322 324.948 152.084 324.864 151.886 324.716C151.689 324.568 151.542 324.363 151.465 324.129L148.901 316.372C148.826 316.146 148.685 315.947 148.498 315.8C148.31 315.653 148.082 315.566 147.845 315.548L139.698 314.941C139.452 314.923 139.217 314.83 139.026 314.674C138.835 314.518 138.696 314.308 138.628 314.071C138.56 313.834 138.566 313.582 138.646 313.348C138.726 313.115 138.875 312.912 139.074 312.766L145.658 307.93C145.85 307.789 145.996 307.594 146.077 307.37C146.159 307.146 146.172 306.903 146.116 306.671L144.176 298.736C144.117 298.496 144.133 298.245 144.222 298.014C144.311 297.784 144.468 297.587 144.672 297.449C144.877 297.311 145.119 297.239 145.365 297.243C145.612 297.247 145.851 297.326 146.052 297.47L152.685 302.238C152.878 302.377 153.109 302.456 153.347 302.464C153.585 302.472 153.821 302.409 154.024 302.284L160.972 297.984C161.181 297.854 161.426 297.791 161.672 297.804C161.918 297.818 162.154 297.906 162.349 298.058C162.543 298.21 162.686 298.417 162.759 298.653C162.831 298.889 162.83 299.141 162.755 299.376L160.271 307.159C160.197 307.386 160.192 307.631 160.258 307.86C160.324 308.09 160.457 308.295 160.64 308.449V308.449Z" fill="#171717"/>
<path d="M786.485 662.725L788.638 668.747C788.703 668.929 788.711 669.126 788.661 669.313C788.61 669.499 788.504 669.666 788.356 669.79C788.208 669.914 788.025 669.989 787.833 670.007C787.641 670.024 787.448 669.981 787.28 669.885L781.729 666.709C781.567 666.616 781.381 666.574 781.195 666.587C781.009 666.599 780.831 666.667 780.683 666.781L775.62 670.689C775.467 670.807 775.282 670.875 775.09 670.884C774.897 670.893 774.706 670.843 774.543 670.741C774.38 670.639 774.252 670.489 774.176 670.311C774.1 670.134 774.081 669.938 774.12 669.749L775.42 663.488C775.458 663.305 775.441 663.115 775.371 662.942C775.302 662.769 775.182 662.621 775.028 662.515L769.747 658.909C769.588 658.8 769.466 658.645 769.397 658.465C769.329 658.284 769.317 658.087 769.364 657.9C769.411 657.713 769.514 657.545 769.659 657.418C769.805 657.291 769.985 657.211 770.177 657.19L776.535 656.497C776.72 656.476 776.894 656.401 777.036 656.281C777.179 656.162 777.283 656.003 777.335 655.824L779.135 649.686C779.19 649.501 779.299 649.337 779.45 649.216C779.6 649.095 779.784 649.023 779.977 649.01C780.169 648.997 780.361 649.043 780.527 649.142C780.692 649.241 780.824 649.388 780.903 649.564L783.527 655.397C783.603 655.567 783.729 655.711 783.887 655.81C784.045 655.909 784.229 655.959 784.415 655.953L790.808 655.767C791.001 655.761 791.191 655.815 791.353 655.921C791.514 656.026 791.64 656.179 791.712 656.358C791.784 656.537 791.799 656.734 791.756 656.922C791.713 657.11 791.613 657.28 791.47 657.41L786.734 661.71C786.597 661.836 786.501 661.999 786.456 662.18C786.412 662.361 786.422 662.55 786.485 662.725V662.725Z" fill="#171717"/>
<path d="M619 165.1C619.175 160.086 620.191 155.138 622.008 150.462" stroke="#171717" stroke-width="2.905" stroke-linecap="round" stroke-linejoin="round"/>
<path d="M596.213 158.6L589.419 156.2" stroke="#171717" stroke-width="2.905" stroke-linecap="round" stroke-linejoin="round"/>
<path d="M625.236 199.472L615.212 194.455" stroke="#171717" stroke-width="2.905" stroke-linecap="round" stroke-linejoin="round"/>
<path d="M593.91 238.481L600.671 230.669" stroke="#171717" stroke-width="2.905" stroke-linecap="round" stroke-linejoin="round"/>
<path d="M616.735 259.842C614.63 256.851 613.05 253.523 612.065 250" stroke="#171717" stroke-width="2.905" stroke-linecap="round" stroke-linejoin="round"/>
<path d="M581.132 273.1L589.332 270.366" stroke="#171717" stroke-width="2.905" stroke-linecap="round" stroke-linejoin="round"/>
<path d="M586.692 307.255C585.931 303.959 585.731 300.558 586.099 297.195" stroke="#171717" stroke-width="2.905" stroke-linecap="round" stroke-linejoin="round"/>
<path d="M545.578 297.624L553.792 296.824" stroke="#171717" stroke-width="2.905" stroke-linecap="round" stroke-linejoin="round"/>
<path d="M559.247 344.644L558.981 333.714" stroke="#171717" stroke-width="2.905" stroke-linecap="round" stroke-linejoin="round"/>
<path d="M582.954 346.011C585.202 346.544 587.543 346.544 589.79 346.011" stroke="#171717" stroke-width="2.905" stroke-linecap="round" stroke-linejoin="round"/>
<path d="M544.1 384.293L543.963 375.636" stroke="#171717" stroke-width="2.905" stroke-linecap="round" stroke-linejoin="round"/>
<path d="M505 438.849L510.934 437.523" stroke="#171717" stroke-width="2.905" stroke-linecap="round" stroke-linejoin="round"/>
<path d="M490.446 380.189V372.442" stroke="#171717" stroke-width="2.905" stroke-linecap="round" stroke-linejoin="round"/>
<path d="M485.442 348.809L495.01 347.423" stroke="#171717" stroke-width="2.905" stroke-linecap="round" stroke-linejoin="round"/>
<path d="M473.552 333.7L474.442 325.951" stroke="#171717" stroke-width="2.905" stroke-linecap="round" stroke-linejoin="round"/>
<path d="M453.986 353.731C451.03 354.066 448.039 353.624 445.307 352.448" stroke="#171717" stroke-width="2.905" stroke-linecap="round" stroke-linejoin="round"/>
<path d="M432.238 381.6L436.171 371.509" stroke="#171717" stroke-width="2.905" stroke-linecap="round" stroke-linejoin="round"/>
<path d="M412.058 357.024C408.856 356.757 405.751 355.79 402.964 354.19" stroke="#171717" stroke-width="2.905" stroke-linecap="round" stroke-linejoin="round"/>
<path d="M375.785 379.825L380.57 370.593" stroke="#171717" stroke-width="2.905" stroke-linecap="round" stroke-linejoin="round"/>
<path d="M364.518 356.177L357.311 348.353" stroke="#171717" stroke-width="2.905" stroke-linecap="round" stroke-linejoin="round"/>
<path d="M323.657 347.378L324.569 338.264" stroke="#171717" stroke-width="2.905" stroke-linecap="round" stroke-linejoin="round"/>
<path d="M331.888 314.929L322.767 312.217" stroke="#171717" stroke-width="2.905" stroke-linecap="round" stroke-linejoin="round"/>
<path d="M297.226 317.757C297.586 314.388 297.277 310.981 296.315 307.732" stroke="#171717" stroke-width="2.905" stroke-linecap="round" stroke-linejoin="round"/>
<path d="M317.223 282.752L308.118 276.814" stroke="#171717" stroke-width="2.905" stroke-linecap="round" stroke-linejoin="round"/>
<path fill-rule="evenodd" clip-rule="evenodd" d="M193.372 611.985C187.451 608.063 180.535 605.912 173.434 605.783V605.781C178.397 601.8 182.297 596.652 184.783 590.795C187.269 584.938 188.263 578.556 187.678 572.221C187.093 565.885 184.946 559.794 181.429 554.492C178.029 549.366 173.452 545.132 168.083 542.142C177.03 546.763 189.097 540.467 192.588 530.925C196.152 521.183 192.404 509.96 185.742 502C194.7 507.086 207.23 504.52 213.475 496.335C214.161 495.448 214.761 494.497 215.267 493.497C219.469 485.421 218.094 474.587 211.616 468.087C214.258 468.625 216.985 468.595 219.616 468C222.382 467.415 224.985 466.223 227.234 464.51C229.484 462.797 231.325 460.605 232.624 458.094C233.923 455.582 234.648 452.813 234.746 449.987C234.844 447.161 234.313 444.348 233.192 441.753H232.456C226.431 433.346 209.922 443.001 204.131 453.653C203.371 455.024 202.794 456.488 202.417 458.01C190.971 453.827 177.549 461.08 172.582 471.849C171.046 475.071 170.382 478.64 170.655 482.2C165.724 480.785 160.469 480.99 155.664 482.785C150.858 484.58 146.756 487.87 143.96 492.171C141.164 496.472 139.823 501.557 140.133 506.678C140.443 511.798 142.389 516.684 145.684 520.616C135.906 516.391 123.276 520.536 117.884 529.716C112.492 538.896 115.03 551.928 123.484 558.428C109.21 558.283 95.5996 569.206 92.6596 583.17C89.7196 597.134 97.7476 612.628 110.86 618.264C75.8426 634.31 59.6806 681.974 77.7316 715.993C82.8736 725.701 90.6596 734.436 100.866 738.493C110.463 742.313 122.345 741.253 130.053 734.513C113.039 751.043 106.134 777.344 113.01 800.082C120.079 823.429 141.316 841.859 165.438 845.538C189.56 849.217 215.338 837.975 229.05 817.794C218.126 839.592 235.334 868.837 259.35 873.03C283.366 877.223 307.962 859.037 314.557 835.573C314.383 861.293 338.147 884.699 363.867 884.137C389.587 883.575 412.298 859.152 410.998 833.452C419.029 857.74 446.2 874.017 471.398 869.64C496.596 865.263 516.68 840.773 516.06 815.218L516.021 814.937C515.949 814.946 515.879 814.956 515.808 814.965C515.737 814.976 515.665 814.986 515.594 814.996L515.449 815.017C515.275 815.043 515.102 815.068 514.927 815.092C499.038 817.309 482.508 818.839 467.227 813.949C463.14 812.651 458.744 810.395 457.601 806.27C456.681 802.968 458.231 799.393 460.555 796.886C462.424 794.87 464.762 793.373 467.092 791.881L467.092 791.881L467.093 791.881C467.66 791.518 468.227 791.155 468.786 790.786C488.821 777.578 500.897 753.165 499.261 729.227C499.714 728.732 500.176 728.24 500.638 727.748L500.752 727.627C500.161 727.792 499.57 727.947 498.97 728.092C486.052 731.316 471.672 732.856 459.141 727.327L458.695 726.814C455.189 729.86 451.683 732.893 448.179 735.914C438.456 744.31 428.54 752.822 416.813 758.051C414.169 759.223 411.109 760.221 408.475 759.029C404.03 757.025 404.147 750.701 405.405 745.985C409.695 729.999 418.827 715.785 428.414 702.285C430.747 699.005 433.114 695.748 435.514 692.514L435.447 692.465C435.434 690.866 435.399 689.281 435.364 687.706L435.364 687.703C435.178 679.23 434.998 671.065 438.264 662.901C440.058 658.61 441.915 654.368 443.833 650.176L442.109 649.382C430.213 651.287 418.856 655.692 408.786 662.305C398.717 668.918 390.162 677.59 383.687 687.749C382.418 689.763 380.898 692.068 378.525 692.32C375.543 692.63 373.422 689.541 372.279 686.771C366.43 672.565 367.759 656.422 371.059 641.412C372.675 634.051 374.775 626.805 377.344 619.721L376.944 619.575C358.438 614.375 338.055 624.237 326.55 639.631C315.045 655.025 311.055 674.831 310.3 694.031C307.9 681 292.865 673.16 279.733 674.971C266.601 676.782 255.552 685.846 247.059 696.024C252.807 685.042 246.982 670.256 236.107 664.3C225.232 658.344 211.104 660.455 200.955 667.583C205.609 662.219 208.638 655.638 209.684 648.614C210.73 641.589 209.752 634.412 206.862 627.924C203.973 621.436 199.294 615.907 193.372 611.985ZM130.053 734.513C130.493 734.068 130.957 733.641 131.421 733.215L131.421 733.215L131.422 733.214L131.453 733.186C131.012 733.651 130.537 734.097 130.053 734.513ZM371.829 736.517C364.731 729.024 354.507 723.568 343.936 724.58C334.415 725.492 325.191 732.78 323.46 742.239C320.216 739.46 316.306 737.539 312.088 736.677C306.848 735.607 301.404 736.228 296.539 738.451C291.675 740.674 287.641 744.383 285.021 749.046C282.4 753.708 281.328 759.082 281.958 764.393C282.052 765.19 282.775 765.759 283.571 765.665C284.368 765.57 284.937 764.848 284.842 764.051C284.285 759.351 285.234 754.595 287.553 750.469C289.872 746.343 293.441 743.06 297.746 741.093C302.051 739.126 306.87 738.576 311.507 739.523C316.144 740.471 320.361 742.866 323.55 746.364C323.953 746.806 324.587 746.956 325.146 746.74C325.705 746.525 326.074 745.988 326.076 745.389C326.098 736.271 334.788 728.374 344.212 727.472C353.617 726.572 363.017 731.439 369.72 738.515C370.271 739.097 371.19 739.122 371.773 738.571C372.355 738.019 372.38 737.1 371.829 736.517ZM161.998 712.818C162.506 713.438 162.416 714.353 161.796 714.862C158.397 717.651 155.822 721.313 154.347 725.454C152.872 729.596 152.553 734.061 153.423 738.37C154.293 742.68 156.321 746.671 159.287 749.916C162.254 753.16 166.049 755.535 170.263 756.787C172.189 757.359 174.376 757.547 176.262 757.181C178.138 756.817 179.574 755.943 180.34 754.507C180.654 753.92 181.326 753.621 181.971 753.781C182.617 753.942 183.072 754.52 183.074 755.185C183.099 761.415 184.9 767.509 188.268 772.75C191.635 777.992 196.427 782.164 202.083 784.776C207.738 787.389 214.022 788.334 220.196 787.5C226.369 786.666 232.177 784.087 236.936 780.068C237.549 779.55 238.466 779.627 238.983 780.24C239.501 780.853 239.424 781.769 238.811 782.287C233.629 786.663 227.306 789.47 220.585 790.379C213.863 791.287 207.022 790.258 200.865 787.414C194.707 784.569 189.489 780.027 185.823 774.32C182.783 769.587 180.914 764.215 180.35 758.649C179.281 759.348 178.061 759.791 176.816 760.033C174.386 760.504 171.72 760.25 169.436 759.572C164.716 758.17 160.466 755.51 157.144 751.876C153.821 748.242 151.55 743.772 150.575 738.946C149.601 734.119 149.958 729.118 151.611 724.48C153.263 719.841 156.147 715.74 159.953 712.616C160.573 712.108 161.489 712.198 161.998 712.818ZM154.403 615.2C153.613 615.056 152.857 615.579 152.713 616.368C152.569 617.157 153.092 617.914 153.881 618.058C156.26 618.492 158.476 619.565 160.293 621.161C162.11 622.757 163.459 624.817 164.196 627.121C164.933 629.424 165.03 631.884 164.477 634.239C163.925 636.593 162.743 638.753 161.058 640.488C160.663 640.895 160.54 641.494 160.745 642.023C160.949 642.552 161.443 642.914 162.009 642.95C165.436 643.165 168.727 644.376 171.475 646.435C174.224 648.494 176.311 651.311 177.481 654.54C178.651 657.769 178.853 661.27 178.061 664.611C177.269 667.953 175.519 670.991 173.024 673.352C172.442 673.903 172.416 674.823 172.968 675.405C173.519 675.988 174.438 676.013 175.021 675.462C177.926 672.712 179.965 669.174 180.888 665.281C181.81 661.389 181.575 657.312 180.213 653.551C178.85 649.79 176.418 646.508 173.217 644.11C170.741 642.255 167.888 640.991 164.875 640.397C166.015 638.739 166.842 636.877 167.306 634.903C167.979 632.036 167.86 629.04 166.963 626.235C166.065 623.431 164.423 620.922 162.21 618.979C159.998 617.035 157.299 615.729 154.403 615.2Z" fill="#171717"/>
</g>
<defs>
<linearGradient id="paint0_linear_248_1694" x1="773.255" y1="284.115" x2="772.725" y2="470.246" gradientUnits="userSpaceOnUse">
<stop stop-color="#B7B7B7"/>
<stop offset="1" stop-color="#6F6F6F"/>
</linearGradient>
<linearGradient id="paint1_linear_248_1694" x1="545.232" y1="665.8" x2="544.896" y2="816.356" gradientUnits="userSpaceOnUse">
<stop stop-color="#B7B7B7"/>
<stop offset="1" stop-color="#6F6F6F"/>
</linearGradient>
<linearGradient id="paint2_linear_248_1694" x1="471.661" y1="612.473" x2="471.245" y2="758.76" gradientUnits="userSpaceOnUse">
<stop stop-color="#B7B7B7"/>
<stop offset="1" stop-color="#6F6F6F"/>
</linearGradient>
<linearGradient id="paint3_linear_248_1694" x1="513.413" y1="307.6" x2="513.376" y2="322.783" gradientUnits="userSpaceOnUse">
<stop stop-color="#B7B7B7"/>
<stop offset="1" stop-color="#6F6F6F"/>
</linearGradient>
<linearGradient id="paint4_linear_248_1694" x1="506.871" y1="290.964" x2="506.81" y2="314.508" gradientUnits="userSpaceOnUse">
<stop stop-color="#B7B7B7"/>
<stop offset="1" stop-color="#6F6F6F"/>
</linearGradient>
<linearGradient id="paint5_linear_248_1694" x1="435.257" y1="536.244" x2="434.789" y2="691.487" gradientUnits="userSpaceOnUse">
<stop stop-color="#B7B7B7"/>
<stop offset="1" stop-color="#6F6F6F"/>
</linearGradient>
<linearGradient id="paint6_linear_248_1694" x1="469.893" y1="319.574" x2="469.155" y2="507.247" gradientUnits="userSpaceOnUse">
<stop stop-color="#B7B7B7"/>
<stop offset="1" stop-color="#6F6F6F"/>
</linearGradient>
<linearGradient id="paint7_linear_248_1694" x1="245.681" y1="397.3" x2="245.492" y2="483.294" gradientUnits="userSpaceOnUse">
<stop stop-color="#B7B7B7"/>
<stop offset="1" stop-color="#6F6F6F"/>
</linearGradient>
<linearGradient id="paint8_linear_248_1694" x1="188.843" y1="364.648" x2="188.655" y2="431.086" gradientUnits="userSpaceOnUse">
<stop stop-color="#B7B7B7"/>
<stop offset="1" stop-color="#6F6F6F"/>
</linearGradient>
<clipPath id="clip0_248_1694">
<rect width="824" height="884" fill="white" transform="translate(68 38)"/>
</clipPath>
</defs>
</svg>
