<svg width="960" height="960" viewBox="0 0 960 960" fill="none" xmlns="http://www.w3.org/2000/svg">
<g clip-path="url(#clip0_510_1270)">
<path fill-rule="evenodd" clip-rule="evenodd" d="M507.045 463.063C507.045 463.063 522.134 446.775 541.878 449.377C561.622 451.979 577.178 463.357 584.497 479.635C584.497 479.635 589.523 489.944 595.697 505.335C605.279 529.153 617.63 565.164 618.405 594.028C618.739 605.564 617.205 615.951 612.917 623.972C610.963 627.741 608.217 631.043 604.866 633.651C601.516 636.259 597.641 638.112 593.507 639.082C566.695 646.092 552.047 640.908 544.065 632.897C533.884 622.697 534.503 607.897 534.503 607.897L534.228 607.877C533.856 613.384 532.861 618.832 531.263 624.116C529.273 630.941 525.624 637.167 520.64 642.239C512.001 650.722 498.334 655.601 477.079 652.939C470.16 652.183 463.477 649.982 457.463 646.479C455.441 645.279 453.526 643.908 451.739 642.379C439.732 632.168 434.156 615.93 432.28 598.079C432.28 598.079 404.32 607.897 383.38 597.5C362.44 587.103 369.39 525.565 369.39 525.565L369.38 525.526C374.652 524.092 379.38 522.708 383.38 521.491V521.501L393.925 534.44H405.009C405.009 534.44 441.737 436.027 479.162 441.574C492.377 443.535 501.183 452.4 507.045 463.063ZM496.192 459.736C496.89 459.29 497.818 459.494 498.264 460.192C511.43 480.786 536.022 540.875 529.995 617.617C529.931 618.443 529.208 619.06 528.383 618.995C527.557 618.931 526.94 618.208 527.005 617.383C532.978 541.325 508.57 481.881 495.736 461.808C495.29 461.11 495.494 460.182 496.192 459.736ZM563.229 462.64C562.755 461.961 561.819 461.796 561.14 462.271C560.461 462.745 560.296 463.681 560.771 464.36C569.035 476.178 581.303 497.521 591.151 523.028C601.002 548.544 608.388 578.115 607.002 606.427C606.961 607.254 607.599 607.958 608.427 607.998C609.254 608.039 609.958 607.401 609.998 606.573C611.412 577.685 603.881 547.673 593.949 521.947C584.014 496.213 571.632 474.656 563.229 462.64Z" fill="#171717"/>
<path d="M734.541 363.264C790.326 367.083 780.969 421.709 780.969 421.709H672.856C672.856 421.709 678.747 359.455 734.541 363.264Z" fill="url(#paint0_linear_510_1270)"/>
<path d="M658.1 663.746C661.831 670.098 663.5 675.498 662.577 678.646C659.809 688.179 637.169 708.846 609.915 709.769C582.661 710.692 546.158 661.259 540.615 653.669C537.7 649.683 538.809 644.146 540.507 639.787C540.507 639.787 590.391 701.805 608.417 700.411C626.443 699.017 662.4 678.708 658.1 663.746Z" fill="url(#paint1_linear_510_1270)"/>
<path d="M575.494 391.677L575.553 393.238L425.106 399.305L408.17 472.722L406.992 472.447L371.678 478.593L373.828 441.58L317.2 458.85V458.86L311.457 460.607L295.857 429.622L283.045 404.155C293.619 399.521 304.119 395.454 314.545 391.955C336.948 384.397 359.984 378.867 383.377 375.431C404.646 372.291 426.126 370.808 447.625 370.994C473.698 371.176 499.703 373.699 525.325 378.534C556.654 384.441 575.494 391.677 575.494 391.677Z" fill="url(#paint2_linear_510_1270)"/>
<path d="M453.106 263.772C453.636 263.537 474.283 254.22 477.964 260.356C481.695 266.58 468.019 272.795 457.445 274.974C446.871 277.153 404.282 273.109 394.955 277.458C389.673 279.922 389.978 306.332 391.234 328.766C391.234 328.766 381.584 343.374 376.302 339.948C371.138 336.61 378.432 325.271 378.776 324.74C378.432 324.996 362.39 337.346 369.459 326.586C376.606 315.698 380.032 270.929 386.866 263.468C393.7 256.007 434.521 257.868 434.521 257.868C434.521 257.868 440.657 237.663 447.186 239.528C453.715 241.393 446.253 258.486 446.253 258.486C446.253 258.486 460.558 243.563 466.153 247.294C471.671 250.98 453.6 263.438 453.106 263.772Z" fill="#171717"/>
<path d="M457.465 646.486C457.465 646.486 452.478 694.525 469.119 700.072C485.76 705.619 533.965 714.955 536.488 686.886C537.401 694.377 537.097 701.053 534.505 705.157C525.158 719.943 478.705 715.319 461.147 708.387C443.589 701.455 451.741 642.387 451.741 642.387C453.528 643.915 455.443 645.287 457.465 646.486Z" fill="url(#paint3_linear_510_1270)"/>
<path d="M447.628 370.981V370.991C426.129 370.804 404.649 372.288 383.38 375.428V365.346L447.628 363.264V370.981Z" fill="url(#paint4_linear_510_1270)"/>
<path d="M317.2 458.86L311.457 460.607L295.857 429.622L283.045 404.155C293.619 399.521 304.119 395.454 314.545 391.955C336.948 384.397 359.984 378.867 383.377 375.431C404.646 372.291 426.126 370.808 447.625 370.994C473.698 371.176 499.703 373.699 525.325 378.534C556.654 384.444 575.494 391.68 575.494 391.68" stroke="#171717" stroke-width="3" stroke-linecap="round" stroke-linejoin="round"/>
<path d="M371.678 478.593L373.828 441.58L317.199 458.85" stroke="#171717" stroke-width="3" stroke-linecap="round" stroke-linejoin="round"/>
<path d="M406.992 472.447L371.678 478.593L345.415 483.158L364.874 499.358" stroke="#171717" stroke-width="3" stroke-linecap="round" stroke-linejoin="round"/>
<path d="M283.043 404.156C275.531 409.595 268.332 415.456 261.483 421.71C236.232 444.625 201.163 485.526 228.983 517.119C247.901 538.61 285.405 540.151 320.229 535.606C336.815 533.33 353.233 529.965 369.376 525.533C374.648 524.099 379.376 522.715 383.376 521.498C392.163 518.798 397.465 516.854 397.465 516.854" stroke="#171717" stroke-width="3" stroke-linecap="round" stroke-linejoin="round"/>
<path d="M403.477 489.777L389.762 496.325C389.762 496.325 399.462 488.009 396.693 482.806C393.924 477.603 372.434 493.537 372.434 493.537L364.874 499.359L354.418 507.419C343.219 512.082 331.536 515.483 319.585 517.561V517.571C298.398 521.105 273.235 519.917 261.552 499.103C260.844 497.852 260.201 496.564 259.628 495.245C243.036 457.663 295.855 429.623 295.855 429.623" stroke="#171717" stroke-width="3" stroke-linecap="round" stroke-linejoin="round"/>
<path d="M383.38 521.508L393.925 534.447L397.96 516.962L404.194 489.944L408.17 472.723L425.106 399.306L575.553 393.239L614.303 391.678L609.385 421.71L598.526 488.108L595.699 505.338L595.591 506.025" stroke="#171717" stroke-width="3" stroke-linecap="round" stroke-linejoin="round"/>
<path d="M369.39 525.572C369.39 525.572 362.449 587.11 383.38 597.507C404.311 607.904 432.28 598.086 432.28 598.086" stroke="#171717" stroke-width="3" stroke-linecap="round" stroke-linejoin="round"/>
<path d="M444.515 503.256C444.515 503.256 427.776 555.281 432.282 598.086C434.158 615.935 439.734 632.173 451.741 642.386C453.527 643.915 455.442 645.287 457.465 646.486C463.479 649.99 470.162 652.19 477.081 652.946C498.336 655.607 512.003 650.728 520.642 642.246C525.625 637.175 529.275 630.948 531.265 624.123C532.862 618.839 533.857 613.391 534.23 607.884C534.955 595.79 533.913 583.656 531.137 571.863" stroke="#171717" stroke-width="3" stroke-linecap="round" stroke-linejoin="round"/>
<path d="M393.925 534.447H405.009C405.009 534.447 441.737 436.034 479.162 441.581C492.377 443.535 501.183 452.4 507.045 463.063C517.795 482.58 520 505.5 520 505.5" stroke="#171717" stroke-width="3" stroke-linecap="round" stroke-linejoin="round"/>
<path d="M507.045 463.063C507.045 463.063 522.134 446.775 541.878 449.377C561.622 451.979 577.178 463.357 584.497 479.635C584.497 479.635 589.523 489.944 595.697 505.335C605.279 529.153 617.63 565.164 618.405 594.028C618.739 605.564 617.205 615.951 612.917 623.972C610.963 627.742 608.216 631.044 604.866 633.652C601.515 636.26 597.641 638.112 593.507 639.082C566.695 646.092 552.047 640.908 544.065 632.897C533.884 622.697 534.503 607.897 534.503 607.897" stroke="#171717" stroke-width="3" stroke-linecap="round" stroke-linejoin="round"/>
<path d="M451.741 642.384C451.741 642.384 443.593 701.457 461.147 708.384C478.701 715.311 525.158 719.94 534.505 705.154C537.097 701.054 537.405 694.374 536.488 686.883C534.122 667.405 523.519 642.383 523.519 642.383" stroke="#171717" stroke-width="3" stroke-linecap="round" stroke-linejoin="round"/>
<path d="M544.067 632.9C542.651 635.072 541.457 637.381 540.503 639.792C538.803 644.151 537.696 649.692 540.611 653.674C546.158 661.263 582.651 710.704 609.911 709.773C637.171 708.842 659.805 688.184 662.573 678.651C663.496 675.5 661.827 670.099 658.096 663.75C650.556 650.918 634.544 634.2 614.296 624.312" stroke="#171717" stroke-width="3" stroke-linecap="round" stroke-linejoin="round"/>
<path d="M383.38 375.419V365.346L447.628 363.264V370.981" stroke="#171717" stroke-width="3" stroke-linecap="round" stroke-linejoin="round"/>
<path d="M378.787 324.721C378.786 324.724 378.785 324.728 378.783 324.731C378.782 324.734 378.779 324.737 378.777 324.74C378.433 325.271 371.139 336.61 376.303 339.948C381.585 343.374 391.235 328.766 391.235 328.766" stroke="#171717" stroke-width="3" stroke-linecap="round" stroke-linejoin="round"/>
<path d="M453.106 263.772C453.597 263.438 471.671 250.98 466.154 247.298C460.554 243.567 446.254 258.49 446.254 258.49C446.254 258.49 453.716 241.398 447.187 239.532C440.658 237.666 434.522 257.872 434.522 257.872C434.522 257.872 393.71 256.006 386.867 263.472C380.024 270.938 376.607 315.702 369.46 326.59C362.391 337.35 378.433 325 378.777 324.744" stroke="#171717" stroke-width="3" stroke-linecap="round" stroke-linejoin="round"/>
<path d="M393.709 360.781C393.709 360.781 392.187 345.937 391.234 328.766C389.978 306.332 389.673 279.922 394.955 277.458C404.282 273.109 446.872 277.144 457.445 274.974C468.018 272.804 481.695 266.58 477.964 260.356C474.283 254.22 453.636 263.537 453.106 263.772L453.096 263.782" stroke="#171717" stroke-width="3" stroke-linecap="round" stroke-linejoin="round"/>
<path d="M426.048 363.264C426.048 363.264 424.801 352.072 428.848 349.274C432.895 346.476 441.906 349.274 446.255 340.261C450.604 331.248 454.955 291.673 451.537 275.553" stroke="#171717" stroke-width="3" stroke-linecap="round" stroke-linejoin="round"/>
<path d="M320.242 535.674L321.155 558.696L334.576 583.133L441.05 776.994L463.228 770.887L680.131 711.146L720.335 700.072L618.417 594.03" stroke="#171717" stroke-width="3" stroke-linecap="round" stroke-linejoin="round"/>
<path d="M317.199 458.852V458.862L318.514 491.594L319.555 517.415" stroke="#171717" stroke-width="3" stroke-linecap="round" stroke-linejoin="round"/>
<path d="M525.325 378.522L518.669 212.887L307.725 219.818L314.548 391.953" stroke="#171717" stroke-width="3" stroke-linecap="round" stroke-linejoin="round"/>
<path d="M399.933 327.822C399.933 327.822 397.852 340.055 412.991 339.427" stroke="#171717" stroke-width="3" stroke-linecap="round" stroke-linejoin="round"/>
<path d="M415.681 321.4C415.681 321.4 423.142 321.773 425.008 319.407C426.874 317.041 425.008 282.434 425.008 282.434H443.661" stroke="#171717" stroke-width="3" stroke-linecap="round" stroke-linejoin="round"/>
<path d="M403.664 295.492C403.664 295.492 408.425 288.856 414.434 295.492" stroke="#171717" stroke-width="3" stroke-linecap="round" stroke-linejoin="round"/>
<path d="M433.51 297.565C433.51 297.565 438.271 291.965 442.41 297.565" stroke="#171717" stroke-width="3" stroke-linecap="round" stroke-linejoin="round"/>
<path d="M609.385 421.709H672.856H780.969H919.792" stroke="#171717" stroke-width="3" stroke-linecap="round" stroke-linejoin="round"/>
<path d="M74.0918 421.709H261.483" stroke="#171717" stroke-width="3" stroke-linecap="round" stroke-linejoin="round"/>
<path d="M598.526 488.107C699.286 491.072 808.026 498.994 919.792 514.693" stroke="#171717" stroke-width="3" stroke-linecap="round" stroke-linejoin="round"/>
<path d="M259.628 495.244C278.311 493.919 297.933 492.702 318.495 491.592" stroke="#171717" stroke-width="3" stroke-linecap="round" stroke-linejoin="round"/>
<path d="M39.7891 519.1C39.7891 519.1 107.404 507.682 218.756 498.4" stroke="#171717" stroke-width="3" stroke-linecap="round" stroke-linejoin="round"/>
<path d="M672.856 421.709C672.856 421.709 678.747 359.455 734.541 363.264C790.335 367.073 780.969 421.709 780.969 421.709" stroke="#171717" stroke-width="3" stroke-linecap="round" stroke-linejoin="round"/>
<path d="M733.844 320.303L731.419 339.359" stroke="#171717" stroke-width="3" stroke-linecap="round" stroke-linejoin="round"/>
<path d="M704.391 346.978L674.251 290.035" stroke="#171717" stroke-width="3" stroke-linecap="round" stroke-linejoin="round"/>
<path d="M677.363 363.097L664.541 352.18" stroke="#171717" stroke-width="3" stroke-linecap="round" stroke-linejoin="round"/>
<path d="M666.622 391.678L605.291 369.342" stroke="#171717" stroke-width="3" stroke-linecap="round" stroke-linejoin="round"/>
<path d="M768.501 354.605L800.379 310.945" stroke="#171717" stroke-width="3" stroke-linecap="round" stroke-linejoin="round"/>
<path d="M787.213 375.42L801.763 367.428" stroke="#171717" stroke-width="3" stroke-linecap="round" stroke-linejoin="round"/>
<path d="M796.216 395.143L848.888 392.404" stroke="#171717" stroke-width="3" stroke-linecap="round" stroke-linejoin="round"/>
<path d="M457.465 646.486C457.465 646.486 452.478 694.525 469.119 700.072C485.76 705.619 533.965 714.955 536.488 686.886" stroke="#171717" stroke-width="3" stroke-linecap="round" stroke-linejoin="round"/>
<path d="M540.5 639.791C540.5 639.791 590.384 701.809 608.41 700.415C626.436 699.021 662.4 678.708 658.1 663.746" stroke="#171717" stroke-width="3" stroke-linecap="round" stroke-linejoin="round"/>
<path d="M319.555 634.234L334.576 583.133" stroke="#171717" stroke-width="3" stroke-linecap="round" stroke-linejoin="round"/>
<path d="M463.229 850.46V770.887" stroke="#171717" stroke-width="3" stroke-linecap="round" stroke-linejoin="round"/>
<path d="M694.691 783.926L680.131 711.146" stroke="#171717" stroke-width="3" stroke-linecap="round" stroke-linejoin="round"/>
<path d="M232.066 203.312C219.872 211.226 209.643 221.817 202.159 234.279C194.676 246.742 190.134 260.748 188.879 275.23C187.869 288.086 190.579 302.885 201.479 309.774C211.241 315.942 225.747 312.632 231.866 302.838C236.566 295.323 235.138 283.546 227.09 279.838C220.136 276.632 211.323 281.098 208.111 288.049C204.899 295 206.374 303.387 210.047 310.107C213.72 316.827 219.34 322.233 224.814 327.588C230.288 332.943 235.802 338.493 239.173 345.369C246.206 359.716 241.714 378.746 229.007 388.433C224.227 392.077 218.263 394.487 212.275 393.963C206.287 393.439 200.431 389.546 198.643 383.808C196.855 378.07 200.136 370.932 205.962 369.454C211.788 367.976 218.451 373.791 216.977 379.618" stroke="#171717" stroke-width="3" stroke-linecap="round" stroke-linejoin="round"/>
<path d="M159.161 344.466L151.55 329.906" stroke="#171717" stroke-width="3" stroke-linecap="round" stroke-linejoin="round"/>
<path d="M148.451 342.275L161.81 332.844" stroke="#171717" stroke-width="3" stroke-linecap="round" stroke-linejoin="round"/>
<path d="M269.871 231.599L264.327 219.818" stroke="#171717" stroke-width="3" stroke-linecap="round" stroke-linejoin="round"/>
<path d="M260.79 230.074L272.559 223.812" stroke="#171717" stroke-width="3" stroke-linecap="round" stroke-linejoin="round"/>
<path d="M421.646 192.089L405.1 171.918" stroke="#171717" stroke-width="3" stroke-linecap="round" stroke-linejoin="round"/>
<path d="M442.737 190.645L437.72 110.352" stroke="#171717" stroke-width="3" stroke-linecap="round" stroke-linejoin="round"/>
<path d="M465.8 187.814L476.269 170.533" stroke="#171717" stroke-width="3" stroke-linecap="round" stroke-linejoin="round"/>
<path d="M676.389 431.236C712.591 426.582 749.249 426.706 785.419 431.607" stroke="#171717" stroke-width="3" stroke-linecap="round" stroke-linejoin="round"/>
<path d="M692.612 440.816L768.844 440.648" stroke="#171717" stroke-width="3" stroke-linecap="round" stroke-linejoin="round"/>
<path d="M711.092 452.12L743.433 452.086" stroke="#171717" stroke-width="3" stroke-linecap="round" stroke-linejoin="round"/>
<path d="M852.6 228.674C844.684 246.993 842.291 267.226 845.716 286.886C846.821 293.152 848.586 299.465 852.316 304.623C856.046 309.781 862.036 313.637 868.395 313.433C876.412 313.175 882.943 306.774 887.019 299.865C889.825 295.109 891.758 288.694 888.319 284.371C884.499 279.571 876.436 280.939 871.98 285.161C864.36 292.381 864.091 304.414 866.021 314.732C867.414 322.18 870.493 330.407 877.557 333.149C883.797 335.57 891.266 332.849 897.313 335.714C899.238 336.697 900.89 338.14 902.121 339.916C903.353 341.692 904.126 343.746 904.371 345.893C904.803 350.231 903.527 354.566 900.814 357.979C897.874 361.787 892.945 364.512 888.279 363.337C883.613 362.162 880.532 355.937 883.499 352.15" stroke="#171717" stroke-width="3" stroke-linecap="round" stroke-linejoin="round"/>
<path d="M578.189 339.622L564.789 314.672" stroke="#171717" stroke-width="3" stroke-linecap="round" stroke-linejoin="round"/>
<path d="M562.711 334.522L582.756 319.514" stroke="#171717" stroke-width="3" stroke-linecap="round" stroke-linejoin="round"/>
<path d="M608.117 290.731L607.688 278.717" stroke="#171717" stroke-width="3" stroke-linecap="round" stroke-linejoin="round"/>
<path d="M602.521 285.649L614.995 283.801" stroke="#171717" stroke-width="3" stroke-linecap="round" stroke-linejoin="round"/>
<path d="M899.613 264.849L893.69 254.176" stroke="#171717" stroke-width="3" stroke-linecap="round" stroke-linejoin="round"/>
<path d="M891.569 262.318L903.275 253.752" stroke="#171717" stroke-width="3" stroke-linecap="round" stroke-linejoin="round"/>
<path d="M500.955 389.28L497.807 384.1" stroke="#171717" stroke-width="3" stroke-linecap="round" stroke-linejoin="round"/>
<path d="M461.136 384.399L464.947 379.199" stroke="#171717" stroke-width="3" stroke-linecap="round" stroke-linejoin="round"/>
<path d="M428.907 393.076L425.094 387.533" stroke="#171717" stroke-width="3" stroke-linecap="round" stroke-linejoin="round"/>
<path d="M400.149 427.009C402.36 425.71 404.271 423.957 405.754 421.865" stroke="#171717" stroke-width="3" stroke-linecap="round" stroke-linejoin="round"/>
<path d="M383.1 396.614L379 392.4" stroke="#171717" stroke-width="3" stroke-linecap="round" stroke-linejoin="round"/>
<path d="M391.842 463.755L396 458.555" stroke="#171717" stroke-width="3" stroke-linecap="round" stroke-linejoin="round"/>
<path d="M360.218 432.999L355.408 427.764" stroke="#171717" stroke-width="3" stroke-linecap="round" stroke-linejoin="round"/>
<path d="M336.829 409.416L341.314 403.516" stroke="#171717" stroke-width="3" stroke-linecap="round" stroke-linejoin="round"/>
<path d="M325.6 441.321L316.688 434.949" stroke="#171717" stroke-width="3" stroke-linecap="round" stroke-linejoin="round"/>
<path d="M300.018 414.204L303.483 409.354" stroke="#171717" stroke-width="3" stroke-linecap="round" stroke-linejoin="round"/>
<path d="M473.262 683.044C488.102 680.216 503.261 679.442 518.312 680.744" stroke="#171717" stroke-width="3" stroke-linecap="round" stroke-linejoin="round"/>
<path d="M474.3 667.724C487.522 666.071 500.865 665.597 514.172 666.308" stroke="#171717" stroke-width="3" stroke-linecap="round" stroke-linejoin="round"/>
<path d="M594.863 671.258C607.19 663.853 620.271 657.783 633.884 653.15" stroke="#171717" stroke-width="3" stroke-linecap="round" stroke-linejoin="round"/>
<path d="M584.3 657.652C595.472 649.643 608.101 643.893 621.477 640.725" stroke="#171717" stroke-width="3" stroke-linecap="round" stroke-linejoin="round"/>
<path d="M210.792 474.168C213.719 464.923 218.55 456.393 224.972 449.127" stroke="#171717" stroke-width="3" stroke-linecap="round" stroke-linejoin="round"/>
<g opacity="0.1">
<path d="M399.614 362.339C401.747 352.009 400.573 340.913 400.437 330.439C400.295 319.494 399.847 308.428 400.418 297.492C400.628 293.467 401.163 288.672 404.851 286.238C408.539 283.804 414.095 284.147 418.29 283.838L434.843 282.613C440.078 282.225 445.79 282.75 449.343 278.231C450.643 276.572 451.051 274.222 449.343 272.596C444.698 268.174 438.743 269.679 432.894 270.131C426.532 270.621 420.152 271.005 413.8 271.61C402.817 272.655 393.7 277.272 390.982 288.674C388.339 299.764 389.956 312.348 390.35 323.625C390.789 336.157 390.166 350.291 394.098 362.339C394.916 364.845 399.008 365.267 399.612 362.339H399.614Z" fill="#171717"/>
</g>
<g opacity="0.1">
<path d="M373.9 435.392L373.654 434.912C372.497 432.655 369.925 432.124 367.669 432.477C350.005 435.24 332.569 440.916 315.725 446.807C307.804 449.578 311.212 462.262 319.214 459.463C336.191 453.525 353.563 448.736 370.487 442.698C371.593 442.366 372.565 441.693 373.264 440.775C373.963 439.857 374.353 438.741 374.378 437.587C374.398 436.827 374.234 436.074 373.9 435.392Z" fill="#171717"/>
</g>
<g opacity="0.1">
<path d="M242.821 444.038C239.88 446.815 236.663 448.751 234.139 451.997C231.608 455.263 229.291 458.69 227.201 462.255C222.964 469.218 220.109 476.933 218.794 484.978C216.415 501.072 222.423 515.103 235.524 524.737C248.625 534.371 265.366 536.578 281.224 536.532C299.295 536.478 317.379 534.322 335.162 531.222C355.313 527.709 375.169 522.744 394.921 517.471C403.948 515.061 400.121 501.059 391.058 503.459C353.014 513.535 312.834 523.842 273.129 521.572C257.679 520.689 239.315 515.185 232.329 499.808C228.289 490.908 229.61 480.753 233.499 472.064C235.486 467.788 237.827 463.687 240.499 459.803C243.199 455.755 244.782 451.542 247.091 447.333C247.405 446.762 247.505 446.098 247.372 445.46C247.24 444.823 246.884 444.253 246.368 443.855C245.853 443.457 245.212 443.256 244.562 443.289C243.911 443.321 243.294 443.585 242.821 444.033V444.038Z" fill="#171717"/>
</g>
<g opacity="0.1">
<path d="M395.562 370.16L395.572 369.498C395.572 368.505 395.309 367.529 394.812 366.67C394.314 365.811 393.598 365.098 392.737 364.604C391.876 364.11 390.9 363.852 389.907 363.856C388.914 363.859 387.94 364.125 387.082 364.626L386.424 364.917C385.505 365.454 384.742 366.223 384.214 367.148C383.686 368.073 383.41 369.12 383.414 370.185C383.418 371.25 383.702 372.295 384.238 373.215C384.773 374.136 385.542 374.9 386.465 375.43C387.389 375.96 388.436 376.237 389.501 376.235C390.566 376.233 391.611 375.951 392.533 375.417C393.454 374.883 394.219 374.116 394.751 373.194C395.283 372.271 395.562 371.225 395.562 370.16Z" fill="#171717"/>
</g>
</g>
<defs>
<linearGradient id="paint0_linear_510_1270" x1="727.208" y1="363.096" x2="727.127" y2="421.389" gradientUnits="userSpaceOnUse">
<stop stop-color="#B7B7B7"/>
<stop offset="1" stop-color="#6F6F6F"/>
</linearGradient>
<linearGradient id="paint1_linear_510_1270" x1="600.819" y1="639.787" x2="600.717" y2="709.401" gradientUnits="userSpaceOnUse">
<stop stop-color="#B7B7B7"/>
<stop offset="1" stop-color="#6F6F6F"/>
</linearGradient>
<linearGradient id="paint2_linear_510_1270" x1="429.299" y1="370.979" x2="429.197" y2="478.007" gradientUnits="userSpaceOnUse">
<stop stop-color="#B7B7B7"/>
<stop offset="1" stop-color="#6F6F6F"/>
</linearGradient>
<linearGradient id="paint3_linear_510_1270" x1="493.404" y1="642.387" x2="493.248" y2="714.529" gradientUnits="userSpaceOnUse">
<stop stop-color="#B7B7B7"/>
<stop offset="1" stop-color="#6F6F6F"/>
</linearGradient>
<linearGradient id="paint4_linear_510_1270" x1="415.504" y1="363.264" x2="415.498" y2="375.361" gradientUnits="userSpaceOnUse">
<stop stop-color="#B7B7B7"/>
<stop offset="1" stop-color="#6F6F6F"/>
</linearGradient>
<clipPath id="clip0_510_1270">
<rect width="884" height="744" fill="white" transform="translate(38 108)"/>
</clipPath>
</defs>
</svg>
