<svg width="960" height="960" viewBox="0 0 960 960" fill="none" xmlns="http://www.w3.org/2000/svg">
<g clip-path="url(#clip0_317_753)">
<path fill-rule="evenodd" clip-rule="evenodd" d="M561.207 375.425C563.433 346.759 574.09 273.8 625.019 244.836C623.057 213.988 615.982 183.492 608.953 153.315C607.311 146.25 605.349 138.656 599.717 134.094C593.803 129.277 586.073 129.333 578.403 131.261C573.988 132.441 569.679 133.986 565.519 135.879C558.686 138.89 551.423 142.373 545.67 147.079C540.942 150.947 537.239 155.631 535.652 161.56C532.993 171.463 537.15 181.508 541.154 191.178C541.779 192.689 542.401 194.191 542.992 195.682C554.817 225.516 554.565 260.529 539.774 289.008C524.983 317.487 495.083 338.284 463.011 339.573C463.816 334.645 459.077 330.216 454.15 329.445C450.753 329.058 447.312 329.481 444.11 330.679C442.6 331.164 441.113 331.737 439.647 332.31C434.023 334.491 428.028 335.758 422.204 336.987C411.789 339.187 401.923 341.27 395.717 348.269C393.935 350.288 392.521 352.605 391.54 355.113C390.655 357.32 390.341 359.724 390.018 362.189C389.219 368.293 388.371 374.777 378.7 379.613C356.137 390.9 239.831 408.014 133.29 402.633C133.573 407.533 133.863 412.441 134.161 417.357C135.204 435.02 136.244 452.691 137.28 470.369C137.385 472.134 137.488 473.9 137.591 475.666C137.703 477.592 137.815 479.518 137.93 481.445C177.608 480.712 217.294 478.367 256.979 476.022C296.66 473.677 336.34 471.333 376.008 470.6H376.019L414.846 581.907V581.918L481.436 578.192L482.163 573.024L494.055 488.524L494.066 488.513L509.782 376.891L561.207 375.425ZM556.844 203.2C556.504 202.353 555.541 201.941 554.694 202.281C553.847 202.621 553.435 203.584 553.775 204.431C559.227 218.022 561.722 232.617 561.096 247.247C560.469 261.877 556.734 276.206 550.14 289.281C543.546 302.355 534.244 313.876 522.852 323.077C511.46 332.277 498.24 338.947 484.07 342.642C483.187 342.872 482.657 343.775 482.888 344.659C483.118 345.542 484.021 346.071 484.904 345.841C499.528 342.028 513.172 335.144 524.929 325.649C536.686 316.153 546.287 304.263 553.092 290.769C559.898 277.276 563.752 262.488 564.399 247.389C565.045 232.29 562.47 217.226 556.844 203.2Z" fill="url(#paint0_linear_317_753)"/>
<path d="M849.993 743.023L854.423 882.572L705.815 886.805L849.993 743.023Z" fill="#171717"/>
<path d="M608.224 868.025L846.853 643.998L849.994 743.023L705.816 886.805L608.587 889.582V889.571L608.224 868.025Z" fill="url(#paint1_linear_317_753)"/>
<path d="M606.305 756.006L843.689 544.379L846.852 643.998L608.223 868.025L606.305 756.006Z" fill="#171717"/>
<path d="M573.583 573.034L816.808 368.162L838.079 367.556L840.504 443.8L604.486 650.203L603.142 571.38L573.583 573.034Z" fill="#171717"/>
<path d="M619.751 373.761L714.631 371.072L482.163 573.023L494.055 488.524L494.066 488.513L619.751 373.761Z" fill="#171717"/>
<path d="M816.809 368.162L573.584 573.034L481.437 578.191L482.164 573.023L714.632 371.072L777.056 369.286L816.809 368.162Z" fill="url(#paint2_linear_317_753)"/>
<path d="M561.207 375.425C563.433 346.759 574.09 273.799 625.019 244.836C625.438 251.436 625.625 258.061 625.526 264.696C624.975 302.322 606.316 347.222 580.78 374.874L561.207 375.425Z" fill="url(#paint3_linear_317_753)"/>
<path d="M431.62 210.108L432.348 210.373C438.881 204.08 445.417 197.78 451.954 191.473C453.233 190.238 455.349 188.973 456.594 190.26C456.858 190.615 457.048 191.018 457.154 191.448C457.26 191.877 457.279 192.323 457.211 192.76C456.704 203.021 450.477 212.4 442.311 218.627C439.568 220.703 436.63 222.508 433.538 224.016C427.358 226.951 420.866 229.177 414.185 230.651C404.185 233.009 393.972 234.409 384.053 237.087C379.358 238.365 374.233 240.36 372.261 244.813C370.685 248.373 371.61 252.483 372.561 256.264C375.019 266.039 377.444 275.683 379.861 285.271C372.819 289.713 365.769 294.158 358.712 298.607C359.25 291.172 361.977 284.062 366.548 278.174C360.808 283.434 353.674 286.927 346 288.237C351.974 278.825 358.124 268.862 358.752 257.731C359.347 247.172 354.883 237.066 350.508 227.431C362.951 223.715 375.397 219.997 387.847 216.277C390.162 215.594 392.587 214.833 394.262 213.092C397.91 209.301 396.334 203.184 395.849 197.949C395.276 191.608 396.694 185.246 399.905 179.749C401.558 176.928 404.842 174.095 407.73 175.616C409.548 176.575 410.198 178.816 410.551 180.829C411.915 188.545 411.633 196.462 409.724 204.062L410.242 204.194C414.392 193.463 420.499 183.595 428.251 175.094C429.706 173.507 431.678 171.832 433.739 172.416C436.109 173.088 436.715 176.116 436.77 178.588C437.042 189.324 435.295 200.016 431.62 210.108V210.108Z" fill="#171717"/>
<path d="M494.055 488.524L482.163 573.023L481.436 578.191L481.259 579.426" stroke="#171717" stroke-width="3.306" stroke-linecap="round" stroke-linejoin="round"/>
<path d="M608.586 889.571L608.223 868.025L606.305 756.006L604.486 650.203L603.142 571.38L573.583 573.034L481.436 578.191L414.846 581.917L241.385 591.615L226.606 900.46L608.586 889.582L705.815 886.805L854.423 882.572L849.993 743.023L846.852 643.998L843.689 544.379L840.504 443.8L838.079 367.556L816.808 368.162L777.055 369.286L714.631 371.072L619.751 373.761L580.78 374.874L561.207 375.425L509.782 376.891L494.066 488.513" stroke="#171717" stroke-width="3.306" stroke-linecap="round" stroke-linejoin="round"/>
<path d="M373.903 464.542L376.019 470.603L414.846 581.906" stroke="#171717" stroke-width="3.306" stroke-linecap="round" stroke-linejoin="round"/>
<path d="M341.743 259.418C338.635 259.418 250.72 270.318 250.72 270.318L267.053 289.759L235.941 294.432V316.21L209.49 304.538L200.926 323.219L186.147 303.767L165.923 316.21L159.7 299.094L137.923 302.213L143.367 283.543L120.024 272.643L139.477 259.418L125.465 241.531L142.581 238.412L135.581 215.851L151.143 220.524L153.48 199.518L172.921 210.407L192.373 192.52L202.491 207.301L226.606 195.63V214.301L249.166 207.301L237.494 232.201L254.61 232.972L247.61 248.534L341.743 259.418Z" stroke="#171717" stroke-width="3.306" stroke-linecap="round" stroke-linejoin="round"/>
<path d="M323.073 617.283C323.073 617.283 314.51 755.764 422.649 746.429C530.788 737.094 512.89 609.5 512.89 609.5" stroke="#171717" stroke-width="3.306" stroke-linecap="round" stroke-linejoin="round"/>
<path d="M705.815 886.805L849.993 743.023" stroke="#171717" stroke-width="3.306" stroke-linecap="round" stroke-linejoin="round"/>
<path d="M608.212 868.036L608.223 868.025L846.852 643.998" stroke="#171717" stroke-width="3.306" stroke-linecap="round" stroke-linejoin="round"/>
<path d="M606.294 756.017L606.305 756.006L843.689 544.379" stroke="#171717" stroke-width="3.306" stroke-linecap="round" stroke-linejoin="round"/>
<path d="M604.486 650.203L840.504 443.8" stroke="#171717" stroke-width="3.306" stroke-linecap="round" stroke-linejoin="round"/>
<path d="M573.583 573.034L816.808 368.162" stroke="#171717" stroke-width="3.306" stroke-linecap="round" stroke-linejoin="round"/>
<path d="M482.152 573.034L482.163 573.023L714.631 371.072" stroke="#171717" stroke-width="3.306" stroke-linecap="round" stroke-linejoin="round"/>
<path d="M494.056 488.524L494.067 488.513L619.752 373.761" stroke="#171717" stroke-width="3.306" stroke-linecap="round" stroke-linejoin="round"/>
<path d="M560.611 387.262C560.611 387.262 560.622 382.809 561.211 375.425C563.437 346.759 574.094 273.799 625.023 244.836C638.314 237.275 654.339 232.713 673.681 232.713C769.036 232.713 776.894 337.336 777.059 369.286C777.103 375.05 776.883 378.445 776.883 378.445" stroke="#171717" stroke-width="3.306" stroke-linecap="round" stroke-linejoin="round"/>
<path d="M376.008 470.6C296.667 472.066 217.282 479.979 137.93 481.445C137.709 477.753 137.5 474.061 137.28 470.369C136.244 452.691 135.204 435.02 134.161 417.357C133.863 412.441 133.573 407.533 133.29 402.633C239.831 408.014 356.137 390.9 378.7 379.613C392.278 372.824 388.465 362.784 391.54 355.113C392.521 352.605 393.935 350.288 395.717 348.269C405.393 337.358 423.964 338.394 439.647 332.31C441.113 331.737 442.6 331.164 444.11 330.679C447.312 329.481 450.753 329.058 454.15 329.445C459.077 330.216 463.816 334.645 463.011 339.573C495.083 338.284 524.983 317.487 539.774 289.008C554.565 260.529 554.817 225.516 542.992 195.682C538.616 184.65 532.577 173.011 535.652 161.56C537.239 155.631 540.942 150.947 545.67 147.079C551.423 142.373 558.686 138.89 565.519 135.879C569.679 133.986 573.988 132.441 578.403 131.261C586.073 129.333 593.803 129.277 599.717 134.094C605.349 138.656 607.311 146.25 608.953 153.315C615.985 183.49 623.06 213.986 625.022 244.834C625.441 251.434 625.628 258.059 625.529 264.694C624.978 302.32 606.319 347.22 580.783 374.872" stroke="#171717" stroke-width="3.306" stroke-linecap="round" stroke-linejoin="round"/>
<path d="M395.726 348.335C395.717 348.314 395.713 348.291 395.715 348.269C390.336 326.921 385.123 306.212 379.855 285.269C377.442 275.681 375.017 266.037 372.555 256.262C371.607 252.481 370.682 248.371 372.255 244.811C374.227 240.358 379.355 238.363 384.047 237.085C393.966 234.407 404.183 233.007 414.179 230.649C420.859 229.175 427.352 226.949 433.532 224.014C436.624 222.506 439.562 220.701 442.305 218.625C450.471 212.398 456.698 203.019 457.205 192.758C457.273 192.321 457.254 191.875 457.148 191.446C457.042 191.016 456.851 190.613 456.588 190.258C455.343 188.969 453.227 190.236 451.948 191.471C445.414 197.775 438.879 204.075 432.342 210.371" stroke="#171717" stroke-width="3.306" stroke-linecap="round" stroke-linejoin="round"/>
<path d="M431.356 210.847C431.444 210.604 431.543 210.362 431.62 210.108C435.292 200.02 437.038 189.332 436.767 178.599C436.712 176.13 436.106 173.099 433.736 172.427C431.675 171.843 429.703 173.518 428.248 175.105C420.496 183.607 414.389 193.474 410.239 204.205" stroke="#171717" stroke-width="3.306" stroke-linecap="round" stroke-linejoin="round"/>
<path d="M409.5 204.972C409.577 204.672 409.654 204.377 409.72 204.072C411.63 196.472 411.911 188.555 410.547 180.839C410.194 178.822 409.547 176.585 407.726 175.626C404.838 174.105 401.554 176.938 399.901 179.759C396.69 185.256 395.272 191.618 395.845 197.959C396.33 203.194 397.906 209.311 394.258 213.102C392.583 214.843 390.158 215.602 387.843 216.287C375.39 220.012 362.944 223.73 350.504 227.441C354.879 237.073 359.343 247.179 358.748 257.741C358.12 268.872 351.97 278.835 345.996 288.247C353.669 286.937 360.801 283.443 366.54 278.185C361.969 284.073 359.243 291.183 358.704 298.618C365.746 294.176 372.796 289.73 379.853 285.282C379.886 285.26 379.908 285.249 379.941 285.227" stroke="#171717" stroke-width="3.306" stroke-linecap="round" stroke-linejoin="round"/>
<path d="M426.65 234.388C420.963 236.878 415.273 239.369 409.578 241.86C413.369 252.507 417.157 263.15 420.941 273.788C421.712 275.948 422.495 278.288 421.9 280.5C421.305 282.712 418.671 284.523 416.665 283.4" stroke="#171717" stroke-width="3.306" stroke-linecap="round" stroke-linejoin="round"/>
<path d="M416.94 296.4C414.015 298.466 410.441 299.405 406.878 299.042C403.315 298.68 400.003 297.04 397.554 294.427C396.227 296.848 395.611 299.595 395.78 302.351C395.88 303.724 396.339 305.046 397.111 306.185C397.884 307.325 398.942 308.241 400.18 308.842C402.704 309.9 406.087 308.876 407.145 306.342" stroke="#171717" stroke-width="3.306" stroke-linecap="round" stroke-linejoin="round"/>
<path d="M401.577 256.827C399.922 255.972 398.01 255.756 396.207 256.222C394.403 256.687 392.834 257.802 391.801 259.351" stroke="#171717" stroke-width="3.306" stroke-linecap="round" stroke-linejoin="round"/>
<path d="M428.854 249.355C427.571 248.858 426.182 248.696 424.819 248.885C423.455 249.074 422.163 249.608 421.062 250.435" stroke="#171717" stroke-width="3.306" stroke-linecap="round" stroke-linejoin="round"/>
<path d="M433.549 224.028C439.82 244.198 445.187 264.612 449.649 285.272C450.431 288.872 451.038 293.119 448.558 295.864C446.541 298.112 443.124 298.509 440.799 300.437C436.776 303.766 437.426 310.137 439.399 314.963C441.372 319.789 444.337 324.596 443.808 329.787" stroke="#171717" stroke-width="3.306" stroke-linecap="round" stroke-linejoin="round"/>
<path d="M545.028 110.3C540.13 101.33 536.281 91.8259 533.555 81.9758C532.794 79.2098 532.739 75.2858 535.505 74.5478C537.754 73.9408 539.671 76.1678 540.905 78.1408C548.796 90.7234 555.237 104.159 560.105 118.191C556.259 107.124 552.409 96.0628 548.555 85.0068C547.608 82.3068 546.66 79.5068 546.836 76.6528C547.012 73.7988 548.621 70.8228 551.344 69.9298C553.879 69.1028 556.722 70.2928 558.574 72.2108C560.312 74.2389 561.63 76.5912 562.453 79.1318C569.066 96.0168 573.728 113.584 578.367 131.119" stroke="#171717" stroke-width="3.306" stroke-linecap="round" stroke-linejoin="round"/>
<path d="M545.028 110.3C547.309 113.728 549.442 117.243 551.428 120.847C549.126 117.431 546.993 113.916 545.028 110.3Z" stroke="#171717" stroke-width="3.306" stroke-linecap="round" stroke-linejoin="round"/>
<path d="M545.579 146.968C535.158 145.339 525.064 142.054 515.68 137.237C514.237 136.487 512.604 135.396 512.604 133.776C512.604 131.186 516.253 130.657 518.805 130.988C527.082 132.079 535.362 133.163 543.646 134.239C533.96 120.745 525.525 106.394 518.446 91.3671C517.222 88.7771 516.407 84.9751 518.953 83.6521C521.036 82.5721 523.417 84.3021 525.081 85.9521C532.539 93.3697 539.223 101.528 545.029 110.3" stroke="#171717" stroke-width="3.306" stroke-linecap="round" stroke-linejoin="round"/>
<path d="M69.4344 441.574L66.7344 440.813C64.591 440.072 62.3349 439.711 60.0674 439.744C58.9332 439.77 57.8245 440.086 56.8464 440.661C55.8684 441.236 55.0536 442.051 54.4794 443.029C53.3224 445.354 54.1794 448.197 55.5374 450.413C59.5164 456.913 67.0654 460.221 74.3504 462.459C94.3204 468.609 115.47 469.545 136.355 470.427" stroke="#171717" stroke-width="3.306" stroke-linecap="round" stroke-linejoin="round"/>
<path d="M69.4346 441.574C81.5695 446.891 94.3844 450.496 107.512 452.286C94.8156 448.715 82.1232 445.144 69.4346 441.574Z" stroke="#171717" stroke-width="3.306" stroke-linecap="round" stroke-linejoin="round"/>
<path d="M133.565 417.393C125.62 406.933 116.228 397.656 105.671 389.841C103.489 388.221 100.16 386.741 98.3419 388.772C96.7419 390.546 97.9009 393.323 99.1019 395.372C104.293 404.222 109.481 413.065 114.664 421.9C99.9447 416.313 84.8763 411.693 69.5549 408.07C67.5159 407.585 65.1239 407.199 63.5369 408.577C62.0929 409.822 61.9939 412.114 62.8099 413.834C63.7481 415.5 65.0799 416.911 66.6889 417.944C78.4269 426.563 92.7209 430.773 106.707 434.844C94.9469 432.011 83.1873 429.175 71.4279 426.336C68.7389 425.696 65.9509 425.036 63.2279 425.542C60.5049 426.048 57.8599 428.022 57.4859 430.766C56.9569 434.734 61.0449 437.632 64.6489 439.373C66.2249 440.134 67.8196 440.867 69.4329 441.573" stroke="#171717" stroke-width="3.306" stroke-linecap="round" stroke-linejoin="round"/>
<path d="M321.365 603.286C322.001 603.96 322.828 604.422 323.735 604.609C324.642 604.797 325.585 604.701 326.435 604.334C327.21 603.915 327.876 603.319 328.38 602.596C328.884 601.872 329.211 601.041 329.335 600.168C329.964 596.927 327.649 593.301 324.089 594.613C320.715 595.858 318.72 600.41 321.365 603.286Z" stroke="#171717" stroke-width="3.306" stroke-linecap="round" stroke-linejoin="round"/>
<path d="M508.25 590.381C508.376 591.275 508.723 592.124 509.26 592.849C509.797 593.575 510.507 594.155 511.325 594.536C511.916 594.731 512.544 594.787 513.159 594.699C513.775 594.611 514.362 594.382 514.874 594.029C515.9 593.307 516.616 592.226 516.88 591C517.464 588.465 515.392 584.134 512.67 583.462C508.967 582.534 507.71 587.791 508.25 590.381Z" stroke="#171717" stroke-width="3.306" stroke-linecap="round" stroke-linejoin="round"/>
<path d="M329.067 558.5L336.138 524.673" stroke="#171717" stroke-width="3.306" stroke-linecap="round" stroke-linejoin="round"/>
<path d="M290.247 565.423L278.101 504.837" stroke="#171717" stroke-width="3.306" stroke-linecap="round" stroke-linejoin="round"/>
<path d="M258.111 565.548L238.273 545.71" stroke="#171717" stroke-width="3.306" stroke-linecap="round" stroke-linejoin="round"/>
<path d="M742.729 223.756L772.514 140.7" stroke="#171717" stroke-width="3.306" stroke-linecap="round" stroke-linejoin="round"/>
<path d="M726.094 207.293L721.411 167.619" stroke="#171717" stroke-width="3.306" stroke-linecap="round" stroke-linejoin="round"/>
<path d="M775.177 240.1L805.49 213.229" stroke="#171717" stroke-width="3.306" stroke-linecap="round" stroke-linejoin="round"/>
<path d="M852.085 309.988L847.417 292.488" stroke="#171717" stroke-width="3.306" stroke-linecap="round" stroke-linejoin="round"/>
<path d="M838.157 303.221L863.806 294.98" stroke="#171717" stroke-width="3.306" stroke-linecap="round" stroke-linejoin="round"/>
<path d="M680.555 322.818L670.055 305.318" stroke="#171717" stroke-width="3.306" stroke-linecap="round" stroke-linejoin="round"/>
<path d="M664.3 320.6L681.788 306.576" stroke="#171717" stroke-width="3.306" stroke-linecap="round" stroke-linejoin="round"/>
<path d="M887.558 431.507C907.974 443.591 916.206 472.559 905.198 493.574C898.826 505.736 887.298 514.791 881.964 527.442C879.462 533.546 878.505 540.173 879.176 546.736C879.847 553.298 882.126 559.594 885.812 565.066C890.402 571.734 898.099 577.201 906.092 575.925C914.085 574.649 919.832 563.896 914.42 557.877C908.539 551.338 896.42 557.385 894.786 566.027C893.152 574.669 898.361 583.078 904.112 589.727C909.863 596.376 916.622 602.712 919.131 611.141C923.373 625.397 911.302 642.014 896.431 642.386" stroke="#171717" stroke-width="3.306" stroke-linecap="round" stroke-linejoin="round"/>
<path d="M165.4 616.68C155.441 628.767 147.97 642.705 143.419 657.691C138.868 672.677 137.326 688.415 138.881 704C140.533 719.719 148.681 737.967 164.424 739.414C172.442 740.151 181.233 734.746 182.207 726.753C183.181 718.76 173.494 711.023 166.598 715.181C158.787 719.892 161.728 731.94 166.677 739.602C172.888 749.216 180.782 757.742 186.126 767.863C191.47 777.984 193.966 790.606 188.7 800.763C183.434 810.92 168.336 815.886 159.944 808.103" stroke="#171717" stroke-width="3.306" stroke-linecap="round" stroke-linejoin="round"/>
<path d="M648.752 99.8003L658.4 80.1123" stroke="#171717" stroke-width="3.306" stroke-linecap="round" stroke-linejoin="round"/>
<path d="M665.633 96.0534L646.811 83.4424" stroke="#171717" stroke-width="3.306" stroke-linecap="round" stroke-linejoin="round"/>
<path d="M586.735 83.6114C586.045 79.2055 584.46 74.9876 582.078 71.2177C579.695 67.4478 576.566 64.2057 572.883 61.6914" stroke="#171717" stroke-width="3.306" stroke-linecap="round" stroke-linejoin="round"/>
<path d="M84.2112 490.108C75.5023 490.614 66.8155 488.792 59.0438 484.83C51.2722 480.867 44.696 474.906 39.9912 467.56" stroke="#171717" stroke-width="3.306" stroke-linecap="round" stroke-linejoin="round"/>
<path d="M344.854 192.516L351.078 182.403" stroke="#171717" stroke-width="3.306" stroke-linecap="round" stroke-linejoin="round"/>
<path d="M353.456 191.656L341.814 185.381" stroke="#171717" stroke-width="3.306" stroke-linecap="round" stroke-linejoin="round"/>
<path d="M542.816 193.634C560.29 175.229 583.428 163.211 608.534 159.5" stroke="#171717" stroke-width="3.306" stroke-linecap="round" stroke-linejoin="round"/>
<path d="M175.906 480.366L173.4 404.91" stroke="#171717" stroke-width="3.306" stroke-linecap="round" stroke-linejoin="round"/>
<path d="M399.98 364.438L400.641 355.094" stroke="#171717" stroke-width="3.306" stroke-linecap="round" stroke-linejoin="round"/>
<path d="M413.315 360.556L411.759 351.22" stroke="#171717" stroke-width="3.306" stroke-linecap="round" stroke-linejoin="round"/>
<path d="M425.9 355.865L424.313 346.534" stroke="#171717" stroke-width="3.306" stroke-linecap="round" stroke-linejoin="round"/>
<path d="M438.987 350.442L438.209 343.442" stroke="#171717" stroke-width="3.306" stroke-linecap="round" stroke-linejoin="round"/>
<path d="M451.436 346.552L449.101 338" stroke="#171717" stroke-width="3.306" stroke-linecap="round" stroke-linejoin="round"/>
<path d="M607.867 207.976L597.785 201.7" stroke="#171717" stroke-width="3.306" stroke-linecap="round" stroke-linejoin="round"/>
<path d="M565.018 208.075L568.908 197.184" stroke="#171717" stroke-width="3.306" stroke-linecap="round" stroke-linejoin="round"/>
<path d="M582.91 259.421L578.242 251.641" stroke="#171717" stroke-width="3.306" stroke-linecap="round" stroke-linejoin="round"/>
<path d="M549.458 311.544L558.015 305.32" stroke="#171717" stroke-width="3.306" stroke-linecap="round" stroke-linejoin="round"/>
<path d="M603.137 316.212L599.247 307.654" stroke="#171717" stroke-width="3.306" stroke-linecap="round" stroke-linejoin="round"/>
<path d="M521.417 355.8L531.507 351.85" stroke="#171717" stroke-width="3.306" stroke-linecap="round" stroke-linejoin="round"/>
<path d="M475.551 390.9L470.884 383.121" stroke="#171717" stroke-width="3.306" stroke-linecap="round" stroke-linejoin="round"/>
<path d="M468.55 442.242L477.107 439.13" stroke="#171717" stroke-width="3.306" stroke-linecap="round" stroke-linejoin="round"/>
<path d="M432.046 421.948L424.252 414.961" stroke="#171717" stroke-width="3.306" stroke-linecap="round" stroke-linejoin="round"/>
<path d="M431.208 485.807L440.543 483.474" stroke="#171717" stroke-width="3.306" stroke-linecap="round" stroke-linejoin="round"/>
<path d="M394.645 456.245L387.645 450.021" stroke="#171717" stroke-width="3.306" stroke-linecap="round" stroke-linejoin="round"/>
<path d="M468.072 506.9L471.924 493.663" stroke="#171717" stroke-width="3.306" stroke-linecap="round" stroke-linejoin="round"/>
<path d="M445.989 551.934L438.209 547.266" stroke="#171717" stroke-width="3.306" stroke-linecap="round" stroke-linejoin="round"/>
<path d="M341.742 444.575C342.792 440.672 344.955 437.158 347.966 434.462" stroke="#171717" stroke-width="3.306" stroke-linecap="round" stroke-linejoin="round"/>
<path d="M370.439 412.779L363.4 406.6" stroke="#171717" stroke-width="3.306" stroke-linecap="round" stroke-linejoin="round"/>
<path d="M299.732 438.352L291.175 434.462" stroke="#171717" stroke-width="3.306" stroke-linecap="round" stroke-linejoin="round"/>
<path d="M261.669 421.288L269.435 412.718" stroke="#171717" stroke-width="3.306" stroke-linecap="round" stroke-linejoin="round"/>
<path d="M259.279 469.47L253.056 463.247" stroke="#171717" stroke-width="3.306" stroke-linecap="round" stroke-linejoin="round"/>
<path d="M211.975 441.6L219.725 433.015" stroke="#171717" stroke-width="3.306" stroke-linecap="round" stroke-linejoin="round"/>
<path d="M197.041 466.358L190.818 461.691" stroke="#171717" stroke-width="3.306" stroke-linecap="round" stroke-linejoin="round"/>
<path d="M190.04 427.46L197.819 422.015" stroke="#171717" stroke-width="3.306" stroke-linecap="round" stroke-linejoin="round"/>
<path d="M161.255 467.914H145.7" stroke="#171717" stroke-width="3.306" stroke-linecap="round" stroke-linejoin="round"/>
<path d="M162.027 452.479L147.243 451.755" stroke="#171717" stroke-width="3.306" stroke-linecap="round" stroke-linejoin="round"/>
<path d="M161.255 436.018L147.255 437.574" stroke="#171717" stroke-width="3.306" stroke-linecap="round" stroke-linejoin="round"/>
<path d="M162.044 419.857L149.593 420.583" stroke="#171717" stroke-width="3.306" stroke-linecap="round" stroke-linejoin="round"/>
<path d="M549.459 176.957L544.013 167.621" stroke="#171717" stroke-width="3.306" stroke-linecap="round" stroke-linejoin="round"/>
<path d="M564.989 168.412L559.548 155.962" stroke="#171717" stroke-width="3.306" stroke-linecap="round" stroke-linejoin="round"/>
<path d="M580.555 158.3L573.555 146.628" stroke="#171717" stroke-width="3.306" stroke-linecap="round" stroke-linejoin="round"/>
<path d="M593.69 152.118L587.49 139.658" stroke="#171717" stroke-width="3.306" stroke-linecap="round" stroke-linejoin="round"/>
<path fill-rule="evenodd" clip-rule="evenodd" d="M254.61 232.972L237.494 232.201L249.166 207.301L226.606 214.301V195.63L202.491 207.301L192.373 192.52L172.921 210.407L153.48 199.518L151.143 220.524L135.581 215.851L142.581 238.412L125.465 241.531L139.477 259.418L120.024 272.643L143.367 283.543L137.923 302.213L159.7 299.094L165.923 316.21L186.147 303.767L200.926 323.219L209.49 304.538L235.939 316.215V294.437L267.051 289.764L250.718 270.323C250.718 270.323 338.633 259.423 341.741 259.423L247.61 248.534L254.61 232.972ZM173.712 226.449C173.195 225.696 172.166 225.505 171.413 226.022C170.661 226.539 170.47 227.568 170.987 228.321L207.323 281.201C207.84 281.953 208.869 282.144 209.622 281.627C210.374 281.11 210.565 280.081 210.048 279.329L173.712 226.449ZM169.42 253.108C171.849 252.486 174.424 252.824 176.61 254.052C176.888 254.208 177.103 254.433 177.247 254.693C177.541 254.735 177.828 254.856 178.073 255.06C179.999 256.665 181.233 258.95 181.517 261.441C181.802 263.932 181.115 266.436 179.6 268.434C178.085 270.431 175.858 271.768 173.383 272.166C170.908 272.563 168.374 271.992 166.31 270.569C164.245 269.147 162.808 266.984 162.298 264.529C161.788 262.075 162.243 259.518 163.57 257.391C164.896 255.263 166.992 253.729 169.42 253.108ZM175.568 257.13C175.37 257.102 175.175 257.038 174.99 256.934C173.546 256.123 171.845 255.899 170.24 256.31C168.636 256.721 167.251 257.735 166.375 259.14C165.499 260.546 165.198 262.235 165.535 263.856C165.872 265.478 166.821 266.907 168.185 267.847C169.549 268.787 171.223 269.164 172.858 268.902C174.494 268.639 175.965 267.756 176.966 266.436C177.967 265.116 178.42 263.462 178.233 261.816C178.045 260.17 177.23 258.66 175.957 257.6C175.794 257.465 175.665 257.305 175.568 257.13ZM204.908 236.776C205.035 236.772 205.157 236.753 205.275 236.722C205.448 237.21 205.847 237.611 206.384 237.762C208.094 238.247 209.56 239.357 210.491 240.872C211.411 242.371 211.74 244.158 211.416 245.885C210.941 247.586 209.863 249.058 208.382 250.023C206.9 250.989 205.117 251.381 203.368 251.127C201.636 250.73 200.101 249.728 199.041 248.301C197.981 246.872 197.465 245.112 197.588 243.338C197.844 241.569 198.711 239.945 200.039 238.747C201.379 237.537 203.103 236.839 204.908 236.776ZM204.792 233.472C205.532 233.446 206.176 233.911 206.409 234.574C206.687 234.5 206.988 234.498 207.284 234.582C209.794 235.292 211.944 236.92 213.308 239.143C214.672 241.365 215.151 244.019 214.649 246.578C214.642 246.616 214.633 246.654 214.623 246.691C213.944 249.201 212.365 251.373 210.187 252.793C208.009 254.212 205.384 254.78 202.814 254.387C202.778 254.382 202.742 254.375 202.707 254.367C200.176 253.807 197.932 252.353 196.387 250.271C194.842 248.19 194.099 245.622 194.295 243.037C194.296 243.02 194.298 243.002 194.3 242.984C194.301 242.968 194.303 242.952 194.306 242.936C194.66 240.376 195.906 238.023 197.824 236.292C199.742 234.561 202.21 233.562 204.792 233.472Z" fill="#171717"/>
<path d="M394.444 58.915C399.06 61.4577 403.059 64.9847 406.158 69.2459C409.258 73.507 411.382 78.398 412.38 83.5718C413.377 88.7457 413.225 94.0757 411.932 99.1839C410.64 104.292 408.239 109.053 404.9 113.13C399.386 119.862 390.414 124.605 382 122.38C373.586 120.155 368.078 108.914 373.436 102.057C378.345 95.775 389.455 97.302 393.836 103.966C398.217 110.63 396.391 120.086 391.087 126.038C385.783 131.99 377.761 134.885 369.848 135.856C361.935 136.827 353.926 136.101 345.953 136.017C337.98 135.933 329.777 136.55 322.581 139.983C309.839 146.062 302.232 161.344 305.063 175.175" stroke="#171717" stroke-width="3.306" stroke-linecap="round" stroke-linejoin="round"/>
<path d="M339.8 112.775L345.635 101.106" stroke="#171717" stroke-width="3.306" stroke-linecap="round" stroke-linejoin="round"/>
<path d="M346.968 111.374L334.09 102.1" stroke="#171717" stroke-width="3.306" stroke-linecap="round" stroke-linejoin="round"/>
<path d="M274.313 137.689L281.413 143.698C281.627 143.88 281.781 144.123 281.852 144.394C281.924 144.665 281.911 144.952 281.815 145.215C281.719 145.479 281.545 145.707 281.316 145.868C281.086 146.03 280.813 146.117 280.532 146.118L271.232 146.166C270.961 146.168 270.696 146.249 270.471 146.401C270.246 146.553 270.071 146.768 269.968 147.019L266.446 155.619C266.34 155.879 266.157 156.1 265.921 156.252C265.685 156.404 265.409 156.481 265.128 156.471C264.848 156.461 264.577 156.366 264.353 156.198C264.128 156.03 263.961 155.797 263.872 155.53L260.954 146.703C260.869 146.446 260.71 146.219 260.496 146.052C260.283 145.885 260.025 145.785 259.754 145.764L250.483 145.074C250.203 145.054 249.937 144.948 249.719 144.771C249.501 144.593 249.343 144.354 249.265 144.084C249.188 143.814 249.195 143.527 249.286 143.262C249.376 142.996 249.546 142.765 249.772 142.598L257.266 137.098C257.485 136.938 257.651 136.716 257.744 136.461C257.836 136.206 257.852 135.929 257.787 135.665L255.578 126.633C255.512 126.361 255.531 126.075 255.632 125.813C255.733 125.551 255.912 125.327 256.145 125.17C256.377 125.013 256.652 124.932 256.933 124.936C257.213 124.94 257.486 125.03 257.713 125.193L265.263 130.619C265.484 130.778 265.746 130.867 266.017 130.877C266.289 130.886 266.557 130.815 266.787 130.672L274.694 125.781C274.933 125.634 275.211 125.563 275.491 125.578C275.771 125.594 276.04 125.694 276.261 125.867C276.482 126.04 276.645 126.276 276.728 126.544C276.811 126.812 276.81 127.099 276.724 127.366L273.896 136.223C273.813 136.482 273.808 136.759 273.883 137.02C273.957 137.281 274.107 137.514 274.313 137.689V137.689Z" fill="#171717"/>
<path d="M192.566 643.994L197.232 647.945C197.374 648.064 197.477 648.224 197.525 648.402C197.573 648.581 197.565 648.77 197.501 648.944C197.438 649.118 197.323 649.268 197.171 649.374C197.019 649.48 196.838 649.537 196.653 649.536L190.54 649.567C190.362 649.568 190.187 649.622 190.039 649.721C189.891 649.821 189.777 649.963 189.709 650.128L187.393 655.786C187.325 655.959 187.204 656.105 187.049 656.207C186.894 656.308 186.711 656.359 186.526 656.352C186.341 656.346 186.162 656.282 186.014 656.171C185.867 656.059 185.757 655.904 185.7 655.727L183.782 649.927C183.727 649.758 183.622 649.609 183.481 649.499C183.34 649.389 183.17 649.323 182.992 649.31L176.892 648.856C176.707 648.844 176.531 648.775 176.387 648.659C176.243 648.543 176.138 648.385 176.087 648.207C176.036 648.028 176.041 647.839 176.101 647.664C176.162 647.489 176.275 647.337 176.425 647.228L181.352 643.609C181.496 643.504 181.606 643.358 181.667 643.191C181.728 643.023 181.738 642.841 181.695 642.667L180.243 636.729C180.199 636.55 180.21 636.362 180.276 636.19C180.342 636.018 180.46 635.87 180.612 635.767C180.765 635.664 180.946 635.61 181.13 635.612C181.315 635.615 181.494 635.675 181.643 635.782L186.607 639.35C186.752 639.454 186.924 639.513 187.102 639.519C187.28 639.525 187.456 639.478 187.607 639.384L192.807 636.168C192.964 636.07 193.148 636.021 193.333 636.031C193.518 636.04 193.696 636.106 193.842 636.22C193.988 636.334 194.095 636.491 194.149 636.668C194.203 636.846 194.2 637.035 194.142 637.211L192.283 643.034C192.23 643.204 192.229 643.386 192.279 643.557C192.329 643.728 192.429 643.88 192.566 643.994V643.994Z" fill="#171717"/>
<g opacity="0.1">
<path d="M240.655 596.407C238.83 600.807 238.95 605.745 238.614 610.443C238.257 615.431 237.777 620.406 237.555 625.402L236.315 653.326C235.473 672.268 234.881 691.22 234.224 710.17L230.242 824.856C229.492 846.468 228.607 868.072 227.705 889.679C227.135 903.347 248.635 903.39 248.986 889.679C250.939 813.544 254.373 737.442 256.121 661.304L256.854 629.391C256.977 624.064 256.961 618.762 256.911 613.435C256.858 607.803 257.497 601.81 255.661 596.407C253.033 588.672 243.544 589.431 240.655 596.407V596.407Z" fill="#171717"/>
</g>
<g opacity="0.1">
<path d="M375.335 465.877C374.863 471.096 377.118 476.548 378.651 481.482C380.219 486.529 382.04 491.502 383.773 496.496C387.031 505.878 390.457 515.19 393.907 524.503L404.258 552.45L409.778 567.35C412.116 573.662 413.533 578.114 420.278 580.689C423.853 582.055 428.678 579.801 430.442 576.553C433.757 570.442 431.542 565.873 429.31 559.914L423.729 545.026L413.264 517.11C409.772 507.793 406.225 498.51 402.542 489.266C400.512 484.166 398.542 479.045 396.326 474.028C394.216 469.262 392.443 464.04 388.626 460.371C383.462 455.41 375.937 459.305 375.343 465.871L375.335 465.877Z" fill="#171717"/>
</g>
<g opacity="0.1">
<path d="M433.086 224.46C427.296 222.008 419.786 224.96 413.952 226.419C407.053 228.152 400.153 229.885 393.252 231.619C382.252 234.383 370.594 238.788 372.043 252.398C373.629 267.292 377.426 281.879 380.728 296.454L391.059 342.062C391.559 344.275 393.819 346.838 396.166 347.169C398.281 347.469 399.941 347.618 401.8 346.432C403.164 345.589 404.224 344.335 404.828 342.851C405.431 341.367 405.548 339.729 405.16 338.174C399.18 312.08 394.237 285.444 386.736 259.745C385.516 255.567 381.681 249.154 386.079 245.971C390.111 243.053 396.123 242.091 400.765 240.626C406.933 238.678 413.122 236.785 419.273 234.781C424.244 233.162 430.698 231.801 433.841 227.35C434.123 226.867 434.202 226.291 434.06 225.75C433.918 225.209 433.567 224.747 433.084 224.464L433.086 224.46Z" fill="#171717"/>
</g>
<g opacity="0.1">
<path d="M505.885 380.468C502.933 387.801 503.021 396.649 502.094 404.45C501.16 412.315 500.335 420.188 499.479 428.062C497.805 443.468 495.977 458.855 493.996 474.224C490.039 504.944 486.021 535.885 480.132 566.303C479.05 571.89 481.707 577.686 487.498 579.277C492.455 580.639 499.649 577.583 500.472 571.911C505.105 539.982 510.483 508.201 514.572 476.186C516.579 460.492 518.427 444.779 520.116 429.045C520.96 421.181 521.776 413.321 522.383 405.435C523.017 397.179 524.416 388.653 522.696 380.468C521.916 376.756 517.943 374.068 514.288 374.068C510.159 374.068 507.334 376.861 505.881 380.468H505.885Z" fill="#171717"/>
</g>
</g>
<defs>
<linearGradient id="paint0_linear_317_753" x1="379.155" y1="130.037" x2="378.085" y2="579.455" gradientUnits="userSpaceOnUse">
<stop stop-color="#B7B7B7"/>
<stop offset="1" stop-color="#6F6F6F"/>
</linearGradient>
<linearGradient id="paint1_linear_317_753" x1="729.109" y1="643.998" x2="728.466" y2="888.243" gradientUnits="userSpaceOnUse">
<stop stop-color="#B7B7B7"/>
<stop offset="1" stop-color="#6F6F6F"/>
</linearGradient>
<linearGradient id="paint2_linear_317_753" x1="649.123" y1="368.162" x2="648.784" y2="577.047" gradientUnits="userSpaceOnUse">
<stop stop-color="#B7B7B7"/>
<stop offset="1" stop-color="#6F6F6F"/>
</linearGradient>
<linearGradient id="paint3_linear_317_753" x1="593.38" y1="244.836" x2="592.697" y2="374.71" gradientUnits="userSpaceOnUse">
<stop stop-color="#B7B7B7"/>
<stop offset="1" stop-color="#6F6F6F"/>
</linearGradient>
<clipPath id="clip0_317_753">
<rect width="884" height="846" fill="white" transform="translate(38 57)"/>
</clipPath>
</defs>
</svg>
