<svg width="960" height="960" viewBox="0 0 960 960" fill="none" xmlns="http://www.w3.org/2000/svg">
<g clip-path="url(#clip0_38_4072)">
<path d="M814.282 811.151C817.425 810.584 820.532 809.838 823.589 808.915C830.648 806.778 838.243 803.915 845.389 803.93V804.105C854.822 810.639 855.046 824.918 850.489 835.45C842.281 854.427 822.989 866.47 803.277 872.704C783.565 878.938 767.223 883.536 747.121 888.42L746.996 888.633C742.658 886.048 738.63 882.975 734.99 879.475C726.508 871.417 719.911 861.648 713.378 851.941C736.943 844.278 757.624 829.635 772.678 809.952L772.84 810.077C786.472 812.95 800.639 813.649 814.282 811.151Z" fill="url(#paint0_linear_38_4072)"/>
<path d="M596.328 493.1L608.1 616.408C604.064 617.808 600.042 619.194 596.006 620.581C593.32 621.518 590.622 622.443 587.936 623.367L587.061 623.405C586.637 613.423 586.341 603.433 586.174 593.434C585.812 571.983 586.045 550.528 586.874 529.07C586.986 525.984 587.124 522.886 587.261 519.8C587.898 505.92 587.636 489.5 576.28 481.471C567.972 475.599 556.78 476.686 546.68 478.023C508.114 483.145 471.897 488.005 433.318 493.115L433.218 492.99C417.119 505.813 406.131 523.966 402.235 544.174C401.583 547.728 401.174 551.322 401.011 554.93C400.061 576.654 407.282 597.945 421.25 614.609C422.936 616.596 424.71 618.509 426.584 620.319C425.974 623.311 425.096 626.242 423.961 629.076C419.232 641.091 410.342 651.006 398.912 657.011C396.56 658.235 394.111 659.263 391.591 660.084C380.44 648.842 371.357 635.724 364.756 621.331C356.156 602.706 351.543 582.489 351.214 561.976C350.992 549.537 352.421 537.124 355.461 525.059C357.251 518.025 359.612 511.148 362.52 504.496C379.036 466.604 412.58 436.146 452.307 424.365C459.861 422.143 467.575 420.51 475.382 419.481C496.245 416.645 517.696 417.644 538.647 420.305C541.257 420.643 543.881 420.989 546.517 421.342C561.946 423.391 577.617 425.242 592.392 420.817C616.016 413.746 632.607 391.496 639.628 367.859C646.637 344.259 645.562 317.975 644.55 293.359C663.677 283.253 688.863 280.959 709.277 288.112C703.443 333.949 697.609 379.79 691.777 425.636C690.128 438.578 688.177 452.236 680.046 462.436C672.225 472.243 659.932 477.228 647.989 481.088C631.429 486.447 614.456 490.434 597.242 493.007L596.328 493.1Z" fill="url(#paint1_linear_38_4072)"/>
<path d="M685.229 159.963L684.954 160.125L671.799 159.975C671.149 159.175 670.487 158.364 669.825 157.575C666.025 153.002 662.052 148.562 657.906 144.257L658.494 143.682L670.037 136.749C675.459 144.296 680.523 152.034 685.229 159.963Z" fill="url(#paint2_linear_38_4072)"/>
<path d="M669.825 157.577L669.7 157.677C663.895 156.109 657.872 155.509 651.872 155.903L651.797 155.99C650.81 155.09 649.811 154.204 648.797 153.317C645.524 150.431 642.176 147.629 638.753 144.909L638.79 144.859C641.226 140.686 643.762 136.988 646.198 132.816C650.234 136.514 654.136 140.328 657.904 144.259C662.053 148.569 666.027 153.009 669.825 157.577Z" fill="url(#paint3_linear_38_4072)"/>
<path d="M676.409 233.684L675.946 233.884C675.846 233.734 675.734 233.597 675.621 233.459C673.621 231.136 670.137 230.923 667.089 231.211C662.279 231.674 657.582 232.946 653.196 234.971C652.522 235.283 651.847 235.621 651.185 235.983L650.573 234.996C645.073 233.296 641.341 227.463 641.59 221.716C641.805 218.839 642.787 216.071 644.432 213.701C646.078 211.331 648.327 209.444 650.948 208.236C653.589 207.08 656.447 206.502 659.33 206.541C662.213 206.58 665.054 207.234 667.663 208.461C672.388 210.526 676.125 214.347 678.083 219.117C679.021 221.496 679.359 224.069 679.067 226.61C678.775 229.151 677.862 231.58 676.409 233.684V233.684Z" fill="url(#paint4_linear_38_4072)"/>
<path d="M648.8 153.318L648.563 153.592C641.442 153.118 634.325 152.647 627.212 152.181L626.925 152.518C625.463 151.269 624.014 150.044 622.54 148.818L622.777 148.531C624.139 144.331 625.497 140.129 626.85 135.925C630.897 138.811 634.865 141.805 638.756 144.908C642.179 147.632 645.527 150.436 648.8 153.318Z" fill="url(#paint5_linear_38_4072)"/>
<path d="M639.242 179.952L639.078 180.227C627.2 181.629 615.422 183.773 603.812 186.648L603.562 186.548C606.348 179.514 609.134 172.531 611.932 165.748C621.355 169.84 630.481 174.586 639.242 179.952V179.952Z" fill="url(#paint6_linear_38_4072)"/>
<path d="M633.145 157.852L632.683 158.389C622.707 157.489 612.663 157.665 602.725 158.913C605.525 152.38 608.159 145.758 610.708 139.149C614.68 142.335 618.623 145.559 622.539 148.819C624.013 150.043 625.462 151.268 626.924 152.519C629.01 154.266 631.084 156.053 633.145 157.852Z" fill="url(#paint7_linear_38_4072)"/>
<path d="M596.441 204.575C597.139 202.801 597.843 201.023 598.552 199.241L598.614 199.266C600.802 208.961 604.838 218.144 610.5 226.313L610.425 226.588C603.455 224.588 596.287 223.356 589.05 222.915C591.518 216.919 593.98 210.772 596.441 204.575Z" fill="url(#paint8_linear_38_4072)"/>
<path d="M598.552 199.241C597.84 201.027 597.136 202.805 596.44 204.575L596.315 204.526C592.205 201.24 588.507 198.854 584.396 195.568C587.857 189.796 591.056 183.862 594.054 177.815L594.117 177.853C595.791 184.174 597.461 190.5 599.127 196.83L599.451 196.955C599.15 197.719 598.85 198.481 598.552 199.241Z" fill="url(#paint9_linear_38_4072)"/>
<path d="M549.729 664.569C552.699 664.57 555.625 665.291 558.255 666.67C560.886 668.049 563.143 670.046 564.833 672.488C566.523 674.931 567.595 677.747 567.958 680.695C568.321 683.642 567.964 686.634 566.918 689.414C565.871 692.194 564.166 694.678 561.949 696.654C559.731 698.631 557.068 700.04 554.187 700.761C551.305 701.483 548.292 701.495 545.405 700.796C542.518 700.098 539.844 698.71 537.611 696.751C540.115 693.044 541.181 688.551 540.608 684.114C540.036 679.677 537.864 675.601 534.5 672.651C536.185 670.162 538.454 668.124 541.109 666.715C543.764 665.306 546.723 664.569 549.729 664.569V664.569Z" fill="#171717"/>
<path d="M544.6 404.851C547.173 406.713 548.3 410.086 548.247 413.272C548.179 416.042 547.595 418.775 546.523 421.33V421.342C543.887 420.992 541.263 420.647 538.653 420.305C517.702 417.644 496.253 416.645 475.388 419.481L475.363 419.281C471.778 416.145 473.402 409.774 477.287 407C481.087 404.289 486.032 404.039 490.717 403.939H491.017L524.273 403.265L535.355 403.04C538.548 402.977 542 402.977 544.6 404.851Z" fill="url(#paint10_linear_38_4072)"/>
<path d="M531.352 682.934C531.35 685.55 531.907 688.137 532.987 690.52C534.066 692.903 535.643 695.027 537.611 696.751C535.522 699.844 532.54 702.227 529.063 703.584C525.585 704.94 521.777 705.205 518.146 704.344C514.514 703.483 511.23 701.535 508.733 698.762C506.235 695.988 504.641 692.52 504.163 688.818C503.685 685.116 504.346 681.357 506.058 678.04C507.769 674.723 510.451 672.006 513.745 670.251C517.038 668.495 520.789 667.785 524.497 668.213C528.205 668.642 531.694 670.19 534.5 672.651C532.444 675.686 531.347 679.268 531.352 682.934Z" fill="url(#paint11_linear_38_4072)"/>
<path d="M393.516 740.34L513.374 729.846C509.302 771.723 481.43 809.452 444.663 829.928C407.771 850.466 363.108 854.652 321.731 846.281C316.231 845.169 310.388 843.633 306.74 839.36C302.317 834.201 302.417 826.655 302.904 819.86C303.74 807.966 305.002 796.101 306.69 784.267C307.464 778.82 308.651 772.886 311.499 768.351C312.861 766.083 314.773 764.197 317.059 762.866C321.969 760.055 328.003 760.493 333.659 760.518C355.225 760.56 376.23 753.642 393.551 740.791L393.516 740.34Z" fill="#171717"/>
<path d="M506.891 368.86L506.378 369.022C504.571 369.469 502.991 370.563 501.934 372.096C500.878 373.629 500.419 375.495 500.644 377.343C500.148 377.008 499.702 376.604 499.32 376.143C497.096 373.47 496.871 369.535 498.008 366.249C499.315 363.006 501.38 360.123 504.03 357.841C503.465 359.765 503.433 361.805 503.937 363.746C504.441 365.686 505.462 367.454 506.891 368.86V368.86Z" fill="#171717"/>
<path d="M502.73 208.573L502.343 209.523C495.479 209.522 488.626 210.049 481.843 211.097L481.831 210.972C484.356 203.225 488.72 196.203 494.548 190.508L494.686 190.446C497.371 196.443 500.044 202.464 502.73 208.573Z" fill="url(#paint12_linear_38_4072)"/>
<path d="M488.351 176.241L488.126 176.341C477.96 173.734 468.306 169.434 459.567 163.623L459.517 163.299C466.88 162.057 474.337 161.442 481.805 161.462C483.991 166.434 486.173 171.361 488.351 176.241Z" fill="url(#paint13_linear_38_4072)"/>
<path d="M484.778 299.772L484.803 300.472C482.129 300.548 479.455 300.627 476.782 300.71C476.045 293.902 468.237 288.692 461.416 289.429C463.548 288.067 465.984 287.254 468.507 287.063C471.029 286.871 473.56 287.307 475.873 288.331C478.186 289.355 480.21 290.936 481.764 292.932C483.318 294.929 484.353 297.279 484.778 299.772V299.772Z" fill="#171717"/>
<path d="M476.832 308.956L476.32 308.968C473.385 308.49 470.376 308.836 467.626 309.965C464.875 311.095 462.492 312.965 460.741 315.368C460.56 313.274 460.841 311.166 461.564 309.193C462.287 307.22 463.435 305.43 464.926 303.949C467.75 301.176 471.898 300.563 475.858 300.901C476.095 300.913 476.32 300.938 476.558 300.963L476.683 301.538L476.832 308.956Z" fill="#171717"/>
<path d="M475.869 300.735C476.169 300.723 476.481 300.723 476.781 300.71C479.455 300.623 482.129 300.544 484.802 300.473C495.309 300.161 505.811 299.857 516.309 299.561C524.317 299.324 532.5 299.061 539.971 296.175C547.442 293.289 554.176 287.243 555.65 279.375L555.787 279.225C557.197 280.443 558.298 281.979 558.998 283.706C559.699 285.432 559.979 287.3 559.817 289.157C559.655 291.013 559.055 292.804 558.065 294.383C557.076 295.962 555.726 297.284 554.126 298.24L554.863 298.302C560.897 298.102 566.927 297.906 572.953 297.715L573.453 298.015C573.791 304.286 568.881 309.883 563.109 312.369C558.449 314.381 553.315 314.793 548.193 314.893C546.993 314.905 545.781 314.918 544.582 314.918C534.614 314.943 524.644 314.964 514.674 314.98C508.939 314.993 502.843 315.105 498.033 318.241C492.711 321.714 490.133 328.248 489.45 334.569C488.767 340.89 489.613 347.275 489.538 353.634C489.513 354.921 489.45 356.22 489.338 357.519C488.851 362.619 487.414 367.663 484.138 371.519C480.015 376.354 471.969 379.727 466.772 376.066C472.931 373.655 474.772 365.934 475.472 359.351C477.221 342.622 477.146 325.769 476.833 308.951L476.683 301.53L476.558 300.955C476.321 300.93 476.096 300.905 475.858 300.893L475.869 300.735Z" fill="#171717"/>
<path d="M460.816 180.74C462.117 182.758 462.897 185.068 463.085 187.462C463.272 189.857 462.862 192.26 461.891 194.457C459.87 198.859 456.24 202.32 451.746 204.127C448.073 205.676 443.788 206.176 440.09 204.664C434.09 202.215 431.158 194.657 432.89 188.423C436.03 177.201 452.9 169.271 460.816 180.74Z" fill="url(#paint14_linear_38_4072)"/>
<path d="M433.019 227.201L433.432 227.938C426.303 231.994 419.558 236.69 413.28 241.968L412.506 241.031C408.72 234.56 404.647 228.267 400.287 222.154L400.325 222.129C411.365 222.729 422.317 224.428 433.019 227.201V227.201Z" fill="url(#paint15_linear_38_4072)"/>
<path d="M402.074 186.985L402.324 187.335C400.536 196.967 398.746 206.604 396.952 216.244L396.302 216.731C392.678 211.946 388.889 207.303 384.934 202.801L384.596 201.815C389.987 196.381 395.834 191.419 402.074 186.985V186.985Z" fill="url(#paint16_linear_38_4072)"/>
<path d="M364.757 621.331L363.783 621.793C329.889 624.804 295.034 631.025 261.565 634.836C260.327 614.859 259.086 594.878 257.842 574.894C288.65 571.084 318.583 566.086 350.365 561.994L351.215 561.981C351.545 582.492 356.157 602.708 364.757 621.331V621.331Z" fill="#171717"/>
<path d="M325.429 297.062L338.609 308.668L338.334 308.981C333.453 313.32 329.607 318.699 327.078 324.722L326.604 324.51C325.383 315.415 324.989 306.228 325.429 297.062V297.062Z" fill="url(#paint17_linear_38_4072)"/>
<path d="M309.451 283.02L319.058 291.466C311.652 291.022 304.263 292.571 297.658 295.951C300.156 290.379 303.9 285.244 309.451 283.02Z" fill="url(#paint18_linear_38_4072)"/>
<path d="M317.646 367.223L317.796 367.286C315.635 372.695 311.912 377.605 306.59 379.816L306.028 379.679C303.117 377.691 300.239 375.655 297.395 373.57L297.595 373.282C304.657 372.839 311.52 370.765 317.646 367.223V367.223Z" fill="url(#paint19_linear_38_4072)"/>
<path d="M313.523 329.693C313.919 331.522 313.728 333.43 312.98 335.145C312.231 336.86 310.961 338.296 309.351 339.25C307.698 340.121 305.79 340.381 303.964 339.983C302.138 339.586 300.511 338.557 299.369 337.077C297.62 334.603 297.595 331.217 298.619 328.369C301.593 320.049 311.7 321.348 313.523 329.693Z" fill="url(#paint20_linear_38_4072)"/>
<path d="M282.465 867.395C277.143 873.504 270.571 878.863 263.026 880.637L262.926 880.15C250.732 874.678 237.865 866.632 234.841 853.615C232.43 843.245 237.003 832.664 241.475 822.994C246.675 811.762 251.868 800.535 257.054 789.313C261.789 779.081 267.198 767.95 278.192 765.451L278.217 765.301C289.436 767.138 301.817 773.347 311.473 768.337L311.498 768.35C308.65 772.885 307.463 778.819 306.689 784.266C305.002 796.084 303.74 807.948 302.903 819.858C302.416 826.658 302.316 834.2 306.739 839.358L306.326 839.708C299.88 844.193 295.145 850.527 290.485 856.923C288.649 859.447 286.837 861.983 284.926 864.423C284.139 865.421 283.314 866.42 282.465 867.395Z" fill="url(#paint21_linear_38_4072)"/>
<path d="M270.8 352.231C274.085 350.286 277.014 347.793 279.458 344.86L279.833 345.172C279.471 350.343 279.82 355.538 280.87 360.613L280.782 360.713C277.394 357.953 274.066 355.125 270.8 352.231Z" fill="url(#paint22_linear_38_4072)"/>
<path d="M260.341 242.93C262.102 245.39 263.868 247.851 265.641 250.313C262.928 254.731 259.685 258.801 255.983 262.432L255.871 262.319C257.333 255.873 258.795 249.431 260.256 242.993L260.341 242.93Z" fill="url(#paint23_linear_38_4072)"/>
<path d="M253.694 233.672L253.569 233.759C248.709 233.859 243.858 234.151 239.015 234.634L238.915 234.546C241.84 231.218 244.396 227.582 246.536 223.702L253.694 233.672Z" fill="url(#paint24_linear_38_4072)"/>
<path d="M243.188 253.123C243.636 254.486 243.619 255.959 243.14 257.311C242.66 258.663 241.745 259.818 240.539 260.594C239.292 261.302 237.828 261.527 236.427 261.225C235.025 260.924 233.783 260.116 232.938 258.958C232.098 257.539 231.731 255.889 231.89 254.248C231.907 252.885 232.268 251.549 232.938 250.362C235.641 246.027 241.876 249.238 243.188 253.123Z" fill="url(#paint25_linear_38_4072)"/>
<path d="M233.818 276.4L233.868 276.55C229.88 278.019 225.733 279.008 221.512 279.498C220.15 276.337 218.851 273.152 217.639 269.941L217.714 269.916C223.086 272.075 228.454 274.237 233.818 276.4Z" fill="url(#paint26_linear_38_4072)"/>
<path d="M220.45 248.714L220.563 248.952C218.689 252.912 216.819 256.876 214.953 260.845L214.479 261.008C213.467 257.947 212.517 254.866 211.63 251.763C214.669 251.061 217.626 250.039 220.45 248.714V248.714Z" fill="url(#paint27_linear_38_4072)"/>
<path d="M177.81 454.262C178.06 458.173 178.31 462.07 178.56 465.981C174.195 468.86 169.389 471.008 164.331 472.34L164.231 471.965C169.058 466.307 173.583 460.399 177.786 454.265L177.81 454.262Z" fill="url(#paint28_linear_38_4072)"/>
<path d="M176.012 426.327C176.25 429.987 176.483 433.647 176.712 437.308L176.562 437.321C172.262 435.997 167.705 434.947 163.619 433.073L163.544 432.836C169.591 430.962 175.063 428.563 176.012 426.327Z" fill="url(#paint29_linear_38_4072)"/>
<path d="M141.119 448.228C146.704 443.493 158.872 446.342 154.587 455.462C153.795 456.939 152.626 458.181 151.201 459.062C149.775 459.944 148.142 460.434 146.466 460.484C143.83 460.634 140.982 459.747 139.445 457.598C137.422 454.762 138.458 450.477 141.119 448.228Z" fill="url(#paint30_linear_38_4072)"/>
<path d="M129.576 431.149L129.413 431.961C125.378 433.149 121.343 434.344 117.308 435.547L117.083 435.472L121.468 422.654C123.336 426.179 126.142 429.119 129.576 431.149V431.149Z" fill="url(#paint31_linear_38_4072)"/>
<path d="M111.986 451.426C115.484 457.359 118.973 463.292 122.455 469.226L122.33 469.501C117.321 467.14 112.68 464.068 108.55 460.381L111.661 451.311L111.986 451.426Z" fill="url(#paint32_linear_38_4072)"/>
<path d="M466.725 376.08C466.739 376.07 466.757 376.065 466.775 376.067C472.934 373.656 474.775 365.936 475.475 359.352C477.224 342.623 477.149 325.77 476.836 308.952L476.686 301.531" stroke="#171717" stroke-width="3.748" stroke-linecap="round" stroke-linejoin="round"/>
<path d="M475.87 300.734C476.17 300.722 476.482 300.722 476.782 300.709C479.456 300.622 482.13 300.543 484.803 300.472C495.31 300.16 505.812 299.856 516.31 299.56C524.318 299.323 532.501 299.06 539.972 296.174C547.443 293.288 554.177 287.242 555.651 279.374" stroke="#171717" stroke-width="3.748" stroke-linecap="round" stroke-linejoin="round"/>
<path d="M466.774 376.068C471.974 379.729 480.017 376.356 484.14 371.521C487.413 367.661 488.85 362.613 489.34 357.521C489.452 356.221 489.515 354.921 489.54 353.636C489.615 347.277 488.753 340.893 489.452 334.572C490.151 328.251 492.713 321.716 498.035 318.243C502.845 315.107 508.941 314.995 514.676 314.982C524.646 314.957 534.615 314.936 544.584 314.92C545.784 314.92 546.995 314.907 548.195 314.895C553.317 314.795 558.451 314.383 563.111 312.371C568.883 309.885 573.793 304.288 573.455 298.017" stroke="#171717" stroke-width="3.748" stroke-linecap="round" stroke-linejoin="round"/>
<path d="M554.864 298.301C560.898 298.101 566.928 297.905 572.954 297.714" stroke="#171717" stroke-width="3.748" stroke-linecap="round" stroke-linejoin="round"/>
<path d="M554.127 298.237C555.727 297.281 557.076 295.959 558.066 294.38C559.055 292.801 559.656 291.01 559.818 289.154C559.98 287.298 559.699 285.429 558.999 283.703C558.298 281.976 557.198 280.44 555.788 279.222C555.758 279.19 555.724 279.16 555.688 279.135" stroke="#171717" stroke-width="3.748" stroke-linecap="round" stroke-linejoin="round"/>
<path d="M476.8 300.759C476.802 300.742 476.797 300.724 476.787 300.71C476.05 293.902 468.242 288.692 461.421 289.429C463.553 288.067 465.989 287.254 468.511 287.063C471.034 286.871 473.565 287.307 475.878 288.331C478.191 289.355 480.215 290.936 481.769 292.932C483.322 294.929 484.358 297.279 484.783 299.772" stroke="#171717" stroke-width="3.748" stroke-linecap="round" stroke-linejoin="round"/>
<path d="M476.557 300.959C476.32 300.934 476.095 300.909 475.857 300.897C471.897 300.56 467.749 301.172 464.925 303.945C463.434 305.426 462.286 307.217 461.563 309.19C460.84 311.163 460.559 313.271 460.74 315.364C462.491 312.962 464.874 311.092 467.625 309.962C470.375 308.832 473.384 308.487 476.319 308.964" stroke="#171717" stroke-width="3.748" stroke-linecap="round" stroke-linejoin="round"/>
<path d="M537.673 321.461C532.174 321.327 526.696 322.195 521.507 324.022C524.294 335.126 525.828 346.507 526.08 357.953C523.594 358.241 521.108 358.541 518.622 358.828" stroke="#171717" stroke-width="3.748" stroke-linecap="round" stroke-linejoin="round"/>
<path d="M503.729 333.316C506.677 332.729 509.613 332.154 512.549 331.567" stroke="#171717" stroke-width="3.748" stroke-linecap="round" stroke-linejoin="round"/>
<path d="M528.853 331.955C531.783 331.353 534.818 331.508 537.672 332.405" stroke="#171717" stroke-width="3.748" stroke-linecap="round" stroke-linejoin="round"/>
<path d="M519.121 370.701C517.223 371.609 515.104 371.956 513.015 371.702C510.926 371.447 508.953 370.602 507.328 369.265C507.178 369.14 507.028 369.002 506.891 368.865C505.462 367.459 504.441 365.691 503.937 363.751C503.433 361.81 503.465 359.769 504.03 357.846C501.38 360.127 499.315 363.01 498.008 366.254C496.871 369.54 497.096 373.475 499.32 376.148C499.702 376.608 500.148 377.012 500.644 377.348C503.005 379.034 506.416 379.284 508.615 377.435" stroke="#171717" stroke-width="3.748" stroke-linecap="round" stroke-linejoin="round"/>
<path d="M500.644 377.379V377.342C500.419 375.495 500.878 373.628 501.934 372.095C502.99 370.562 504.571 369.469 506.378 369.021" stroke="#171717" stroke-width="3.748" stroke-linecap="round" stroke-linejoin="round"/>
<path d="M489.375 357.516C490.375 372.933 490.821 388.37 490.712 403.828" stroke="#171717" stroke-width="3.748" stroke-linecap="round" stroke-linejoin="round"/>
<path d="M548.193 314.765V314.89C547.919 330.306 547.285 345.701 546.293 361.077C545.918 366.877 545.281 373.158 541.27 377.355C537.96 380.816 532.962 382.14 529.24 385.176C526.704 387.319 524.872 390.178 523.985 393.378C523.098 396.579 523.196 399.972 524.267 403.116" stroke="#171717" stroke-width="3.748" stroke-linecap="round" stroke-linejoin="round"/>
<path d="M475.358 419.281C471.773 416.145 473.397 409.774 477.282 407C481.082 404.289 486.027 404.039 490.712 403.939H491.012L524.268 403.265L535.35 403.04C538.55 402.977 541.996 402.977 544.595 404.851C547.168 406.713 548.295 410.086 548.243 413.272C548.174 416.042 547.589 418.775 546.518 421.33" stroke="#171717" stroke-width="3.748" stroke-linecap="round" stroke-linejoin="round"/>
<path d="M391.592 660.085C380.441 648.842 371.358 635.724 364.757 621.332C356.156 602.706 351.544 582.489 351.215 561.977C350.993 549.538 352.422 537.124 355.462 525.06C357.252 518.025 359.613 511.148 362.521 504.497C379.037 466.605 412.581 436.147 452.308 424.366C459.861 422.144 467.576 420.511 475.383 419.482C496.246 416.646 517.697 417.645 538.648 420.306C541.258 420.644 543.882 420.989 546.518 421.343C561.947 423.392 577.618 425.243 592.393 420.818C616.017 413.747 632.608 391.497 639.629 367.86C646.638 344.26 645.563 317.976 644.551 293.36V293.26" stroke="#171717" stroke-width="3.748" stroke-linecap="round" stroke-linejoin="round"/>
<path d="M391.592 660.084C394.113 659.263 396.561 658.235 398.913 657.011C410.343 651.006 419.233 641.091 423.962 629.076C425.098 626.242 425.975 623.311 426.585 620.319" stroke="#171717" stroke-width="3.748" stroke-linecap="round" stroke-linejoin="round"/>
<path d="M426.585 620.319C424.711 618.507 422.937 616.596 421.251 614.609C407.283 597.945 400.063 576.653 401.012 554.93C401.175 551.321 401.584 547.728 402.236 544.174C406.133 523.965 417.121 505.813 433.219 492.99C438.954 488.377 445.282 484.553 452.034 481.621" stroke="#171717" stroke-width="3.748" stroke-linecap="round" stroke-linejoin="round"/>
<path d="M644.489 293.4C644.514 293.387 644.526 293.375 644.551 293.362C663.678 283.256 688.864 280.962 709.278 288.115" stroke="#171717" stroke-width="3.748" stroke-linecap="round" stroke-linejoin="round"/>
<path d="M709.278 288.116C703.444 333.953 697.611 379.794 691.778 425.64C690.129 438.582 688.178 452.24 680.047 462.44C672.226 472.247 659.933 477.232 647.99 481.092C631.43 486.451 614.457 490.437 597.243 493.011" stroke="#171717" stroke-width="3.748" stroke-linecap="round" stroke-linejoin="round"/>
<path d="M596.266 492.5C596.291 492.7 596.303 492.9 596.328 493.1L608.1 616.408" stroke="#171717" stroke-width="3.748" stroke-linecap="round" stroke-linejoin="round"/>
<path d="M608.1 616.408C604.064 617.808 600.042 619.194 596.006 620.581C593.32 621.518 590.622 622.443 587.936 623.367" stroke="#171717" stroke-width="3.748" stroke-linecap="round" stroke-linejoin="round"/>
<path d="M654.745 288.255C651.284 276.786 647.812 265.318 644.951 253.687C644.139 250.351 643.389 246.787 644.326 243.53C644.4 243.267 644.488 243.008 644.589 242.755C645.751 239.744 648.324 237.583 651.189 235.984C651.851 235.622 652.526 235.284 653.201 234.972C657.587 232.946 662.283 231.675 667.093 231.212C670.141 230.924 673.626 231.137 675.625 233.46C675.737 233.598 675.85 233.735 675.95 233.885C676.595 234.934 676.956 236.133 676.998 237.364C677.039 238.595 676.76 239.815 676.188 240.906C674.896 243.226 672.978 245.135 670.653 246.416C667.992 248.04 664.782 249.616 664.007 252.637C663.482 254.698 664.269 256.822 665.057 258.796C667.405 264.755 669.757 270.718 672.115 276.686L673.052 279.047" stroke="#171717" stroke-width="3.748" stroke-linecap="round" stroke-linejoin="round"/>
<path d="M721.583 232.973C725.283 228.673 724.583 222.641 716.283 221.517C715.228 221.365 714.162 221.307 713.098 221.342C711.542 221.362 709.992 221.546 708.475 221.892C707.58 222.097 706.699 222.36 705.839 222.679C704.115 223.283 702.473 224.101 700.954 225.115C699.128 226.296 697.497 227.755 696.12 229.438C696.045 229.513 695.982 229.588 695.92 229.662C694.208 231.799 692.909 234.935 694.483 237.183C695.757 239.02 698.318 239.332 700.555 239.32C701.392 239.32 702.229 239.295 703.066 239.232C707.572 238.967 712.018 238.062 716.271 236.546C718.322 235.837 720.153 234.606 721.583 232.973V232.973Z" stroke="#171717" stroke-width="3.748" stroke-linecap="round" stroke-linejoin="round"/>
<path d="M703.081 239.406C699.696 240.493 697.609 244.341 698.072 247.876C698.379 249.634 699.131 251.284 700.254 252.67C701.378 254.056 702.837 255.133 704.493 255.797C704.868 255.947 705.23 256.084 705.617 256.197C708.677 257.076 711.929 257.028 714.962 256.059C716.83 255.497 718.599 254.65 720.209 253.548C722.77 251.838 724.738 249.376 725.844 246.502C727.555 241.802 726.068 235.883 721.844 233.197" stroke="#171717" stroke-width="3.748" stroke-linecap="round" stroke-linejoin="round"/>
<path d="M705.592 256.272C703.019 257.48 700.758 259.262 698.983 261.481C697.354 263.446 696.481 265.929 696.522 268.481C696.549 269.082 696.646 269.677 696.81 270.255C698.097 274.74 703.21 277.127 707.866 277.214C710.535 277.245 713.182 276.731 715.645 275.704C718.109 274.677 720.338 273.159 722.195 271.242C723.477 269.99 724.5 268.497 725.204 266.848C725.907 265.199 726.278 263.428 726.295 261.635C726.145 258.062 723.759 254.489 720.286 253.652" stroke="#171717" stroke-width="3.748" stroke-linecap="round" stroke-linejoin="round"/>
<path d="M672.386 276.573C679.459 271.932 687.589 269.152 696.023 268.49" stroke="#171717" stroke-width="3.748" stroke-linecap="round" stroke-linejoin="round"/>
<path d="M644.089 243.454C634.025 235.766 622.603 230.044 610.42 226.588C603.45 224.587 596.283 223.356 589.045 222.915C591.518 216.915 593.98 210.772 596.445 204.575C597.144 202.801 597.847 201.023 598.556 199.241L599.456 196.955C600.831 193.482 602.192 190.009 603.567 186.548C606.353 179.514 609.139 172.531 611.937 165.748" stroke="#171717" stroke-width="3.748" stroke-linecap="round" stroke-linejoin="round"/>
<path d="M611.932 165.747C621.355 169.837 630.481 174.582 639.242 179.947C660.763 193.094 679.923 209.763 695.923 229.257" stroke="#171717" stroke-width="3.748" stroke-linecap="round" stroke-linejoin="round"/>
<path d="M596.315 204.526C592.205 201.24 588.507 198.854 584.396 195.568C587.857 189.796 591.056 183.862 594.054 177.815C597.14 171.615 600 165.297 602.724 158.915C605.524 152.382 608.159 145.76 610.708 139.151" stroke="#171717" stroke-width="3.748" stroke-linecap="round" stroke-linejoin="round"/>
<path d="M610.708 139.149C614.68 142.335 618.624 145.559 622.539 148.819C624.013 150.043 625.462 151.268 626.924 152.519C629.01 154.268 631.084 156.055 633.145 157.854C657.22 178.741 679.875 201.212 700.957 225.116L700.97 225.129" stroke="#171717" stroke-width="3.748" stroke-linecap="round" stroke-linejoin="round"/>
<path d="M622.775 148.533C624.137 144.333 625.495 140.131 626.848 135.927C630.895 138.813 634.864 141.807 638.754 144.91C642.178 147.633 645.526 150.436 648.798 153.318C649.81 154.205 650.809 155.092 651.798 155.991C673.122 175.257 691.337 197.706 705.798 222.541" stroke="#171717" stroke-width="3.748" stroke-linecap="round" stroke-linejoin="round"/>
<path d="M638.792 144.859C641.228 140.686 643.764 136.988 646.2 132.815C650.236 136.513 654.138 140.328 657.906 144.259C662.054 148.569 666.027 153.009 669.825 157.577C670.487 158.364 671.149 159.177 671.799 159.977C686.942 178.626 699.293 199.376 708.466 221.577" stroke="#171717" stroke-width="3.748" stroke-linecap="round" stroke-linejoin="round"/>
<path d="M658.494 143.684L670.037 136.751C675.459 144.297 680.523 152.034 685.229 159.963C696.697 179.237 706.039 199.7 713.088 220.991" stroke="#171717" stroke-width="3.748" stroke-linecap="round" stroke-linejoin="round"/>
<path d="M413.18 242.042C413.218 242.017 413.243 241.992 413.28 241.967C419.558 236.689 426.303 231.993 433.432 227.937C448.401 219.407 464.81 213.699 481.842 211.097C488.625 210.049 495.478 209.523 502.342 209.523H502.542" stroke="#171717" stroke-width="3.748" stroke-linecap="round" stroke-linejoin="round"/>
<path d="M412.506 241.031C408.72 234.559 404.647 228.267 400.287 222.154C398.976 220.33 397.648 218.522 396.302 216.732C392.678 211.946 388.889 207.303 384.934 202.802" stroke="#171717" stroke-width="3.748" stroke-linecap="round" stroke-linejoin="round"/>
<path d="M502.73 208.574C500.044 202.465 497.371 196.444 494.685 190.447C492.574 185.712 490.462 180.99 488.351 176.247C486.165 171.361 483.983 166.435 481.805 161.468C481.805 161.456 481.792 161.443 481.792 161.431" stroke="#171717" stroke-width="3.748" stroke-linecap="round" stroke-linejoin="round"/>
<path d="M384.6 201.815C389.991 196.381 395.838 191.419 402.078 186.985C419.192 174.857 438.828 166.76 459.517 163.3C466.88 162.058 474.337 161.443 481.805 161.463H481.967" stroke="#171717" stroke-width="3.748" stroke-linecap="round" stroke-linejoin="round"/>
<path d="M306.59 379.815C311.912 377.604 315.635 372.694 317.796 367.285C318.146 366.41 318.458 365.523 318.733 364.636C320.682 358.215 320.907 351.444 321.756 344.797C322.563 337.886 324.355 331.125 327.078 324.721C329.606 318.699 333.453 313.32 338.335 308.98" stroke="#171717" stroke-width="3.748" stroke-linecap="round" stroke-linejoin="round"/>
<path d="M306.028 379.678C303.117 377.691 300.24 375.655 297.395 373.569C291.723 369.459 286.184 365.174 280.779 360.713C277.393 357.952 274.066 355.125 270.797 352.231" stroke="#171717" stroke-width="3.748" stroke-linecap="round" stroke-linejoin="round"/>
<path d="M270.8 352.232C274.085 350.287 277.014 347.794 279.458 344.861C285.217 338.09 288.928 329.17 291.164 320.624C293 313.616 293.8 306.332 296.236 299.499C296.661 298.312 297.123 297.125 297.66 295.951C300.16 290.379 303.907 285.244 309.454 283.02" stroke="#171717" stroke-width="3.748" stroke-linecap="round" stroke-linejoin="round"/>
<path d="M338.834 308.856C338.762 308.789 338.687 308.726 338.609 308.668L325.429 297.062C323.305 295.201 321.182 293.334 319.058 291.462L309.451 283.016" stroke="#171717" stroke-width="3.748" stroke-linecap="round" stroke-linejoin="round"/>
<path d="M178.561 465.98C178.311 462.069 178.061 458.172 177.811 454.261C177.449 448.614 177.087 442.963 176.725 437.308H176.712C176.487 433.648 176.254 429.988 176.012 426.327" stroke="#171717" stroke-width="3.748" stroke-linecap="round" stroke-linejoin="round"/>
<path d="M176.012 426.327C175.063 428.563 169.591 430.962 163.544 432.836C156.798 434.922 149.344 436.359 146.644 436.171C140.638 435.869 134.79 434.148 129.579 431.149C126.144 429.118 123.338 426.176 121.471 422.649" stroke="#171717" stroke-width="3.748" stroke-linecap="round" stroke-linejoin="round"/>
<path d="M121.468 422.654L117.083 435.472C115.271 440.756 113.463 446.037 111.661 451.313L108.55 460.383" stroke="#171717" stroke-width="3.748" stroke-linecap="round" stroke-linejoin="round"/>
<path d="M108.55 460.384C112.68 464.071 117.321 467.143 122.33 469.504C128.445 472.364 135.044 474.051 141.782 474.476C149.365 475.031 156.988 474.309 164.332 472.34C169.389 471.008 174.195 468.86 178.561 465.981" stroke="#171717" stroke-width="3.748" stroke-linecap="round" stroke-linejoin="round"/>
<path d="M221.512 279.501C220.15 276.34 218.851 273.155 217.639 269.944C216.527 266.983 215.466 264.01 214.479 261.012C213.467 257.951 212.517 254.869 211.63 251.767" stroke="#171717" stroke-width="3.748" stroke-linecap="round" stroke-linejoin="round"/>
<path d="M211.63 251.762C214.669 251.061 217.626 250.039 220.45 248.713C227.508 245.302 233.792 240.48 238.915 234.546C241.84 231.218 244.396 227.582 246.536 223.702" stroke="#171717" stroke-width="3.748" stroke-linecap="round" stroke-linejoin="round"/>
<path d="M221.512 279.501C225.733 279.011 229.88 278.021 233.868 276.553C242.168 273.493 249.711 268.678 255.98 262.436C259.681 258.805 262.925 254.736 265.638 250.318C265.65 250.293 265.663 250.28 265.675 250.255" stroke="#171717" stroke-width="3.748" stroke-linecap="round" stroke-linejoin="round"/>
<path d="M265.812 250.562C265.75 250.482 265.692 250.399 265.638 250.312C263.864 247.851 262.097 245.39 260.338 242.929C258.128 239.843 255.912 236.757 253.692 233.672L246.534 223.702" stroke="#171717" stroke-width="3.748" stroke-linecap="round" stroke-linejoin="round"/>
<path d="M424.735 629.39C433.984 631.967 443.693 632.433 453.145 630.751C454.682 630.374 456.268 630.243 457.845 630.364C458.634 630.435 459.388 630.718 460.03 631.182C460.671 631.646 461.176 632.274 461.49 633.001C462.239 635.212 460.44 637.436 458.629 638.901C455.198 641.622 451.218 643.568 446.963 644.603C442.708 645.639 438.278 645.741 433.98 644.901" stroke="#171717" stroke-width="3.748" stroke-linecap="round" stroke-linejoin="round"/>
<path d="M433.98 644.894C443.593 652.537 452.481 661.051 460.528 670.329C461.968 671.781 463.125 673.488 463.939 675.364C464.407 676.282 464.593 677.319 464.476 678.343C464.358 679.367 463.942 680.334 463.278 681.123C462.615 681.912 461.734 682.489 460.745 682.78C459.756 683.072 458.703 683.066 457.717 682.764C455.758 682.274 453.912 681.409 452.283 680.215C445.064 675.486 438.463 669.876 432.631 663.515C430.545 661.229 428.558 658.855 426.709 656.407C426.509 656.157 426.335 655.919 426.147 655.67" stroke="#171717" stroke-width="3.748" stroke-linecap="round" stroke-linejoin="round"/>
<path d="M426.273 655.9C426.423 656.062 426.56 656.237 426.71 656.4C428.747 658.748 430.71 661.122 432.632 663.508C437.742 669.842 442.576 676.239 448.048 682.485C449.621 684.069 450.877 685.939 451.748 687.994C452.485 690.094 452.273 692.679 450.648 694.203C449.881 694.836 448.965 695.262 447.987 695.439C447.009 695.616 446.002 695.539 445.063 695.215C443.185 694.554 441.457 693.526 439.979 692.192C430.477 684.508 422.624 674.985 416.892 664.192" stroke="#171717" stroke-width="3.748" stroke-linecap="round" stroke-linejoin="round"/>
<path d="M398.938 657.049C406.138 673.268 415.773 688.291 427.51 701.601C429.396 703.738 432.557 705.974 434.781 704.187C435.93 703.276 436.192 701.664 436.267 700.202C436.489 695.095 435.245 690.032 432.682 685.61" stroke="#171717" stroke-width="3.748" stroke-linecap="round" stroke-linejoin="round"/>
<path d="M433.319 493.116C471.898 488.006 508.119 483.146 546.681 478.024C556.775 476.687 567.969 475.6 576.281 481.472C587.633 489.501 587.9 505.921 587.258 519.801C587.121 522.887 586.983 525.985 586.871 529.071C586.046 550.509 585.813 571.963 586.171 593.435C586.333 603.429 586.629 613.419 587.058 623.406C587.883 643.082 589.207 662.729 591.031 682.348C592.106 693.929 592.905 706.971 585.222 715.704C579.95 721.704 572.067 724.024 563.971 725.211C561.235 725.611 558.471 725.886 555.788 726.123C541.646 727.36 527.508 728.601 513.374 729.846L393.516 740.34C363.97 742.94 334.428 745.53 304.891 748.111C294.471 749.023 282.678 749.498 275.057 742.339C268.224 735.918 267.212 725.598 266.624 716.239C264.938 689.105 263.251 661.972 261.565 634.839C260.327 614.861 259.086 594.881 257.842 574.897C257.404 567.951 256.971 561 256.542 554.046C255.817 542.39 255.755 528.985 264.45 521.177C269.909 516.267 277.567 514.868 284.813 513.719C310.486 509.683 336.28 506.563 362.195 504.361" stroke="#171717" stroke-width="3.748" stroke-linecap="round" stroke-linejoin="round"/>
<path d="M393.553 740.789C376.233 753.64 355.228 760.558 333.661 760.516C328.002 760.491 321.968 760.053 317.061 762.864C314.776 764.195 312.863 766.082 311.501 768.349C308.653 772.884 307.466 778.818 306.692 784.265C305.005 796.083 303.743 807.947 302.906 819.857C302.419 826.657 302.319 834.199 306.742 839.357C310.39 843.63 316.236 845.166 321.733 846.278C363.11 854.649 407.773 850.463 444.665 829.925C481.432 809.449 509.304 771.72 513.376 729.843C513.389 729.718 513.401 729.581 513.414 729.456" stroke="#171717" stroke-width="3.748" stroke-linecap="round" stroke-linejoin="round"/>
<path d="M311.474 768.336C301.817 773.346 289.437 767.136 278.218 765.3C272.933 764.438 267.911 764.538 263.551 767.249C259.391 769.835 256.867 774.308 254.531 778.606C244.249 797.606 234.534 816.904 225.385 836.498C222.899 841.82 220.4 847.58 221.385 853.364C222.46 859.635 227.369 864.458 232.167 868.63C239.575 875.077 248.208 881.373 258.027 881.248C259.711 881.223 261.387 881.018 263.027 880.636C270.572 878.862 277.144 873.503 282.466 867.394C283.315 866.419 284.14 865.42 284.927 864.42C286.838 861.984 288.65 859.448 290.486 856.92C295.146 850.52 299.881 844.19 306.327 839.705" stroke="#171717" stroke-width="3.748" stroke-linecap="round" stroke-linejoin="round"/>
<path d="M596.041 620.694C656.041 682.259 716.561 742.463 777.515 803.067" stroke="#171717" stroke-width="3.748" stroke-linecap="round" stroke-linejoin="round"/>
<path d="M777.515 803.067C775.991 805.429 774.379 807.723 772.68 809.95C761.809 824.086 748.001 835.695 732.209 843.978C716.416 852.26 699.015 857.018 681.206 857.924" stroke="#171717" stroke-width="3.748" stroke-linecap="round" stroke-linejoin="round"/>
<path d="M681.206 857.924C643.002 812.924 603.923 768.686 563.971 725.21L563.634 724.836" stroke="#171717" stroke-width="3.748" stroke-linecap="round" stroke-linejoin="round"/>
<path d="M772.841 810.075C786.471 812.949 800.641 813.648 814.281 811.15C817.424 810.584 820.531 809.837 823.588 808.914C830.647 806.777 838.242 803.914 845.388 803.929C848.747 803.866 852.068 804.648 855.045 806.203C862.945 810.438 866.352 820.27 865.952 829.215C865.29 844.481 855.633 858.224 843.477 867.481C831.321 876.738 816.777 882.248 802.462 887.607C790.681 892.03 778.362 896.527 765.845 895.178C759.166 894.366 752.739 892.134 746.993 888.632C742.655 886.047 738.627 882.975 734.987 879.474C726.505 871.416 719.908 861.647 713.374 851.94C713.337 851.89 713.312 851.84 713.274 851.79" stroke="#171717" stroke-width="3.748" stroke-linecap="round" stroke-linejoin="round"/>
<path d="M747.119 888.419C767.219 883.535 783.549 878.95 803.275 872.703C823.001 866.456 842.275 854.426 850.487 835.449C855.047 824.917 854.822 810.638 845.387 804.104" stroke="#171717" stroke-width="3.748" stroke-linecap="round" stroke-linejoin="round"/>
<path d="M814.319 811.062C814.307 811.088 814.294 811.126 814.282 811.151C809.734 821.11 808.247 832.195 810.009 843" stroke="#171717" stroke-width="3.748" stroke-linecap="round" stroke-linejoin="round"/>
<path d="M794.204 813.036C789.787 823.143 787.954 834.19 788.87 845.181C789.032 844.631 789.182 844.094 789.345 843.544" stroke="#171717" stroke-width="3.748" stroke-linecap="round" stroke-linejoin="round"/>
<path d="M778.614 811.676C772.18 821.4 769.182 832.996 770.094 844.62C770.281 844.082 770.456 843.533 770.631 842.996" stroke="#171717" stroke-width="3.748" stroke-linecap="round" stroke-linejoin="round"/>
<path d="M278.192 765.45C267.198 767.95 261.792 779.08 257.054 789.312C251.854 800.543 246.661 811.77 241.475 822.993C237.002 832.663 232.43 843.244 234.841 853.614C237.865 866.631 250.732 874.677 262.926 880.149" stroke="#171717" stroke-width="3.748" stroke-linecap="round" stroke-linejoin="round"/>
<path d="M298.907 846.005C296.836 840.326 293.594 835.147 289.39 830.803C285.186 826.46 280.115 823.05 274.507 820.795" stroke="#171717" stroke-width="3.748" stroke-linecap="round" stroke-linejoin="round"/>
<path d="M290.524 857.037L290.486 856.924C288.49 851.162 285.29 845.891 281.098 841.462C276.906 837.033 271.819 833.548 266.175 831.239" stroke="#171717" stroke-width="3.748" stroke-linecap="round" stroke-linejoin="round"/>
<path d="M282.553 867.631C282.529 867.551 282.5 867.471 282.466 867.394C280.556 861.974 277.541 857.01 273.612 852.816C269.683 848.622 264.925 845.29 259.641 843.032C259.878 842.72 260.103 842.42 260.328 842.108" stroke="#171717" stroke-width="3.748" stroke-linecap="round" stroke-linejoin="round"/>
<path d="M401 554.931H401.012C463.465 546.111 524.668 538.615 586.621 529.058" stroke="#171717" stroke-width="3.748" stroke-linecap="round" stroke-linejoin="round"/>
<path d="M257.691 574.907C257.741 574.907 257.791 574.894 257.841 574.894C288.649 571.084 318.582 566.086 350.364 561.994" stroke="#171717" stroke-width="3.748" stroke-linecap="round" stroke-linejoin="round"/>
<path d="M421.451 614.435C475.945 607.327 530.915 601.08 586.034 593.435" stroke="#171717" stroke-width="3.748" stroke-linecap="round" stroke-linejoin="round"/>
<path d="M261.215 634.873L261.565 634.836C295.034 631.025 329.889 624.804 363.783 621.793" stroke="#171717" stroke-width="3.748" stroke-linecap="round" stroke-linejoin="round"/>
<path d="M534.499 672.653C537.733 675.49 539.869 679.371 540.535 683.621C541.2 687.872 540.353 692.22 538.14 695.91C535.928 699.599 532.491 702.395 528.429 703.81C524.366 705.226 519.936 705.17 515.91 703.654C511.885 702.137 508.519 699.256 506.399 695.513C504.28 691.769 503.542 687.4 504.314 683.168C505.085 678.936 507.317 675.109 510.621 672.354C513.925 669.599 518.091 668.091 522.393 668.093C526.849 668.09 531.153 669.712 534.499 672.653V672.653Z" stroke="#171717" stroke-width="3.748" stroke-linecap="round" stroke-linejoin="round"/>
<path d="M534.5 672.652C536.964 669.004 540.655 666.362 544.903 665.207C549.151 664.051 553.672 664.459 557.645 666.357C561.617 668.254 564.776 671.514 566.547 675.544C568.318 679.574 568.583 684.106 567.295 688.316C566.006 692.525 563.249 696.131 559.525 698.479C555.801 700.827 551.358 701.76 547.005 701.108C542.651 700.456 538.676 698.263 535.804 694.927C532.931 691.592 531.351 687.336 531.352 682.934C531.353 679.27 532.449 675.689 534.5 672.652V672.652Z" stroke="#171717" stroke-width="3.748" stroke-linecap="round" stroke-linejoin="round"/>
<path d="M297.399 296.088C297.486 296.038 297.574 296.001 297.661 295.951C304.266 292.571 311.656 291.022 319.061 291.466C319.111 291.466 319.161 291.478 319.211 291.478" stroke="#171717" stroke-width="3.748" stroke-linecap="round" stroke-linejoin="round"/>
<path d="M325.429 296.912V297.061C324.989 306.227 325.383 315.414 326.604 324.509" stroke="#171717" stroke-width="3.748" stroke-linecap="round" stroke-linejoin="round"/>
<path d="M280.867 360.614C279.817 355.539 279.468 350.343 279.83 345.173" stroke="#171717" stroke-width="3.748" stroke-linecap="round" stroke-linejoin="round"/>
<path d="M297.6 373.282C304.662 372.839 311.525 370.765 317.651 367.223" stroke="#171717" stroke-width="3.748" stroke-linecap="round" stroke-linejoin="round"/>
<path d="M298.618 328.369C297.594 331.217 297.618 334.603 299.368 337.077C300.51 338.557 302.137 339.586 303.963 339.983C305.789 340.381 307.697 340.121 309.35 339.25C310.961 338.296 312.23 336.86 312.979 335.145C313.728 333.43 313.918 331.522 313.522 329.693C311.699 321.348 301.592 320.049 298.618 328.369Z" stroke="#171717" stroke-width="3.748" stroke-linecap="round" stroke-linejoin="round"/>
<path d="M117.308 435.547C121.342 434.347 125.377 433.152 129.413 431.961" stroke="#171717" stroke-width="3.748" stroke-linecap="round" stroke-linejoin="round"/>
<path d="M122.454 469.229C118.968 463.295 115.479 457.362 111.985 451.429" stroke="#171717" stroke-width="3.748" stroke-linecap="round" stroke-linejoin="round"/>
<path d="M163.619 433.073C167.705 434.947 172.265 435.996 176.562 437.321" stroke="#171717" stroke-width="3.748" stroke-linecap="round" stroke-linejoin="round"/>
<path d="M164.231 471.965C169.058 466.307 173.583 460.399 177.786 454.265" stroke="#171717" stroke-width="3.748" stroke-linecap="round" stroke-linejoin="round"/>
<path d="M141.119 448.228C138.458 450.477 137.419 454.762 139.445 457.598C140.982 459.747 143.83 460.634 146.466 460.484C148.141 460.434 149.774 459.944 151.2 459.062C152.626 458.181 153.794 456.939 154.587 455.462C158.872 446.342 146.7 443.493 141.119 448.228Z" stroke="#171717" stroke-width="3.748" stroke-linecap="round" stroke-linejoin="round"/>
<path d="M232.942 250.362C232.272 251.549 231.911 252.885 231.893 254.248C231.735 255.889 232.102 257.539 232.942 258.958C233.787 260.116 235.029 260.924 236.43 261.225C237.832 261.527 239.296 261.302 240.542 260.594C241.749 259.818 242.664 258.663 243.144 257.311C243.623 255.959 243.64 254.486 243.191 253.123C241.875 249.238 235.641 246.027 232.942 250.362Z" stroke="#171717" stroke-width="3.748" stroke-linecap="round" stroke-linejoin="round"/>
<path d="M214.953 260.844C216.827 256.871 218.697 252.907 220.563 248.951" stroke="#171717" stroke-width="3.748" stroke-linecap="round" stroke-linejoin="round"/>
<path d="M217.714 269.914C223.086 272.075 228.453 274.236 233.814 276.398" stroke="#171717" stroke-width="3.748" stroke-linecap="round" stroke-linejoin="round"/>
<path d="M255.868 262.318C257.33 255.872 258.792 249.43 260.253 242.992" stroke="#171717" stroke-width="3.748" stroke-linecap="round" stroke-linejoin="round"/>
<path d="M239.015 234.635C243.849 234.147 248.701 233.855 253.569 233.76" stroke="#171717" stroke-width="3.748" stroke-linecap="round" stroke-linejoin="round"/>
<path d="M396.952 216.244C398.738 206.612 400.529 196.976 402.324 187.335" stroke="#171717" stroke-width="3.748" stroke-linecap="round" stroke-linejoin="round"/>
<path d="M400.325 222.129C411.365 222.729 422.317 224.428 433.019 227.201" stroke="#171717" stroke-width="3.748" stroke-linecap="round" stroke-linejoin="round"/>
<path d="M459.566 163.623C468.305 169.434 477.96 173.733 488.125 176.341" stroke="#171717" stroke-width="3.748" stroke-linecap="round" stroke-linejoin="round"/>
<path d="M494.547 190.509C488.719 196.204 484.355 203.225 481.83 210.973" stroke="#171717" stroke-width="3.748" stroke-linecap="round" stroke-linejoin="round"/>
<path d="M432.894 188.423C431.158 194.657 434.094 202.215 440.094 204.664C443.794 206.176 448.077 205.676 451.75 204.127C456.244 202.32 459.875 198.859 461.895 194.457C462.866 192.26 463.277 189.857 463.089 187.462C462.902 185.068 462.122 182.758 460.82 180.74C452.9 169.271 436.03 177.201 432.894 188.423Z" stroke="#171717" stroke-width="3.748" stroke-linecap="round" stroke-linejoin="round"/>
<path d="M676.409 233.684C677.862 231.58 678.775 229.151 679.067 226.61C679.359 224.069 679.021 221.496 678.083 219.117C676.125 214.347 672.388 210.526 667.663 208.461C665.054 207.234 662.213 206.58 659.33 206.541C656.447 206.502 653.589 207.08 650.948 208.236C648.327 209.444 646.078 211.331 644.432 213.701C642.787 216.071 641.805 218.839 641.59 221.716C641.341 227.463 645.076 233.297 650.573 234.996" stroke="#171717" stroke-width="3.748" stroke-linecap="round" stroke-linejoin="round"/>
<path d="M603.812 186.649C615.422 183.774 627.2 181.629 639.078 180.228" stroke="#171717" stroke-width="3.748" stroke-linecap="round" stroke-linejoin="round"/>
<path d="M598.614 199.267C600.803 208.962 604.838 218.145 610.5 226.314" stroke="#171717" stroke-width="3.748" stroke-linecap="round" stroke-linejoin="round"/>
<path d="M599.127 196.831C597.465 190.509 595.795 184.183 594.117 177.854" stroke="#171717" stroke-width="3.748" stroke-linecap="round" stroke-linejoin="round"/>
<path d="M602.475 158.939C602.557 158.924 602.641 158.916 602.725 158.914C612.663 157.665 622.707 157.489 632.683 158.39" stroke="#171717" stroke-width="3.748" stroke-linecap="round" stroke-linejoin="round"/>
<path d="M627.211 152.181C634.32 152.655 641.437 153.125 648.562 153.592" stroke="#171717" stroke-width="3.748" stroke-linecap="round" stroke-linejoin="round"/>
<path d="M651.872 155.901C657.872 155.507 663.896 156.106 669.7 157.675" stroke="#171717" stroke-width="3.748" stroke-linecap="round" stroke-linejoin="round"/>
<path d="M671.724 159.976H671.799L684.954 160.126" stroke="#171717" stroke-width="3.748" stroke-linecap="round" stroke-linejoin="round"/>
<path d="M597.701 481.795L602.698 463.275" stroke="#171717" stroke-width="3.748" stroke-linecap="round" stroke-linejoin="round"/>
<path d="M583.885 460.042L602.698 463.275" stroke="#171717" stroke-width="3.748" stroke-linecap="round" stroke-linejoin="round"/>
<path d="M597.701 481.795L583.885 460.042" stroke="#171717" stroke-width="3.748" stroke-linecap="round" stroke-linejoin="round"/>
<path d="M364.89 551.756L374.591 528.534" stroke="#171717" stroke-width="3.748" stroke-linecap="round" stroke-linejoin="round"/>
<path d="M388.407 550.58L374.591 528.534" stroke="#171717" stroke-width="3.748" stroke-linecap="round" stroke-linejoin="round"/>
<path d="M364.89 551.756L388.407 550.58" stroke="#171717" stroke-width="3.748" stroke-linecap="round" stroke-linejoin="round"/>
<path d="M595.937 613.191L602.111 597.613" stroke="#171717" stroke-width="3.748" stroke-linecap="round" stroke-linejoin="round"/>
<path d="M588.882 595.261L602.111 597.614" stroke="#171717" stroke-width="3.748" stroke-linecap="round" stroke-linejoin="round"/>
<path d="M595.937 613.192L588.882 595.261" stroke="#171717" stroke-width="3.748" stroke-linecap="round" stroke-linejoin="round"/>
<path d="M393.917 496.565L405.382 504.723" stroke="#171717" stroke-width="3.748" stroke-linecap="round" stroke-linejoin="round"/>
<path d="M409.35 491.496L405.382 504.723" stroke="#171717" stroke-width="3.748" stroke-linecap="round" stroke-linejoin="round"/>
<path d="M393.917 496.565L409.35 491.496" stroke="#171717" stroke-width="3.748" stroke-linecap="round" stroke-linejoin="round"/>
<path d="M466.663 456.955L457.621 439.693" stroke="#171717" stroke-width="3.748" stroke-linecap="round" stroke-linejoin="round"/>
<path d="M444.33 455.448L457.621 439.693" stroke="#171717" stroke-width="3.748" stroke-linecap="round" stroke-linejoin="round"/>
<path d="M466.663 456.955L444.33 455.448" stroke="#171717" stroke-width="3.748" stroke-linecap="round" stroke-linejoin="round"/>
<path d="M683.683 367.594L676.628 378.397" stroke="#171717" stroke-width="3.748" stroke-linecap="round" stroke-linejoin="round"/>
<path d="M688.753 380.16L676.628 378.396" stroke="#171717" stroke-width="3.748" stroke-linecap="round" stroke-linejoin="round"/>
<path d="M683.683 367.594L688.753 380.161" stroke="#171717" stroke-width="3.748" stroke-linecap="round" stroke-linejoin="round"/>
<path d="M676.922 304.981L694.56 308.288" stroke="#171717" stroke-width="3.748" stroke-linecap="round" stroke-linejoin="round"/>
<path d="M687.725 329.894L694.56 308.288" stroke="#171717" stroke-width="3.748" stroke-linecap="round" stroke-linejoin="round"/>
<path d="M676.922 304.981L687.725 329.894" stroke="#171717" stroke-width="3.748" stroke-linecap="round" stroke-linejoin="round"/>
<path d="M377.236 629.359L392.521 637.59" stroke="#171717" stroke-width="3.748" stroke-linecap="round" stroke-linejoin="round"/>
<path d="M396.93 621.718L392.521 638.473" stroke="#171717" stroke-width="3.748" stroke-linecap="round" stroke-linejoin="round"/>
<path d="M377.236 629.36L396.93 621.718" stroke="#171717" stroke-width="3.748" stroke-linecap="round" stroke-linejoin="round"/>
<path d="M653.259 436.82L668.544 432.705" stroke="#171717" stroke-width="3.748" stroke-linecap="round" stroke-linejoin="round"/>
<path d="M667.369 451.518L668.544 432.705" stroke="#171717" stroke-width="3.748" stroke-linecap="round" stroke-linejoin="round"/>
<path d="M653.259 436.82L667.369 451.518" stroke="#171717" stroke-width="3.748" stroke-linecap="round" stroke-linejoin="round"/>
<path d="M545.159 442.939L560.444 438.822" stroke="#171717" stroke-width="3.748" stroke-linecap="round" stroke-linejoin="round"/>
<path d="M559.269 457.636L560.444 438.822" stroke="#171717" stroke-width="3.748" stroke-linecap="round" stroke-linejoin="round"/>
<path d="M545.159 442.939L559.269 457.636" stroke="#171717" stroke-width="3.748" stroke-linecap="round" stroke-linejoin="round"/>
<path d="M608.669 433.769L609.015 422.237" stroke="#171717" stroke-width="3.748" stroke-linecap="round" stroke-linejoin="round"/>
<path d="M621.894 427.018L609.015 422.237" stroke="#171717" stroke-width="3.748" stroke-linecap="round" stroke-linejoin="round"/>
<path d="M608.669 433.77L621.894 427.019" stroke="#171717" stroke-width="3.748" stroke-linecap="round" stroke-linejoin="round"/>
<path d="M515.852 470.667L516.198 459.135" stroke="#171717" stroke-width="3.748" stroke-linecap="round" stroke-linejoin="round"/>
<path d="M529.077 463.916L516.198 459.135" stroke="#171717" stroke-width="3.748" stroke-linecap="round" stroke-linejoin="round"/>
<path d="M515.852 470.666L529.077 463.915" stroke="#171717" stroke-width="3.748" stroke-linecap="round" stroke-linejoin="round"/>
<path d="M587.502 519.355L595.144 525.674" stroke="#171717" stroke-width="3.748" stroke-linecap="round" stroke-linejoin="round"/>
<path d="M586.766 533.171L595.144 525.675" stroke="#171717" stroke-width="3.748" stroke-linecap="round" stroke-linejoin="round"/>
<path d="M602.494 556.944L594.557 565.652" stroke="#171717" stroke-width="3.748" stroke-linecap="round" stroke-linejoin="round"/>
<path d="M604.036 573.479L594.557 565.652" stroke="#171717" stroke-width="3.748" stroke-linecap="round" stroke-linejoin="round"/>
<path d="M536.566 419.482C537.978 414.31 538.7 408.973 538.714 403.611" stroke="#171717" stroke-width="3.748" stroke-linecap="round" stroke-linejoin="round"/>
<path d="M521.516 418.59C522.532 413.59 522.944 408.487 522.744 403.39" stroke="#171717" stroke-width="3.748" stroke-linecap="round" stroke-linejoin="round"/>
<path d="M507.505 418.165C507.848 413.459 508.19 408.754 508.531 404.049" stroke="#171717" stroke-width="3.748" stroke-linecap="round" stroke-linejoin="round"/>
<path d="M493.832 417.72C493.868 413.108 494.344 408.51 495.253 403.988" stroke="#171717" stroke-width="3.748" stroke-linecap="round" stroke-linejoin="round"/>
<path d="M481.868 418.825C481.405 414.203 481.527 409.541 482.232 404.95" stroke="#171717" stroke-width="3.748" stroke-linecap="round" stroke-linejoin="round"/>
<path d="M337.835 122.717L343.289 149.793L370.364 155.246L343.289 160.701L337.835 187.776L332.38 160.701L305.305 155.246L332.38 149.793L337.835 122.717Z" stroke="#171717" stroke-width="3.748" stroke-linecap="round" stroke-linejoin="round"/>
<path d="M615.481 269.964L605.013 254.264" stroke="#171717" stroke-width="3.748" stroke-linecap="round" stroke-linejoin="round"/>
<path d="M603.934 268.9C608.157 264.405 612.38 259.909 616.603 255.414" stroke="#171717" stroke-width="3.748" stroke-linecap="round" stroke-linejoin="round"/>
<path d="M435.254 383.927C430.332 376.547 425.411 369.167 420.489 361.788" stroke="#171717" stroke-width="3.748" stroke-linecap="round" stroke-linejoin="round"/>
<path d="M418.967 382.423C424.923 376.082 430.88 369.741 436.837 363.401" stroke="#171717" stroke-width="3.748" stroke-linecap="round" stroke-linejoin="round"/>
<path d="M665.399 121.047L677.744 98.707" stroke="#171717" stroke-width="3.748" stroke-linecap="round" stroke-linejoin="round"/>
<path d="M648.35 116.932L647.174 26.9824" stroke="#171717" stroke-width="3.748" stroke-linecap="round" stroke-linejoin="round"/>
<path d="M627.185 118.108L618.954 101.059" stroke="#171717" stroke-width="3.748" stroke-linecap="round" stroke-linejoin="round"/>
<path d="M604.256 127.515L523.125 69.8994" stroke="#171717" stroke-width="3.748" stroke-linecap="round" stroke-linejoin="round"/>
<path d="M683.036 131.041L758.289 82.2451" stroke="#171717" stroke-width="3.748" stroke-linecap="round" stroke-linejoin="round"/>
<path d="M765.559 155.644L755.091 139.949" stroke="#171717" stroke-width="3.748" stroke-linecap="round" stroke-linejoin="round"/>
<path d="M754.012 154.578C758.234 150.082 762.457 145.587 766.681 141.092" stroke="#171717" stroke-width="3.748" stroke-linecap="round" stroke-linejoin="round"/>
<path d="M359.191 279.785C363.237 266.034 367.283 252.283 371.329 238.532" stroke="#171717" stroke-width="3.748" stroke-linecap="round" stroke-linejoin="round"/>
<path d="M344.126 253.709L386.326 264.789" stroke="#171717" stroke-width="3.748" stroke-linecap="round" stroke-linejoin="round"/>
<path d="M771.792 191.313C777.616 185.275 783.441 179.238 789.266 173.2" stroke="#171717" stroke-width="3.748" stroke-linecap="round" stroke-linejoin="round"/>
<path d="M771.041 173.7C777.337 179.426 783.634 185.153 789.931 190.881" stroke="#171717" stroke-width="3.748" stroke-linecap="round" stroke-linejoin="round"/>
<path fill-rule="evenodd" clip-rule="evenodd" d="M586.871 529.071L586.621 529.058C547.638 535.071 508.952 540.269 470.065 545.493C447.151 548.572 424.167 551.66 401.012 554.93C400.063 576.653 407.283 597.944 421.251 614.609L421.451 614.435C443.246 611.592 465.117 608.887 487.044 606.175C519.94 602.106 552.96 598.023 586.034 593.435H586.171C585.813 571.963 586.046 550.509 586.871 529.071ZM577.645 542.371C577.701 541.337 576.908 540.454 575.875 540.398C574.841 540.342 573.958 541.135 573.902 542.168L571.702 582.757C571.646 583.791 572.438 584.674 573.472 584.73C574.505 584.786 575.389 583.993 575.445 582.96L577.645 542.371Z" fill="#171717"/>
<path fill-rule="evenodd" clip-rule="evenodd" d="M681.206 857.925C692.148 857.378 702.968 855.366 713.375 851.941C736.942 844.279 757.624 829.636 772.68 809.952C774.379 807.724 775.991 805.429 777.515 803.068C716.561 742.464 656.041 682.26 596.041 620.695L596.003 620.582C593.752 621.367 591.493 622.144 589.239 622.919C588.804 623.069 588.368 623.218 587.933 623.368L587.058 623.406C587.882 643.087 589.207 662.734 591.031 682.348C592.106 693.929 592.905 706.971 585.222 715.704C579.95 721.701 572.071 724.024 563.971 725.211C603.923 768.687 643.002 812.925 681.206 857.925ZM599.277 639.76C598.517 639.058 597.331 639.105 596.629 639.866C595.927 640.626 595.974 641.812 596.735 642.514C651.54 693.112 704.186 745.922 754.674 800.946C755.374 801.708 756.559 801.759 757.322 801.06C758.084 800.36 758.135 799.174 757.436 798.412C706.878 743.312 654.158 690.428 599.277 639.76Z" fill="#171717"/>
<path d="M433.158 851.762C454.727 844.663 473.737 831.388 487.829 813.583" stroke="#171717" stroke-width="3.748" stroke-linecap="round" stroke-linejoin="round"/>
<path d="M233.287 785.384C238.541 771.91 248.276 760.657 260.853 753.519" stroke="#171717" stroke-width="3.748" stroke-linecap="round" stroke-linejoin="round"/>
<path d="M229.741 767.741C230.336 765.433 231.438 763.286 232.969 761.459C234.499 759.631 236.418 758.169 238.585 757.178" stroke="#171717" stroke-width="3.748" stroke-linecap="round" stroke-linejoin="round"/>
<path d="M707.729 287.427C708.511 284.093 709.295 280.76 710.08 277.427" stroke="#171717" stroke-width="3.748" stroke-linecap="round" stroke-linejoin="round"/>
<path d="M725.392 286.283C730.015 282.511 733.736 277.752 736.279 272.354C738.823 266.957 740.126 261.058 740.092 255.091" stroke="#171717" stroke-width="3.748" stroke-linecap="round" stroke-linejoin="round"/>
<path d="M740.062 283.9C742.943 279.851 744.946 275.245 745.942 270.377" stroke="#171717" stroke-width="3.748" stroke-linecap="round" stroke-linejoin="round"/>
<path d="M735.516 896.913C741.457 902.111 748.783 905.467 756.6 906.57C764.416 907.674 772.385 906.479 779.534 903.129" stroke="#171717" stroke-width="3.748" stroke-linecap="round" stroke-linejoin="round"/>
<g opacity="0.1">
<path d="M543.136 316L543.05 315.608C542.913 315.137 542.629 314.722 542.238 314.424C541.847 314.127 541.371 313.963 540.88 313.957C530.58 313.521 519.687 312.734 509.436 313.999C501.018 315.038 493.082 319.235 490.614 327.863C489.305 332.438 489.445 337.672 489.341 342.378C489.218 348.004 489.114 353.631 489.028 359.257C488.838 371.162 489.171 383.092 489.286 394.999C489.386 405.611 505.919 405.636 505.786 394.999C505.539 375.265 505.094 355.599 504.196 335.88C504.047 332.597 503.685 328.84 505.258 325.849C506.887 322.749 510.909 322.507 514.269 322.057C523.337 320.844 532.447 319.874 541.478 318.376C541.858 318.281 542.205 318.085 542.482 317.808C542.758 317.531 542.955 317.184 543.05 316.804C543.113 316.542 543.142 316.274 543.136 316.004V316Z" fill="#171717"/>
</g>
<g opacity="0.1">
<path d="M484.739 403.687C479.901 404.742 478.02 408.766 474.289 411.756C470.17 415.084 465.527 417.704 460.55 419.511C450.19 423.288 439.863 426.357 429.873 431.133C412.021 439.668 396.131 453.127 383.715 468.467C370.649 484.608 360.297 503.406 354.981 523.559C349.526 544.85 348.8 567.077 352.854 588.678C357.319 613.407 368.847 636.478 384.797 655.759C388.591 660.347 396.448 659.686 400.375 655.759C404.914 651.22 404.175 644.78 400.375 640.181C376.191 610.94 366.013 569.192 374.164 532.122C382.127 495.907 405.224 467.363 436.395 448.122C445.655 442.404 455.671 439.015 465.701 434.972C476.922 430.449 487.56 424.025 490.66 411.522C490.948 410.468 490.952 409.356 490.673 408.299C490.393 407.242 489.84 406.277 489.069 405.502C487.75 404.279 486.716 403.26 484.739 403.691V403.687Z" fill="#171717"/>
</g>
<g opacity="0.1">
<path d="M558.93 428.214C560.067 428.865 560.621 429.914 561.867 430.531C563.74 431.457 565.621 431.31 567.661 431.321C571.94 431.345 576.213 431.246 580.477 430.87C588.381 430.312 596.249 429.315 604.043 427.884C620.196 424.568 634.624 415.57 644.709 402.523C654.921 389.368 660.572 373.256 662.896 356.873C664.225 347.17 664.693 337.368 664.296 327.581C664.115 322.476 663.764 317.381 663.332 312.288C662.9 307.195 663.066 301.218 661.2 296.449C659.672 292.544 656.6 289.567 652.16 289.567C648.329 289.567 643.808 292.445 643.12 296.449C641.614 305.205 643.872 314.877 644.304 323.757C644.789 332.657 644.64 341.579 643.856 350.457C642.678 364.59 638.172 378.243 630.706 390.3C623.137 402.246 611.763 410.284 598.952 415.812C592.041 418.719 584.737 420.583 577.279 421.343C573.544 421.775 569.806 422.074 566.061 422.387C564.758 422.41 563.468 422.646 562.242 423.087C560.684 423.728 560.257 424.865 558.93 425.63C558.707 425.765 558.523 425.955 558.395 426.182C558.267 426.409 558.2 426.665 558.2 426.925C558.2 427.186 558.267 427.442 558.395 427.669C558.523 427.895 558.707 428.086 558.93 428.22V428.214Z" fill="#171717"/>
</g>
<g opacity="0.1">
<path d="M663.383 282.759C663.783 275.692 660.577 268.445 659.71 261.43C659.267 257.847 658.295 254.176 658.22 250.558C658.134 246.44 659.247 243.882 656.881 240.012C654.025 235.338 646.63 236.144 645.144 241.546C643.81 246.395 645.944 248.528 647.13 252.983C648.168 256.868 649.066 260.724 650.44 264.502C652.882 271.214 654.022 279.118 658.74 284.681C660.374 286.607 663.258 284.92 663.382 282.759H663.383Z" fill="#171717"/>
</g>
</g>
<defs>
<linearGradient id="paint0_linear_38_4072" x1="783.379" y1="803.93" x2="783.247" y2="888.171" gradientUnits="userSpaceOnUse">
<stop stop-color="#B7B7B7"/>
<stop offset="1" stop-color="#6F6F6F"/>
</linearGradient>
<linearGradient id="paint1_linear_38_4072" x1="530.234" y1="283.957" x2="529.217" y2="658.034" gradientUnits="userSpaceOnUse">
<stop stop-color="#B7B7B7"/>
<stop offset="1" stop-color="#6F6F6F"/>
</linearGradient>
<linearGradient id="paint2_linear_38_4072" x1="671.568" y1="136.749" x2="671.516" y2="159.998" gradientUnits="userSpaceOnUse">
<stop stop-color="#B7B7B7"/>
<stop offset="1" stop-color="#6F6F6F"/>
</linearGradient>
<linearGradient id="paint3_linear_38_4072" x1="654.289" y1="132.816" x2="654.238" y2="157.542" gradientUnits="userSpaceOnUse">
<stop stop-color="#B7B7B7"/>
<stop offset="1" stop-color="#6F6F6F"/>
</linearGradient>
<linearGradient id="paint4_linear_38_4072" x1="660.374" y1="206.539" x2="660.314" y2="235.823" gradientUnits="userSpaceOnUse">
<stop stop-color="#B7B7B7"/>
<stop offset="1" stop-color="#6F6F6F"/>
</linearGradient>
<linearGradient id="paint5_linear_38_4072" x1="635.67" y1="135.925" x2="635.639" y2="153.496" gradientUnits="userSpaceOnUse">
<stop stop-color="#B7B7B7"/>
<stop offset="1" stop-color="#6F6F6F"/>
</linearGradient>
<linearGradient id="paint6_linear_38_4072" x1="621.402" y1="165.748" x2="621.37" y2="186.534" gradientUnits="userSpaceOnUse">
<stop stop-color="#B7B7B7"/>
<stop offset="1" stop-color="#6F6F6F"/>
</linearGradient>
<linearGradient id="paint7_linear_38_4072" x1="617.935" y1="139.149" x2="617.902" y2="158.806" gradientUnits="userSpaceOnUse">
<stop stop-color="#B7B7B7"/>
<stop offset="1" stop-color="#6F6F6F"/>
</linearGradient>
<linearGradient id="paint8_linear_38_4072" x1="599.775" y1="199.241" x2="599.685" y2="226.439" gradientUnits="userSpaceOnUse">
<stop stop-color="#B7B7B7"/>
<stop offset="1" stop-color="#6F6F6F"/>
</linearGradient>
<linearGradient id="paint9_linear_38_4072" x1="591.923" y1="177.815" x2="591.801" y2="204.429" gradientUnits="userSpaceOnUse">
<stop stop-color="#B7B7B7"/>
<stop offset="1" stop-color="#6F6F6F"/>
</linearGradient>
<linearGradient id="paint10_linear_38_4072" x1="510.809" y1="403.022" x2="510.798" y2="421.243" gradientUnits="userSpaceOnUse">
<stop stop-color="#B7B7B7"/>
<stop offset="1" stop-color="#6F6F6F"/>
</linearGradient>
<linearGradient id="paint11_linear_38_4072" x1="520.811" y1="668.092" x2="520.708" y2="704.639" gradientUnits="userSpaceOnUse">
<stop stop-color="#B7B7B7"/>
<stop offset="1" stop-color="#6F6F6F"/>
</linearGradient>
<linearGradient id="paint12_linear_38_4072" x1="492.281" y1="190.446" x2="492.228" y2="210.985" gradientUnits="userSpaceOnUse">
<stop stop-color="#B7B7B7"/>
<stop offset="1" stop-color="#6F6F6F"/>
</linearGradient>
<linearGradient id="paint13_linear_38_4072" x1="473.934" y1="161.462" x2="473.914" y2="176.26" gradientUnits="userSpaceOnUse">
<stop stop-color="#B7B7B7"/>
<stop offset="1" stop-color="#6F6F6F"/>
</linearGradient>
<linearGradient id="paint14_linear_38_4072" x1="447.763" y1="175.135" x2="447.685" y2="205.41" gradientUnits="userSpaceOnUse">
<stop stop-color="#B7B7B7"/>
<stop offset="1" stop-color="#6F6F6F"/>
</linearGradient>
<linearGradient id="paint15_linear_38_4072" x1="416.86" y1="222.129" x2="416.829" y2="241.86" gradientUnits="userSpaceOnUse">
<stop stop-color="#B7B7B7"/>
<stop offset="1" stop-color="#6F6F6F"/>
</linearGradient>
<linearGradient id="paint16_linear_38_4072" x1="393.46" y1="186.985" x2="393.331" y2="216.569" gradientUnits="userSpaceOnUse">
<stop stop-color="#B7B7B7"/>
<stop offset="1" stop-color="#6F6F6F"/>
</linearGradient>
<linearGradient id="paint17_linear_38_4072" x1="331.932" y1="297.062" x2="331.785" y2="324.57" gradientUnits="userSpaceOnUse">
<stop stop-color="#B7B7B7"/>
<stop offset="1" stop-color="#6F6F6F"/>
</linearGradient>
<linearGradient id="paint18_linear_38_4072" x1="308.358" y1="283.02" x2="308.338" y2="295.88" gradientUnits="userSpaceOnUse">
<stop stop-color="#B7B7B7"/>
<stop offset="1" stop-color="#6F6F6F"/>
</linearGradient>
<linearGradient id="paint19_linear_38_4072" x1="307.595" y1="367.223" x2="307.575" y2="379.747" gradientUnits="userSpaceOnUse">
<stop stop-color="#B7B7B7"/>
<stop offset="1" stop-color="#6F6F6F"/>
</linearGradient>
<linearGradient id="paint20_linear_38_4072" x1="305.829" y1="322.743" x2="305.78" y2="340.07" gradientUnits="userSpaceOnUse">
<stop stop-color="#B7B7B7"/>
<stop offset="1" stop-color="#6F6F6F"/>
</linearGradient>
<linearGradient id="paint21_linear_38_4072" x1="272.837" y1="765.301" x2="272.394" y2="880.007" gradientUnits="userSpaceOnUse">
<stop stop-color="#B7B7B7"/>
<stop offset="1" stop-color="#6F6F6F"/>
</linearGradient>
<linearGradient id="paint22_linear_38_4072" x1="275.835" y1="344.86" x2="275.771" y2="360.627" gradientUnits="userSpaceOnUse">
<stop stop-color="#B7B7B7"/>
<stop offset="1" stop-color="#6F6F6F"/>
</linearGradient>
<linearGradient id="paint23_linear_38_4072" x1="260.756" y1="242.93" x2="260.656" y2="262.325" gradientUnits="userSpaceOnUse">
<stop stop-color="#B7B7B7"/>
<stop offset="1" stop-color="#6F6F6F"/>
</linearGradient>
<linearGradient id="paint24_linear_38_4072" x1="246.305" y1="223.702" x2="246.284" y2="234.575" gradientUnits="userSpaceOnUse">
<stop stop-color="#B7B7B7"/>
<stop offset="1" stop-color="#6F6F6F"/>
</linearGradient>
<linearGradient id="paint25_linear_38_4072" x1="237.683" y1="248.287" x2="237.645" y2="261.285" gradientUnits="userSpaceOnUse">
<stop stop-color="#B7B7B7"/>
<stop offset="1" stop-color="#6F6F6F"/>
</linearGradient>
<linearGradient id="paint26_linear_38_4072" x1="225.753" y1="269.916" x2="225.739" y2="279.446" gradientUnits="userSpaceOnUse">
<stop stop-color="#B7B7B7"/>
<stop offset="1" stop-color="#6F6F6F"/>
</linearGradient>
<linearGradient id="paint27_linear_38_4072" x1="216.096" y1="248.714" x2="216.053" y2="260.941" gradientUnits="userSpaceOnUse">
<stop stop-color="#B7B7B7"/>
<stop offset="1" stop-color="#6F6F6F"/>
</linearGradient>
<linearGradient id="paint28_linear_38_4072" x1="171.396" y1="454.262" x2="171.337" y2="472.241" gradientUnits="userSpaceOnUse">
<stop stop-color="#B7B7B7"/>
<stop offset="1" stop-color="#6F6F6F"/>
</linearGradient>
<linearGradient id="paint29_linear_38_4072" x1="170.128" y1="426.327" x2="170.104" y2="437.261" gradientUnits="userSpaceOnUse">
<stop stop-color="#B7B7B7"/>
<stop offset="1" stop-color="#6F6F6F"/>
</linearGradient>
<linearGradient id="paint30_linear_38_4072" x1="146.933" y1="445.969" x2="146.901" y2="460.421" gradientUnits="userSpaceOnUse">
<stop stop-color="#B7B7B7"/>
<stop offset="1" stop-color="#6F6F6F"/>
</linearGradient>
<linearGradient id="paint31_linear_38_4072" x1="123.33" y1="422.654" x2="123.295" y2="435.477" gradientUnits="userSpaceOnUse">
<stop stop-color="#B7B7B7"/>
<stop offset="1" stop-color="#6F6F6F"/>
</linearGradient>
<linearGradient id="paint32_linear_38_4072" x1="115.502" y1="451.311" x2="115.441" y2="469.401" gradientUnits="userSpaceOnUse">
<stop stop-color="#B7B7B7"/>
<stop offset="1" stop-color="#6F6F6F"/>
</linearGradient>
<clipPath id="clip0_38_4072">
<rect width="960" height="960" fill="white"/>
</clipPath>
</defs>
</svg>
